<?xml version="1.0" encoding="utf-8"?>
<!-- Generator: Adobe Illustrator 16.0.0, SVG Export Plug-In . SVG Version: 6.00 Build 0)  -->
<!DOCTYPE svg PUBLIC "-//W3C//DTD SVG 1.1//EN" "http://www.w3.org/Graphics/SVG/1.1/DTD/svg11.dtd">
<svg version="1.1" id="Layer_1" xmlns="http://www.w3.org/2000/svg" xmlns:xlink="http://www.w3.org/1999/xlink" x="0px" y="0px"
	 width="200px" height="80px" viewBox="-67 0 200 80" enable-background="new -67 0 200 80" xml:space="preserve">
<g>
	<g>
		<g>
			<path fill="#086C9E" d="M-1.871,55.249V36.804h4.264v18.445H-1.871z"/>
			<path fill="#086C9E" d="M3.791,36.804h13.857c1.569,0,2.908,0.556,4.022,1.667c1.094,1.095,1.647,2.427,1.668,3.994
				c0,0.637-0.09,1.253-0.267,1.849c-0.099,0.257-0.21,0.525-0.329,0.803c-0.12,0.28-0.268,0.547-0.448,0.806
				c0.875,0.994,1.331,2.214,1.372,3.664v5.662h-4.26v-5.662c0-0.337-0.119-0.655-0.357-0.953c-0.243-0.259-0.526-0.417-0.867-0.476
				H8.056v7.091H3.791V36.804z M17.796,41.066h-9.74v2.829h9.74c0.399,0,0.736-0.14,1.011-0.415
				c0.243-0.239,0.383-0.578,0.419-1.015c0-0.376-0.136-0.704-0.419-0.982C18.569,41.245,18.232,41.105,17.796,41.066z"/>
			<path fill="#086C9E" d="M25.068,55.249V36.804h4.261v18.445H25.068z"/>
			<path fill="#086C9E" d="M36.391,48.158c-1.568-0.021-2.9-0.578-3.993-1.671c-1.113-1.111-1.672-2.45-1.672-4.021
				c0.02-1.567,0.578-2.899,1.672-3.994c1.114-1.112,2.444-1.667,3.993-1.667h15.613v4.262H36.391
				c-0.439,0.039-0.775,0.179-1.014,0.417c-0.254,0.259-0.387,0.586-0.387,0.982c0.037,0.437,0.18,0.775,0.414,1.015
				c0.279,0.275,0.609,0.415,0.986,0.415h9.832c1.59,0,2.93,0.566,4.021,1.694c1.113,1.109,1.672,2.448,1.672,4.011
				c-0.02,1.565-0.578,2.893-1.672,3.984c-1.109,1.108-2.453,1.664-4.021,1.664H30.701v-4.262h15.522
				c0.439-0.04,0.773-0.177,1.016-0.418c0.273-0.275,0.414-0.604,0.414-0.982c-0.037-0.438-0.176-0.773-0.414-1.013
				c-0.281-0.276-0.617-0.416-1.016-0.416H36.391z"/>
			<path fill="#A8A8A8" d="M70.475,55.249H59.127c-1.557,0-2.893-0.558-4.01-1.669c-1.105-1.092-1.664-2.421-1.684-3.993v-7.121
				c0-1.55,0.563-2.881,1.684-3.994c1.098-1.091,2.432-1.646,4.01-1.667h11.348v4.291H59.127c-0.342,0-0.658,0.139-0.953,0.418
				c-0.301,0.274-0.451,0.603-0.451,0.979v7.099c0,0.399,0.131,0.735,0.389,1.011c0.26,0.218,0.596,0.346,1.016,0.386h11.348V55.249
				z"/>
			<path fill="#A8A8A8" d="M77.594,48.158l-1.455,2.514v4.577h-4.26v-5.731l5.748-9.908c0.518-0.894,1.195-1.591,2.025-2.089
				c0.814-0.458,1.771-0.706,2.863-0.745c1.131,0,2.096,0.228,2.893,0.686c0.789,0.416,1.475,1.136,2.055,2.148l5.689,9.908v5.731
				h-4.26V50.61l-1.402-2.452H77.594z M84.988,43.896L83.77,41.72c-0.16-0.277-0.33-0.456-0.51-0.534
				c-0.139-0.06-0.387-0.108-0.744-0.148c-0.258,0-0.426-0.012-0.504-0.031c-0.182,0-0.309,0.04-0.391,0.12
				c-0.063,0.06-0.156,0.257-0.297,0.594l-1.252,2.176H84.988z"/>
			<path fill="#A8A8A8" d="M100.244,55.278c-1.57-0.018-2.896-0.576-3.988-1.671c-1.115-1.114-1.674-2.446-1.674-4V36.804h4.266
				v12.803c0.037,0.419,0.164,0.759,0.381,1.015c0.279,0.26,0.621,0.388,1.016,0.388H111.6v4.269H100.244z"/>
			<path fill="#A8A8A8" d="M118.686,55.278c-1.564-0.018-2.895-0.576-3.992-1.671c-1.109-1.114-1.668-2.446-1.668-4V36.804h4.264
				v12.803c0.039,0.419,0.164,0.759,0.387,1.015c0.279,0.26,0.615,0.388,1.01,0.388h11.357v4.269H118.686z"/>
		</g>
	</g>
	<g>
		<path fill="#C0C0C0" d="M-5.752,20.073c0,0-12.833,33.96-39.993,48.534c0,0,17.164-13.531,23.877-30.784
			c0,0-9.35,4.874-21.683,4.773C-43.551,42.597-13.331,34.33-5.752,20.073z"/>
		<path fill="#086C9E" d="M-1.075,0c0,0-21.153,55.981-65.925,80c0,0,28.285-22.302,39.36-50.744c0,0-15.409,8.034-35.744,7.867
			C-63.384,37.124-13.566,23.499-1.075,0z"/>
		<path fill="#C0C0C0" d="M-34.855,12.039c0-3.258,2.645-5.9,5.901-5.9c3.265,0,5.905,2.643,5.905,5.9
			c0,3.263-2.641,5.901-5.905,5.901C-32.21,17.94-34.855,15.302-34.855,12.039z"/>
	</g>
</g>
</svg>
