<svg id="svg" version="1.1" xmlns="http://www.w3.org/2000/svg" xmlns:xlink="http://www.w3.org/1999/xlink" width="400" height="142.4083769633508" viewBox="0, 0, 400,142.4083769633508"><g id="svgg"><path id="path0" d="M169.583 32.112 C 168.716 32.303,168.279 32.589,168.063 33.107 C 167.924 33.439,167.570 33.808,167.169 34.037 C 166.804 34.246,166.448 34.529,166.378 34.667 C 166.101 35.207,166.151 105.886,166.428 106.250 C 166.673 106.573,166.877 106.583,172.772 106.583 L 178.863 106.583 179.181 106.190 C 179.561 105.721,179.694 35.722,179.319 33.572 L 179.138 32.533 178.077 32.267 C 177.066 32.013,170.571 31.895,169.583 32.112 M197.377 32.294 C 197.081 32.453,196.795 32.715,196.741 32.875 C 196.688 33.035,196.554 33.167,196.443 33.167 C 196.219 33.167,194.833 34.580,194.833 34.808 C 194.833 34.888,194.568 35.235,194.243 35.579 C 193.083 36.809,193.032 40.785,194.160 42.020 C 194.439 42.325,194.667 42.633,194.667 42.705 C 194.667 42.777,194.873 43.061,195.125 43.335 C 195.377 43.609,195.669 43.928,195.774 44.042 C 196.919 45.290,197.733 45.637,199.838 45.775 C 202.275 45.934,204.388 45.499,204.889 44.735 C 205.087 44.431,205.402 44.113,205.588 44.029 C 206.387 43.664,207.000 42.976,207.001 42.444 C 207.001 42.154,207.151 41.671,207.334 41.371 C 207.517 41.071,207.670 40.621,207.674 40.371 C 207.678 40.121,207.778 39.647,207.896 39.317 C 208.071 38.825,208.070 38.584,207.891 37.983 C 207.770 37.580,207.671 37.087,207.669 36.887 C 207.668 36.687,207.553 36.410,207.413 36.270 C 207.274 36.131,207.096 35.677,207.019 35.261 C 206.883 34.534,206.341 33.852,205.890 33.839 C 205.784 33.836,205.358 33.440,204.943 32.959 L 204.190 32.084 201.053 32.044 C 198.343 32.010,197.843 32.044,197.377 32.294 M289.417 32.079 C 289.325 32.117,288.946 32.227,288.574 32.322 C 288.024 32.463,287.854 32.605,287.669 33.077 C 287.544 33.397,287.192 33.900,286.887 34.195 C 286.583 34.490,286.333 34.824,286.333 34.937 C 286.333 35.050,286.202 35.274,286.042 35.435 C 285.766 35.710,285.748 37.655,285.707 70.858 L 285.664 105.990 286.207 106.287 C 286.693 106.552,287.366 106.588,292.668 106.633 L 298.586 106.682 298.876 106.190 C 299.143 105.738,299.167 104.916,299.168 95.891 C 299.169 85.082,299.097 85.856,300.206 84.748 C 300.592 84.362,300.677 84.334,300.765 84.563 C 300.822 84.712,300.928 84.833,301.000 84.833 C 301.374 84.833,303.318 86.127,303.674 86.611 C 303.899 86.919,304.437 87.392,304.870 87.664 C 305.303 87.935,305.849 88.462,306.085 88.835 C 306.320 89.208,306.707 89.587,306.946 89.678 C 307.466 89.876,308.160 90.505,308.164 90.783 C 308.168 91.057,308.819 91.705,309.376 91.989 C 309.629 92.118,310.073 92.595,310.364 93.048 C 310.663 93.514,311.084 93.938,311.333 94.025 C 311.576 94.110,311.976 94.498,312.223 94.889 C 312.470 95.279,313.046 95.923,313.503 96.319 C 313.960 96.716,314.333 97.117,314.333 97.212 C 314.333 97.306,314.746 97.783,315.250 98.271 C 315.754 98.760,316.167 99.195,316.167 99.239 C 316.167 99.282,316.335 99.497,316.542 99.717 C 318.556 101.857,319.333 102.898,319.333 103.456 C 319.333 103.572,319.416 103.667,319.516 103.667 C 319.959 103.667,320.719 104.443,321.085 105.269 C 321.441 106.075,321.534 106.167,321.996 106.167 C 322.279 106.167,322.780 106.279,323.109 106.417 C 324.169 106.859,335.772 106.779,337.089 106.320 C 338.282 105.904,338.488 105.738,338.000 105.583 C 337.469 105.415,336.985 104.875,336.816 104.264 C 336.666 103.721,336.363 103.343,335.604 102.750 C 335.369 102.567,335.013 102.079,334.811 101.667 C 334.609 101.254,334.092 100.568,333.660 100.141 C 333.229 99.714,332.637 98.947,332.344 98.436 C 332.052 97.925,331.609 97.386,331.360 97.239 C 330.895 96.965,330.167 95.870,330.167 95.446 C 330.167 95.314,329.950 95.118,329.686 95.008 C 329.055 94.747,328.404 94.033,328.267 93.452 C 328.203 93.182,327.995 92.926,327.767 92.840 C 327.252 92.644,326.572 92.000,326.442 91.583 C 326.296 91.119,325.538 90.333,325.236 90.333 C 325.099 90.333,324.760 89.970,324.484 89.526 C 324.208 89.082,323.647 88.482,323.237 88.193 C 322.828 87.904,322.422 87.483,322.336 87.257 C 322.142 86.745,321.709 86.308,321.147 86.056 C 320.910 85.950,320.506 85.532,320.250 85.126 C 319.970 84.683,319.501 84.240,319.072 84.012 C 318.653 83.790,318.280 83.441,318.165 83.163 C 317.986 82.731,316.879 81.833,316.526 81.833 C 316.360 81.833,315.500 80.593,315.500 80.354 C 315.500 80.270,315.240 79.973,314.922 79.694 C 314.042 78.921,314.127 77.504,315.054 77.499 C 315.162 77.498,315.650 77.086,316.140 76.582 C 316.629 76.079,317.098 75.667,317.182 75.667 C 317.265 75.667,317.333 75.589,317.333 75.495 C 317.333 75.400,317.465 75.273,317.625 75.212 C 317.785 75.150,318.062 74.965,318.240 74.800 C 318.417 74.635,318.699 74.500,318.865 74.500 C 319.031 74.500,319.167 74.437,319.167 74.361 C 319.167 74.045,320.690 72.704,321.154 72.611 C 321.482 72.545,321.741 72.340,321.911 72.010 C 322.242 71.370,322.818 70.833,323.174 70.833 C 323.476 70.833,324.033 70.339,324.630 69.541 C 324.840 69.262,325.196 68.987,325.422 68.930 C 325.648 68.873,325.833 68.753,325.833 68.663 C 325.833 68.574,325.931 68.500,326.051 68.500 C 326.171 68.500,326.490 68.202,326.760 67.837 C 327.029 67.473,327.306 67.173,327.375 67.171 C 327.615 67.163,329.259 65.908,330.140 65.060 C 330.629 64.588,331.248 64.159,331.515 64.105 C 331.782 64.052,332.000 63.912,332.000 63.794 C 332.000 63.414,333.066 62.345,333.643 62.147 C 334.045 62.009,334.272 61.785,334.450 61.352 C 334.732 60.667,335.459 59.833,335.775 59.833 C 335.891 59.833,335.687 59.527,335.320 59.153 C 334.953 58.779,334.610 58.261,334.559 58.002 C 334.479 57.602,334.312 57.478,333.441 57.175 C 332.877 56.978,332.218 56.709,331.974 56.575 C 331.731 56.442,331.445 56.333,331.338 56.333 C 331.232 56.333,330.874 56.127,330.543 55.875 C 329.635 55.183,326.218 55.188,325.214 55.884 C 324.857 56.131,324.506 56.333,324.433 56.333 C 324.360 56.333,324.064 56.438,323.775 56.565 C 323.486 56.693,322.875 56.893,322.417 57.011 C 321.388 57.275,320.956 57.543,320.657 58.100 C 320.530 58.338,320.143 58.646,319.797 58.784 C 319.450 58.923,319.167 59.103,319.167 59.185 C 319.167 59.266,319.072 59.333,318.957 59.333 C 318.841 59.333,318.523 59.594,318.248 59.913 C 317.974 60.232,317.674 60.494,317.582 60.496 C 317.489 60.498,317.326 60.641,317.218 60.813 C 317.111 60.985,316.680 61.292,316.261 61.495 C 315.843 61.697,315.500 61.923,315.500 61.995 C 315.500 62.274,314.129 63.482,313.700 63.581 C 313.405 63.648,313.095 63.938,312.799 64.424 C 312.481 64.945,312.149 65.243,311.673 65.434 C 311.245 65.605,310.829 65.950,310.540 66.373 C 310.288 66.742,309.713 67.247,309.258 67.500 C 308.765 67.774,308.337 68.161,308.195 68.461 C 308.064 68.737,307.648 69.132,307.270 69.339 C 306.460 69.782,305.834 70.319,305.833 70.571 C 305.832 70.669,305.341 71.079,304.742 71.482 C 304.143 71.884,303.562 72.337,303.451 72.489 C 302.537 73.741,299.667 74.595,299.667 73.614 C 299.667 73.538,299.554 73.364,299.417 73.226 C 299.197 73.007,299.167 70.634,299.167 53.895 C 299.167 33.232,299.147 32.710,298.353 32.318 C 297.938 32.113,289.853 31.896,289.417 32.079 M359.873 32.285 C 359.186 32.488,358.973 32.633,358.893 32.953 C 358.792 33.353,357.635 34.333,357.263 34.333 C 357.160 34.333,356.893 34.870,356.670 35.525 C 355.785 38.126,356.340 43.210,357.535 43.449 C 358.034 43.548,359.000 44.518,359.000 44.919 C 359.000 45.052,359.206 45.204,359.458 45.258 C 359.710 45.311,360.385 45.473,360.957 45.618 C 363.404 46.239,366.960 45.600,367.762 44.396 C 368.030 43.993,368.588 43.443,369.002 43.173 C 370.704 42.064,370.641 34.381,368.929 34.328 C 368.692 34.320,368.000 33.738,368.000 33.545 C 368.000 32.274,362.699 31.452,359.873 32.285 M242.917 53.587 C 242.458 53.705,241.644 53.809,241.107 53.817 C 240.571 53.826,239.706 53.944,239.185 54.078 C 237.874 54.418,233.696 54.999,232.539 55.003 C 231.484 55.006,229.179 55.543,229.004 55.827 C 228.843 56.087,227.260 56.661,226.000 56.916 C 223.074 57.508,222.833 57.577,222.833 57.830 C 222.833 57.969,222.696 58.458,222.528 58.917 C 222.237 59.711,222.224 60.834,222.248 82.845 L 222.273 105.940 222.637 106.303 C 222.995 106.662,223.074 106.667,228.377 106.667 L 233.753 106.667 234.210 106.243 L 234.667 105.820 234.667 87.012 C 234.667 72.198,234.711 68.121,234.877 67.811 C 235.173 67.256,236.985 65.476,237.583 65.153 C 238.561 64.625,240.729 64.417,245.250 64.417 C 250.679 64.417,251.728 64.598,253.000 65.756 C 253.229 65.964,253.885 66.378,254.457 66.676 C 255.282 67.104,255.557 67.350,255.781 67.858 C 255.937 68.211,256.125 68.500,256.199 68.500 C 256.273 68.500,256.333 68.598,256.333 68.717 C 256.333 68.837,256.599 69.192,256.924 69.507 C 258.403 70.941,258.548 72.793,258.623 91.208 L 258.683 106.167 259.060 106.167 C 259.267 106.167,259.582 106.277,259.760 106.411 C 260.029 106.615,261.034 106.657,265.771 106.661 L 271.460 106.667 271.658 106.188 C 271.808 105.825,271.841 101.387,271.794 87.813 C 271.727 68.478,271.739 68.740,270.855 67.876 C 270.569 67.595,270.108 66.501,269.678 65.083 C 269.342 63.973,269.134 63.500,268.980 63.500 C 268.709 63.500,268.105 62.775,267.703 61.967 C 267.483 61.527,267.216 61.167,267.108 61.167 C 266.843 61.167,266.086 60.447,265.745 59.870 C 265.591 59.610,265.170 59.269,264.807 59.112 C 264.184 58.842,263.167 57.965,263.167 57.699 C 263.167 57.631,262.623 57.395,261.958 57.175 C 260.366 56.646,259.628 56.269,259.378 55.855 C 259.153 55.482,257.759 55.000,256.904 55.000 C 256.346 55.000,254.518 54.677,252.667 54.251 C 252.071 54.113,250.980 53.930,250.243 53.843 C 249.506 53.756,248.694 53.606,248.440 53.509 C 247.809 53.269,243.942 53.324,242.917 53.587 M198.526 55.382 C 198.127 55.495,197.675 55.736,197.521 55.918 C 197.176 56.326,196.293 56.833,195.927 56.833 C 195.778 56.833,195.608 56.965,195.549 57.125 C 195.489 57.285,195.383 57.457,195.311 57.505 C 195.149 57.616,194.674 59.308,194.493 60.417 C 194.419 60.875,194.352 71.271,194.346 83.520 L 194.333 105.789 194.996 106.228 L 195.660 106.667 201.054 106.667 C 206.068 106.667,206.468 106.645,206.724 106.362 C 206.978 106.081,207.000 104.124,207.000 81.609 L 207.000 57.161 206.419 56.596 C 205.113 55.328,200.972 54.691,198.526 55.382 M362.583 62.205 C 362.217 62.294,361.579 62.505,361.167 62.674 C 360.754 62.842,360.042 63.099,359.583 63.245 C 358.640 63.546,358.279 63.784,358.118 64.214 C 358.056 64.378,357.785 64.639,357.516 64.793 C 356.212 65.541,355.687 70.432,356.676 72.605 C 356.854 72.995,357.000 73.367,357.000 73.430 C 357.000 73.626,358.150 74.639,358.500 74.750 C 358.683 74.808,358.833 74.926,358.833 75.011 C 358.833 75.097,358.912 75.167,359.009 75.167 C 359.328 75.167,360.667 75.838,360.667 75.998 C 360.667 76.878,364.705 76.961,365.667 76.100 C 366.260 75.570,366.944 75.167,367.253 75.167 C 367.587 75.167,368.667 74.316,368.667 74.054 C 368.667 73.946,368.918 73.646,369.225 73.387 C 370.512 72.302,370.621 65.893,369.362 65.294 C 369.117 65.177,368.692 64.739,368.417 64.321 C 367.971 63.644,367.799 63.527,366.833 63.248 C 366.238 63.076,365.563 62.838,365.333 62.719 C 365.104 62.599,364.672 62.455,364.373 62.399 C 364.074 62.342,363.789 62.229,363.738 62.148 C 363.632 61.976,363.491 61.983,362.583 62.205 M361.917 92.835 C 360.467 92.928,359.779 93.206,359.145 93.955 C 358.732 94.442,357.625 95.165,357.282 95.170 C 357.173 95.171,356.899 95.753,356.674 96.461 C 355.823 99.143,356.332 104.333,357.447 104.333 C 357.744 104.333,358.833 105.462,358.833 105.770 C 358.833 105.893,359.002 106.026,359.208 106.066 C 359.415 106.106,360.033 106.229,360.583 106.341 C 361.937 106.615,364.824 106.575,366.250 106.262 C 366.892 106.121,367.472 106.004,367.540 106.003 C 367.608 106.001,367.796 105.722,367.957 105.382 C 368.118 105.042,368.587 104.509,369.000 104.197 C 370.454 103.097,370.738 97.225,369.405 95.832 C 368.601 94.992,367.404 94.000,367.194 94.000 C 367.094 94.000,366.932 93.851,366.834 93.668 C 366.432 92.916,364.848 92.648,361.917 92.835 " stroke="none" fill="#2a6fb5" fill-rule="evenodd"></path><path id="path1" d="M142.417 31.508 C 140.437 31.769,139.240 32.572,138.454 34.167 L 138.083 34.917 138.083 70.638 C 138.083 104.467,138.099 106.371,138.375 106.573 C 138.535 106.691,138.667 106.870,138.667 106.971 C 138.667 107.456,139.415 107.516,144.890 107.467 L 150.438 107.417 151.302 106.693 L 152.167 105.969 152.160 70.026 C 152.152 28.402,152.368 32.824,150.292 31.807 C 149.479 31.408,144.577 31.222,142.417 31.508 M42.500 39.734 C 40.002 39.995,38.922 40.629,37.986 42.385 C 37.629 43.055,37.611 43.294,37.541 48.329 L 37.467 53.575 37.041 53.971 C 36.498 54.474,35.276 54.659,32.472 54.663 C 28.430 54.670,27.611 55.564,27.594 59.995 C 27.580 63.342,27.659 63.569,29.250 64.767 C 30.818 65.946,31.835 66.320,33.972 66.503 C 37.862 66.835,37.470 65.202,37.548 81.431 C 37.618 96.373,37.806 98.807,38.943 99.542 C 39.050 99.610,39.294 100.004,39.485 100.417 C 39.677 100.829,39.984 101.485,40.167 101.875 C 40.712 103.032,44.116 106.398,44.951 106.606 C 45.556 106.757,46.910 107.384,47.263 107.677 C 49.190 109.276,63.030 109.232,64.973 107.620 C 65.270 107.373,66.745 106.836,67.617 106.657 C 68.378 106.501,68.878 106.254,69.408 105.774 C 69.703 105.507,70.299 105.080,71.302 104.417 C 72.108 103.884,72.208 103.673,71.930 103.087 C 71.785 102.782,71.666 102.394,71.666 102.225 C 71.665 101.793,70.483 99.508,69.982 98.969 C 69.753 98.724,69.351 98.086,69.088 97.553 C 68.336 96.027,67.227 95.605,65.428 96.157 C 60.960 97.531,58.494 97.864,57.473 97.233 C 57.398 97.187,56.905 97.038,56.377 96.903 C 53.075 96.055,52.332 94.993,51.833 90.417 C 51.556 87.874,51.629 68.072,51.917 67.833 C 52.054 67.719,52.169 67.541,52.172 67.438 C 52.194 66.653,52.713 66.588,59.667 66.500 C 66.625 66.412,67.097 66.356,67.391 65.589 C 67.445 65.449,67.586 65.329,67.703 65.324 C 68.772 65.278,69.466 61.441,68.902 58.701 C 68.640 57.429,68.626 57.406,67.383 56.224 C 65.822 54.741,66.322 54.831,58.884 54.694 L 52.851 54.583 52.259 54.009 L 51.667 53.435 51.667 48.158 C 51.667 45.257,51.618 42.415,51.558 41.844 L 51.450 40.806 50.516 40.372 C 49.781 40.030,49.106 39.893,47.333 39.726 C 44.779 39.487,44.860 39.487,42.500 39.734 M99.317 53.061 C 98.437 53.165,97.612 53.335,97.484 53.439 C 97.210 53.662,94.783 54.324,93.583 54.505 C 92.045 54.736,90.932 55.153,90.261 55.750 C 89.901 56.071,89.526 56.334,89.428 56.334 C 89.330 56.335,89.058 56.436,88.822 56.559 C 88.587 56.681,88.202 56.830,87.967 56.889 C 87.732 56.948,87.175 57.320,86.728 57.716 C 86.282 58.111,85.579 58.631,85.167 58.871 C 84.452 59.287,83.951 59.751,83.813 60.125 C 83.779 60.220,83.356 60.607,82.875 60.986 C 82.394 61.365,82.000 61.775,82.000 61.899 C 82.000 62.022,81.587 62.539,81.083 63.047 C 80.579 63.555,80.162 64.071,80.156 64.194 C 80.149 64.316,79.923 64.792,79.653 65.250 C 79.382 65.708,79.116 66.215,79.061 66.375 C 79.006 66.535,78.896 66.667,78.816 66.667 C 78.581 66.667,77.886 67.876,77.760 68.504 C 77.540 69.596,77.137 70.751,76.552 71.963 C 74.818 75.557,74.969 90.007,76.764 92.167 C 77.002 92.454,77.578 94.140,77.731 95.000 C 77.789 95.322,78.205 96.068,78.662 96.667 C 79.116 97.263,79.492 97.825,79.498 97.917 C 79.503 98.008,79.654 98.271,79.833 98.500 C 80.013 98.729,80.161 99.034,80.163 99.178 C 80.165 99.321,80.536 99.762,80.988 100.156 C 81.440 100.551,81.894 101.077,81.997 101.326 C 82.100 101.575,82.505 101.981,82.896 102.228 C 83.288 102.476,83.937 103.013,84.338 103.422 C 84.745 103.837,85.587 104.415,86.242 104.731 C 86.888 105.042,87.560 105.455,87.735 105.649 C 88.143 106.102,88.905 106.484,89.750 106.661 C 90.594 106.838,91.991 107.351,92.514 107.676 C 95.243 109.371,115.014 109.427,117.757 107.746 C 118.201 107.474,121.170 106.667,121.726 106.667 C 121.963 106.667,122.459 106.509,122.828 106.317 L 123.500 105.966 123.500 104.487 C 123.500 103.094,122.971 101.000,122.536 100.673 C 122.425 100.589,122.210 100.236,121.848 99.542 C 121.764 99.381,121.603 98.819,121.488 98.292 C 120.960 95.859,119.925 95.735,113.500 97.336 C 109.491 98.335,103.395 98.350,101.167 97.366 C 100.846 97.225,100.321 97.052,100.000 96.982 C 97.585 96.459,96.524 96.021,95.703 95.208 C 95.402 94.910,95.051 94.667,94.924 94.667 C 94.797 94.667,94.390 94.367,94.020 94.000 C 93.649 93.633,93.268 93.333,93.173 93.333 C 93.078 93.333,93.000 93.229,93.000 93.101 C 93.000 92.973,92.890 92.827,92.756 92.775 C 92.621 92.724,92.286 92.282,92.010 91.794 C 91.735 91.306,91.358 90.744,91.174 90.546 C 90.148 89.445,90.123 88.190,91.119 87.739 C 91.283 87.665,96.667 87.551,103.083 87.487 L 114.750 87.370 116.534 86.764 C 117.514 86.431,118.738 86.081,119.252 85.985 C 120.472 85.760,121.952 85.089,122.413 84.551 C 122.507 84.442,123.014 84.021,123.541 83.616 C 124.068 83.211,124.635 82.700,124.801 82.481 C 125.303 81.819,125.833 80.830,125.833 80.555 C 125.833 80.238,126.503 78.980,126.794 78.750 C 126.910 78.658,127.075 78.151,127.161 77.623 C 127.246 77.094,127.366 76.582,127.427 76.484 C 127.873 75.761,127.325 68.496,126.775 67.843 C 126.472 67.484,125.941 66.136,125.565 64.776 C 125.342 63.967,125.093 63.481,124.712 63.109 C 124.416 62.820,124.089 62.377,123.984 62.125 C 123.879 61.873,123.727 61.667,123.646 61.667 C 123.566 61.667,123.500 61.569,123.500 61.449 C 123.500 61.221,121.443 59.112,120.583 58.459 C 120.308 58.250,119.797 57.818,119.448 57.498 C 119.099 57.178,118.424 56.766,117.948 56.581 C 117.472 56.396,116.728 55.988,116.293 55.675 C 115.488 55.094,113.921 54.506,113.167 54.503 C 112.666 54.501,110.481 53.906,109.667 53.550 C 108.209 52.914,102.756 52.656,99.317 53.061 M105.325 62.850 C 107.300 63.038,108.588 63.433,108.770 63.908 C 108.824 64.050,108.955 64.168,109.059 64.170 C 109.164 64.172,109.438 64.321,109.667 64.500 C 109.896 64.679,110.196 64.831,110.333 64.836 C 110.471 64.842,110.846 65.153,111.167 65.526 C 111.487 65.900,112.030 66.499,112.373 66.857 C 112.716 67.216,113.043 67.714,113.099 67.963 C 113.156 68.213,113.318 68.829,113.459 69.333 C 114.072 71.530,113.644 75.672,112.695 76.725 C 111.860 77.653,109.705 77.836,99.699 77.826 C 91.294 77.818,90.791 77.776,90.164 77.025 C 89.303 75.994,90.359 70.887,91.542 70.361 C 91.610 70.331,91.667 70.225,91.667 70.127 C 91.667 69.623,92.714 67.838,93.356 67.249 C 93.756 66.882,94.299 66.321,94.562 66.003 C 94.997 65.478,95.825 64.946,97.280 64.256 C 97.572 64.118,97.858 63.928,97.916 63.835 C 98.166 63.430,99.193 63.081,100.667 62.900 C 102.787 62.641,103.090 62.637,105.325 62.850 " stroke="none" fill="#ea2d61" fill-rule="evenodd"></path><path id="path2" d="M0.000 71.167 L 0.000 142.333 200.000 142.333 L 400.000 142.333 400.000 71.167 L 400.000 0.000 200.000 0.000 L 0.000 0.000 0.000 71.167 M176.300 30.666 C 178.839 30.895,179.884 31.231,180.407 31.987 L 180.833 32.601 180.833 69.461 C 180.833 111.007,180.940 107.592,179.614 108.538 C 178.813 109.109,167.341 109.229,166.236 108.678 C 164.786 107.953,164.917 111.706,164.917 70.839 L 164.917 34.750 165.304 33.731 C 166.081 31.682,167.658 30.872,171.250 30.674 C 174.436 30.498,174.438 30.498,176.300 30.666 M298.302 31.013 C 300.642 31.612,300.453 29.707,300.479 52.968 L 300.500 71.519 300.870 71.259 C 301.074 71.117,301.529 71.000,301.881 71.000 C 302.712 71.000,303.075 70.794,303.970 69.810 C 304.375 69.364,304.810 69.000,304.937 69.000 C 305.063 69.000,305.167 68.923,305.167 68.828 C 305.167 68.734,305.281 68.612,305.421 68.558 C 305.562 68.505,306.054 68.097,306.515 67.652 C 306.976 67.208,307.724 66.604,308.177 66.311 C 308.629 66.017,309.000 65.727,309.000 65.666 C 309.000 65.396,310.291 64.300,310.709 64.217 C 311.024 64.154,311.257 63.944,311.439 63.559 C 311.724 62.960,312.465 62.333,312.889 62.333 C 313.028 62.333,313.300 62.127,313.493 61.875 C 314.356 60.746,314.596 60.500,314.832 60.499 C 315.117 60.498,316.333 59.436,316.333 59.187 C 316.333 59.098,316.747 58.788,317.252 58.499 C 317.756 58.210,318.357 57.728,318.586 57.429 C 318.962 56.936,321.166 55.667,321.646 55.667 C 321.747 55.667,322.074 55.405,322.373 55.086 C 323.693 53.675,331.828 53.669,333.221 55.078 C 333.512 55.372,334.125 55.792,334.583 56.011 C 335.534 56.466,335.833 56.730,336.805 57.973 C 337.948 59.436,337.801 60.402,336.242 61.684 C 336.063 61.831,335.797 62.174,335.650 62.446 C 335.503 62.718,335.076 63.092,334.701 63.278 C 334.326 63.463,333.771 63.938,333.468 64.333 C 333.165 64.729,332.804 65.106,332.667 65.173 C 332.529 65.240,332.207 65.393,331.951 65.513 C 331.695 65.633,331.327 66.013,331.133 66.358 C 330.934 66.711,330.580 67.056,330.325 67.145 C 330.075 67.232,329.464 67.704,328.969 68.193 C 328.473 68.683,327.815 69.271,327.506 69.500 C 327.197 69.729,326.750 70.110,326.514 70.346 C 325.791 71.066,324.605 71.953,324.197 72.078 C 323.984 72.143,323.672 72.424,323.503 72.702 C 323.160 73.266,322.396 73.831,321.973 73.832 C 321.821 73.833,321.502 74.077,321.264 74.375 C 320.550 75.269,320.105 75.667,319.820 75.667 C 319.550 75.667,318.667 76.380,318.667 76.598 C 318.667 76.766,317.843 77.500,317.654 77.500 C 317.564 77.500,317.237 77.731,316.927 78.013 L 316.363 78.526 316.942 79.498 C 317.285 80.074,317.800 80.654,318.207 80.923 C 318.584 81.173,319.438 81.911,320.105 82.564 C 320.773 83.216,321.657 84.050,322.070 84.417 C 322.483 84.783,322.824 85.177,322.827 85.292 C 322.831 85.406,322.893 85.500,322.967 85.500 C 323.231 85.500,327.137 89.658,327.522 90.349 C 327.813 90.873,328.520 91.500,328.818 91.500 C 328.918 91.500,329.000 91.615,329.000 91.755 C 329.000 91.896,329.112 92.054,329.250 92.106 C 329.387 92.159,329.500 92.330,329.500 92.486 C 329.500 92.793,330.082 93.500,330.333 93.500 C 330.598 93.500,331.174 94.220,331.502 94.960 C 331.675 95.351,331.951 95.721,332.116 95.782 C 332.494 95.921,333.160 96.531,333.164 96.741 C 333.168 96.983,334.025 98.167,334.196 98.167 C 334.430 98.167,334.902 98.683,335.338 99.417 C 335.556 99.783,336.100 100.502,336.546 101.013 C 337.335 101.917,337.599 102.301,338.026 103.167 C 338.229 103.579,338.958 104.333,339.153 104.333 C 339.209 104.333,339.385 104.634,339.544 105.001 C 339.926 105.882,339.953 108.000,339.583 108.000 C 339.446 108.000,339.333 108.072,339.333 108.160 C 339.333 108.608,337.905 108.686,330.583 108.635 L 323.083 108.583 321.833 107.921 C 321.146 107.556,320.561 107.207,320.533 107.145 C 320.505 107.082,320.336 106.862,320.158 106.657 C 319.979 106.451,319.833 106.158,319.833 106.007 C 319.833 105.855,319.510 105.503,319.114 105.224 C 318.708 104.938,318.264 104.434,318.094 104.067 C 317.811 103.455,316.911 102.501,316.616 102.500 C 316.543 102.500,316.373 102.256,316.239 101.958 C 316.105 101.660,315.767 101.229,315.489 101.000 C 314.604 100.271,313.667 99.296,313.667 99.103 C 313.667 98.986,312.911 98.234,312.694 98.134 C 312.633 98.106,312.312 97.746,311.981 97.333 C 311.650 96.921,311.087 96.282,310.731 95.914 C 306.691 91.737,305.722 90.762,304.655 89.804 C 302.891 88.218,302.583 88.000,302.110 88.000 C 301.391 88.000,300.882 87.713,300.729 87.220 C 300.640 86.933,300.551 90.644,300.500 96.750 L 300.417 106.750 299.973 107.591 C 299.195 109.065,299.366 109.034,292.162 108.971 L 285.908 108.917 285.461 108.500 C 284.436 107.546,284.500 110.090,284.500 70.511 C 284.500 39.015,284.531 34.356,284.745 34.074 C 284.879 33.896,284.994 33.637,284.999 33.500 C 285.005 33.362,285.251 33.070,285.546 32.850 C 285.842 32.631,286.233 32.225,286.417 31.950 C 287.301 30.621,294.538 30.051,298.302 31.013 M367.250 31.104 C 368.471 31.476,368.636 31.580,369.211 32.338 C 369.556 32.794,369.936 33.167,370.055 33.167 C 372.084 33.167,371.952 43.606,369.910 44.575 C 369.534 44.754,369.244 45.041,369.141 45.337 C 368.928 45.946,368.523 46.203,366.903 46.753 C 366.177 47.000,365.433 47.294,365.250 47.407 C 364.287 48.000,362.366 48.041,361.304 47.491 C 360.651 47.153,358.921 46.500,358.678 46.500 C 358.268 46.500,355.916 44.156,355.667 43.500 C 355.546 43.179,355.384 42.845,355.307 42.758 C 355.230 42.671,355.167 42.513,355.167 42.407 C 355.167 42.300,354.904 41.935,354.583 41.595 C 353.524 40.472,353.741 36.262,354.895 35.543 C 355.006 35.473,355.312 34.929,355.575 34.333 C 355.838 33.737,356.210 33.142,356.401 33.009 C 356.593 32.877,357.026 32.479,357.364 32.126 C 358.846 30.573,363.819 30.059,367.250 31.104 M149.408 31.004 C 150.229 31.185,151.098 31.333,151.341 31.333 C 151.825 31.333,152.499 31.852,152.855 32.500 C 153.257 33.232,153.283 105.216,152.882 106.629 C 152.294 108.701,152.163 108.730,143.746 108.638 L 138.742 108.583 138.214 108.167 C 137.924 107.938,137.476 107.450,137.218 107.083 L 136.750 106.417 136.750 71.250 L 136.750 36.083 137.141 35.167 C 138.234 32.601,138.930 31.590,139.721 31.423 C 139.920 31.381,140.608 31.233,141.250 31.094 C 141.892 30.955,142.567 30.811,142.750 30.773 C 143.842 30.550,148.010 30.695,149.408 31.004 M205.125 31.155 C 206.281 31.572,207.600 32.752,208.102 33.818 C 208.257 34.147,208.626 34.668,208.922 34.975 C 210.187 36.286,210.153 41.489,208.871 42.633 C 208.590 42.884,208.305 43.307,208.238 43.571 C 207.980 44.598,206.066 46.221,204.500 46.740 C 203.721 46.998,202.967 47.311,202.824 47.434 C 202.220 47.959,200.130 48.069,199.150 47.628 C 197.944 47.085,196.520 46.540,195.958 46.406 C 195.706 46.346,195.500 46.230,195.500 46.149 C 195.500 46.067,195.397 46.000,195.272 46.000 C 195.147 46.000,194.850 45.706,194.612 45.347 C 194.374 44.988,193.924 44.498,193.611 44.260 C 192.259 43.229,191.517 39.374,192.132 36.577 C 192.232 36.122,192.357 35.476,192.411 35.140 C 192.501 34.582,192.709 34.312,193.991 33.083 C 194.086 32.992,194.454 32.585,194.808 32.179 C 196.133 30.662,202.113 30.069,205.125 31.155 M47.738 38.562 C 48.098 38.808,48.585 39.048,48.821 39.096 C 49.057 39.144,49.626 39.330,50.087 39.509 C 50.547 39.687,51.001 39.833,51.097 39.833 C 51.193 39.833,51.491 40.063,51.760 40.344 L 52.250 40.855 52.304 47.187 L 52.358 53.520 52.887 53.843 C 53.380 54.143,53.766 54.165,58.489 54.166 C 63.659 54.167,66.190 54.351,67.083 54.792 C 69.458 55.965,70.392 59.402,69.485 63.628 C 68.722 67.184,68.862 67.134,59.656 67.153 L 53.229 67.167 52.781 67.634 L 52.333 68.102 52.344 79.009 C 52.357 91.720,52.558 94.333,53.521 94.333 C 53.585 94.333,53.951 94.663,54.335 95.066 C 55.329 96.109,55.957 96.250,59.583 96.249 C 63.204 96.248,64.210 96.063,65.088 95.235 C 65.703 94.654,65.704 94.654,67.128 94.702 L 68.553 94.750 69.187 95.917 C 69.536 96.558,69.824 97.179,69.827 97.297 C 69.831 97.414,70.085 97.731,70.392 98.001 C 70.699 98.270,71.160 98.958,71.416 99.528 C 71.859 100.516,71.973 100.703,72.461 101.246 C 72.577 101.376,72.826 101.982,73.016 102.594 L 73.359 103.707 72.814 104.270 C 72.514 104.580,71.983 105.031,71.634 105.273 C 71.285 105.514,71.000 105.796,71.000 105.899 C 71.000 106.244,69.593 106.921,68.038 107.325 C 67.737 107.403,67.233 107.664,66.916 107.906 C 64.300 109.901,47.834 110.039,45.871 108.082 C 45.662 107.874,45.250 107.614,44.954 107.505 C 44.658 107.395,44.267 107.223,44.083 107.122 C 43.900 107.021,43.559 106.842,43.326 106.724 C 43.093 106.606,42.776 106.376,42.621 106.213 C 42.467 106.050,41.848 105.400,41.245 104.769 C 40.235 103.710,39.334 102.312,39.333 101.797 C 39.332 101.680,39.090 101.325,38.795 101.010 C 38.012 100.175,37.683 99.465,37.575 98.379 C 37.453 97.145,36.873 94.564,36.573 93.917 C 36.077 92.847,36.000 90.911,36.000 79.518 L 36.000 68.017 35.458 67.611 C 34.963 67.239,34.722 67.197,32.667 67.121 C 30.496 67.040,29.504 66.819,29.501 66.416 C 29.500 66.252,28.690 65.447,28.059 64.982 C 27.150 64.312,27.091 64.012,27.109 60.167 C 27.138 54.367,27.291 54.199,32.583 54.165 C 34.267 54.154,34.880 54.087,35.333 53.866 L 35.917 53.581 36.000 49.249 C 36.089 44.608,36.050 44.850,37.088 42.583 C 37.213 42.308,37.424 41.821,37.555 41.500 C 38.042 40.311,39.013 39.660,41.063 39.150 C 41.418 39.061,42.018 38.764,42.396 38.489 L 43.083 37.990 45.083 38.053 C 46.925 38.111,47.135 38.151,47.738 38.562 M254.667 52.436 C 255.262 52.614,256.050 52.960,256.417 53.205 C 256.819 53.474,257.711 53.794,258.667 54.012 C 259.537 54.210,260.451 54.420,260.697 54.478 C 261.130 54.580,261.896 55.141,262.022 55.447 C 262.089 55.611,263.697 56.333,263.996 56.333 C 264.191 56.333,264.392 56.481,265.156 57.183 C 265.415 57.422,266.075 57.961,266.622 58.382 C 267.169 58.803,268.051 59.715,268.582 60.407 C 269.112 61.100,269.592 61.667,269.648 61.668 C 269.841 61.670,270.500 62.771,270.501 63.094 C 270.502 63.271,270.614 63.631,270.751 63.894 C 270.888 64.157,271.000 64.457,271.000 64.561 C 271.001 64.665,271.224 64.900,271.497 65.082 C 272.226 65.571,272.824 67.475,272.832 69.333 C 272.835 69.837,272.959 71.225,273.108 72.417 C 273.564 76.059,273.548 105.317,273.088 106.833 C 272.430 109.007,272.453 109.000,266.030 109.000 C 259.573 109.000,258.840 108.939,258.201 108.352 C 257.175 107.408,257.167 107.263,257.164 90.059 C 257.161 73.262,257.136 72.759,256.287 71.958 C 256.068 71.752,255.709 71.171,255.487 70.667 C 255.266 70.162,255.009 69.669,254.917 69.569 C 254.825 69.469,254.484 69.094,254.159 68.736 C 253.395 67.892,252.332 67.167,251.861 67.167 C 251.468 67.167,249.922 66.446,249.763 66.188 C 249.155 65.204,241.675 65.341,240.353 66.360 C 240.134 66.529,239.861 66.667,239.747 66.667 C 239.632 66.667,239.323 66.779,239.061 66.916 C 238.798 67.053,238.409 67.165,238.196 67.166 C 237.982 67.166,237.588 67.386,237.321 67.654 L 236.833 68.141 236.833 87.299 C 236.833 105.977,236.825 106.476,236.506 107.198 C 235.755 108.896,235.098 109.034,228.083 108.968 C 221.469 108.906,221.308 108.867,220.417 107.083 L 219.917 106.083 219.873 82.874 L 219.830 59.665 220.266 58.624 C 220.781 57.392,221.605 56.569,222.561 56.330 C 222.940 56.236,223.496 56.048,223.797 55.912 C 224.098 55.777,224.488 55.667,224.663 55.667 C 224.838 55.667,225.079 55.535,225.199 55.375 C 225.730 54.664,226.761 54.403,231.325 53.824 C 232.186 53.715,232.766 53.535,233.213 53.239 C 233.568 53.004,234.247 52.747,234.721 52.667 C 235.195 52.588,235.958 52.445,236.417 52.350 C 237.883 52.046,238.124 52.039,245.917 52.076 C 252.958 52.109,253.672 52.139,254.667 52.436 M110.400 52.514 C 110.666 52.598,111.042 52.667,111.235 52.667 C 111.429 52.667,111.962 52.912,112.419 53.212 C 113.373 53.839,113.981 54.064,115.500 54.353 C 116.325 54.510,116.767 54.709,117.352 55.187 C 117.775 55.532,118.648 56.063,119.293 56.366 C 120.622 56.990,122.753 58.906,123.985 60.583 C 124.389 61.133,124.786 61.609,124.867 61.641 C 125.074 61.723,125.833 63.333,125.833 63.690 C 125.833 63.987,126.182 64.560,127.058 65.705 C 128.499 67.586,128.532 78.837,127.102 80.381 C 126.885 80.615,126.463 81.307,126.165 81.920 C 125.867 82.532,125.357 83.270,125.033 83.558 C 124.709 83.847,124.090 84.427,123.657 84.847 C 123.224 85.268,122.655 85.691,122.393 85.788 C 122.131 85.885,121.335 86.168,120.624 86.416 C 119.912 86.665,119.275 86.958,119.207 87.068 C 118.687 87.910,118.629 87.913,105.583 87.963 L 93.417 88.010 92.292 88.436 C 91.197 88.851,90.984 89.034,91.340 89.254 C 91.603 89.417,92.333 90.627,92.333 90.901 C 92.333 91.159,93.264 92.167,93.503 92.167 C 93.582 92.167,93.966 92.575,94.355 93.073 C 94.744 93.572,95.243 94.025,95.462 94.080 C 95.867 94.181,96.733 94.715,97.513 95.343 C 97.927 95.676,98.387 95.832,100.000 96.186 C 102.545 96.744,115.637 96.359,117.667 95.667 C 119.245 95.128,120.363 94.855,120.606 94.949 C 120.854 95.044,121.664 96.372,121.672 96.696 C 121.680 97.034,122.362 98.345,122.886 99.030 C 123.203 99.445,123.400 99.958,123.494 100.614 C 123.570 101.147,123.746 101.883,123.885 102.250 C 124.023 102.617,124.268 103.575,124.428 104.379 L 124.721 105.842 124.358 106.180 C 123.964 106.547,122.384 107.329,122.033 107.332 C 121.755 107.334,120.329 107.973,120.000 108.242 C 119.014 109.050,114.250 109.413,104.583 109.415 C 95.004 109.417,91.971 109.091,90.394 107.888 C 89.857 107.479,88.970 107.094,87.549 106.654 C 87.254 106.563,86.791 106.266,86.520 105.994 C 86.248 105.722,85.979 105.500,85.922 105.500 C 85.866 105.500,85.729 105.424,85.618 105.331 C 85.202 104.981,84.146 104.333,83.993 104.333 C 83.905 104.333,83.833 104.248,83.833 104.144 C 83.833 103.961,83.072 103.167,82.897 103.167 C 82.631 103.167,81.646 102.224,81.239 101.581 C 80.979 101.170,80.710 100.833,80.640 100.833 C 80.416 100.833,79.654 99.933,79.425 99.398 C 79.303 99.113,78.866 98.551,78.455 98.148 C 78.043 97.746,77.664 97.229,77.612 97.000 C 77.295 95.596,76.938 94.686,76.479 94.116 C 75.763 93.225,75.497 92.258,75.324 89.931 C 75.243 88.838,75.069 87.376,74.937 86.681 C 74.243 83.031,74.268 81.200,75.077 76.167 C 75.216 75.296,75.332 74.063,75.332 73.428 C 75.334 71.890,75.760 70.413,76.448 69.563 C 76.799 69.130,77.154 68.377,77.410 67.524 C 77.789 66.257,78.257 65.351,78.540 65.339 C 78.716 65.331,79.500 64.052,79.500 63.772 C 79.500 63.643,79.912 63.105,80.417 62.576 C 80.921 62.047,81.333 61.535,81.333 61.439 C 81.333 61.239,82.818 59.833,83.029 59.833 C 83.105 59.833,83.167 59.762,83.167 59.674 C 83.167 59.522,83.944 58.667,84.083 58.667 C 84.290 58.667,85.617 57.636,85.802 57.332 C 85.922 57.134,86.447 56.778,86.968 56.541 C 87.490 56.304,88.241 55.865,88.637 55.564 C 89.033 55.264,89.670 54.911,90.053 54.780 C 91.327 54.342,93.104 53.833,93.355 53.833 C 93.492 53.833,93.753 53.702,93.935 53.542 C 94.424 53.111,95.007 52.801,95.665 52.618 C 97.033 52.238,109.256 52.152,110.400 52.514 M206.790 54.387 C 207.568 54.677,207.990 55.033,208.307 55.667 C 208.422 55.896,208.696 56.421,208.915 56.833 L 209.314 57.583 209.323 81.703 C 209.334 108.452,209.426 106.211,208.265 107.731 C 207.329 108.955,207.119 108.992,201.034 108.996 C 193.736 109.001,193.397 108.917,192.681 106.917 L 192.324 105.917 192.370 82.500 C 192.423 55.803,192.272 58.322,193.927 56.519 C 194.379 56.025,194.951 55.401,195.196 55.132 C 196.180 54.053,204.472 53.521,206.790 54.387 M366.506 60.919 C 366.961 61.150,367.333 61.405,367.333 61.485 C 367.333 61.566,367.720 61.834,368.192 62.081 C 370.736 63.411,371.396 64.848,371.408 69.083 C 371.421 73.260,370.726 75.601,369.456 75.661 C 369.385 75.664,368.996 76.013,368.591 76.436 C 366.653 78.458,358.167 78.554,358.167 76.553 C 358.167 76.432,358.054 76.333,357.917 76.333 C 357.779 76.333,357.667 76.267,357.667 76.186 C 357.667 76.104,357.389 75.906,357.049 75.745 C 356.368 75.422,355.848 74.887,355.838 74.500 C 355.835 74.362,355.682 74.004,355.499 73.704 C 355.316 73.404,355.167 73.056,355.167 72.930 C 355.167 72.805,355.052 72.658,354.912 72.605 C 353.654 72.122,353.748 66.000,355.014 66.000 C 355.098 66.000,355.167 65.867,355.167 65.704 C 355.167 65.541,355.266 65.260,355.387 65.079 C 355.508 64.898,355.709 64.487,355.834 64.167 C 356.082 63.528,356.733 62.857,357.455 62.496 C 357.709 62.368,358.232 62.015,358.617 61.711 C 360.320 60.365,364.570 59.939,366.506 60.919 M101.750 63.434 C 100.780 63.567,99.911 63.870,99.405 64.252 C 99.124 64.464,98.586 64.720,98.211 64.821 C 96.918 65.169,95.447 66.319,93.790 68.275 C 92.486 69.814,92.333 70.036,92.332 70.409 C 92.330 70.753,91.894 71.702,91.022 73.264 C 90.666 73.901,90.527 74.413,90.462 75.326 C 90.349 76.908,90.516 77.093,92.193 77.249 C 94.208 77.436,109.996 77.249,110.668 77.030 C 111.273 76.833,112.497 75.772,112.504 75.439 C 112.506 75.335,112.654 75.063,112.833 74.833 C 113.316 74.216,113.316 70.730,112.833 69.460 C 112.650 68.978,112.500 68.493,112.500 68.382 C 112.500 68.272,112.087 67.772,111.583 67.272 C 111.079 66.771,110.667 66.255,110.667 66.124 C 110.667 65.730,110.144 65.407,109.000 65.097 C 108.404 64.935,107.767 64.721,107.583 64.623 C 107.400 64.525,106.875 64.239,106.417 63.987 C 105.577 63.527,103.158 63.240,101.750 63.434 M365.418 91.489 C 367.220 91.733,368.400 92.249,368.907 93.015 C 369.141 93.368,369.571 93.781,369.864 93.933 C 371.052 94.547,371.417 95.951,371.417 99.917 C 371.417 103.536,370.993 105.091,369.895 105.508 C 369.678 105.591,369.500 105.773,369.500 105.913 C 369.500 106.052,369.425 106.167,369.333 106.167 C 369.242 106.167,369.164 106.260,369.161 106.375 C 369.154 106.684,368.488 107.112,367.674 107.331 C 366.924 107.533,366.444 107.762,365.967 108.143 C 365.138 108.805,361.373 108.889,360.678 108.260 C 360.305 107.923,358.985 107.341,358.581 107.337 C 357.674 107.327,355.167 104.311,355.167 103.230 C 355.167 103.103,355.093 103.000,355.002 103.000 C 353.767 103.000,353.539 98.147,354.709 96.741 C 354.933 96.471,355.354 95.751,355.643 95.140 C 356.058 94.265,356.319 93.941,356.876 93.610 C 357.265 93.379,357.723 92.977,357.893 92.716 C 358.127 92.357,358.491 92.154,359.393 91.877 C 361.627 91.192,362.711 91.122,365.418 91.489 " stroke="none" fill="#fbfbfb" fill-rule="evenodd"></path><path id="path3" d="M171.250 30.674 C 167.658 30.872,166.081 31.682,165.304 33.731 L 164.917 34.750 164.917 70.839 C 164.917 111.706,164.786 107.953,166.236 108.678 C 167.341 109.229,178.813 109.109,179.614 108.538 C 180.940 107.592,180.833 111.007,180.833 69.461 L 180.833 32.601 180.407 31.987 C 179.884 31.231,178.839 30.895,176.300 30.666 C 174.438 30.498,174.436 30.498,171.250 30.674 M290.333 30.667 C 288.211 30.853,286.850 31.299,286.417 31.950 C 286.233 32.225,285.842 32.631,285.546 32.850 C 285.251 33.070,285.005 33.362,284.999 33.500 C 284.994 33.637,284.879 33.896,284.745 34.074 C 284.531 34.356,284.500 39.015,284.500 70.511 C 284.500 110.090,284.436 107.546,285.461 108.500 L 285.908 108.917 292.162 108.971 C 299.366 109.034,299.195 109.065,299.973 107.591 L 300.417 106.750 300.500 96.750 C 300.551 90.644,300.640 86.933,300.729 87.220 C 300.882 87.713,301.391 88.000,302.110 88.000 C 302.583 88.000,302.891 88.218,304.655 89.804 C 305.722 90.762,306.691 91.737,310.731 95.914 C 311.087 96.282,311.650 96.921,311.981 97.333 C 312.312 97.746,312.633 98.106,312.694 98.134 C 312.911 98.234,313.667 98.986,313.667 99.103 C 313.667 99.296,314.604 100.271,315.489 101.000 C 315.767 101.229,316.105 101.660,316.239 101.958 C 316.373 102.256,316.543 102.500,316.616 102.500 C 316.911 102.501,317.811 103.455,318.094 104.067 C 318.264 104.434,318.708 104.938,319.114 105.224 C 319.510 105.503,319.833 105.855,319.833 106.007 C 319.833 106.158,319.979 106.451,320.158 106.657 C 320.336 106.862,320.505 107.082,320.533 107.145 C 320.561 107.207,321.146 107.556,321.833 107.921 L 323.083 108.583 330.583 108.635 C 337.905 108.686,339.333 108.608,339.333 108.160 C 339.333 108.072,339.446 108.000,339.583 108.000 C 339.953 108.000,339.926 105.882,339.544 105.001 C 339.385 104.634,339.209 104.333,339.153 104.333 C 338.958 104.333,338.229 103.579,338.026 103.167 C 337.599 102.301,337.335 101.917,336.546 101.013 C 336.100 100.502,335.556 99.783,335.338 99.417 C 334.902 98.683,334.430 98.167,334.196 98.167 C 334.025 98.167,333.168 96.983,333.164 96.741 C 333.160 96.531,332.494 95.921,332.116 95.782 C 331.951 95.721,331.675 95.351,331.502 94.960 C 331.174 94.220,330.598 93.500,330.333 93.500 C 330.082 93.500,329.500 92.793,329.500 92.486 C 329.500 92.330,329.387 92.159,329.250 92.106 C 329.112 92.054,329.000 91.896,329.000 91.755 C 329.000 91.615,328.918 91.500,328.818 91.500 C 328.520 91.500,327.813 90.873,327.522 90.349 C 327.137 89.658,323.231 85.500,322.967 85.500 C 322.893 85.500,322.831 85.406,322.827 85.292 C 322.824 85.177,322.483 84.783,322.070 84.417 C 321.657 84.050,320.773 83.216,320.105 82.564 C 319.438 81.911,318.584 81.173,318.207 80.923 C 317.800 80.654,317.285 80.074,316.942 79.498 L 316.363 78.526 316.927 78.013 C 317.237 77.731,317.564 77.500,317.654 77.500 C 317.843 77.500,318.667 76.766,318.667 76.598 C 318.667 76.380,319.550 75.667,319.820 75.667 C 320.105 75.667,320.550 75.269,321.264 74.375 C 321.502 74.077,321.821 73.833,321.973 73.832 C 322.396 73.831,323.160 73.266,323.503 72.702 C 323.672 72.424,323.984 72.143,324.197 72.078 C 324.605 71.953,325.791 71.066,326.514 70.346 C 326.750 70.110,327.197 69.729,327.506 69.500 C 327.815 69.271,328.473 68.683,328.969 68.193 C 329.464 67.704,330.075 67.232,330.325 67.145 C 330.580 67.056,330.934 66.711,331.133 66.358 C 331.327 66.013,331.695 65.633,331.951 65.513 C 332.207 65.393,332.529 65.240,332.667 65.173 C 332.804 65.106,333.165 64.729,333.468 64.333 C 333.771 63.938,334.326 63.463,334.701 63.278 C 335.076 63.092,335.503 62.718,335.650 62.446 C 335.797 62.174,336.063 61.831,336.242 61.684 C 337.801 60.402,337.948 59.436,336.805 57.973 C 335.833 56.730,335.534 56.466,334.583 56.011 C 334.125 55.792,333.512 55.372,333.221 55.078 C 331.828 53.669,323.693 53.675,322.373 55.086 C 322.074 55.405,321.747 55.667,321.646 55.667 C 321.166 55.667,318.962 56.936,318.586 57.429 C 318.357 57.728,317.756 58.210,317.252 58.499 C 316.747 58.788,316.333 59.098,316.333 59.187 C 316.333 59.436,315.117 60.498,314.832 60.499 C 314.596 60.500,314.356 60.746,313.493 61.875 C 313.300 62.127,313.028 62.333,312.889 62.333 C 312.465 62.333,311.724 62.960,311.439 63.559 C 311.257 63.944,311.024 64.154,310.709 64.217 C 310.291 64.300,309.000 65.396,309.000 65.666 C 309.000 65.727,308.629 66.017,308.177 66.311 C 307.724 66.604,306.976 67.208,306.515 67.652 C 306.054 68.097,305.562 68.505,305.421 68.558 C 305.281 68.612,305.167 68.734,305.167 68.828 C 305.167 68.923,305.063 69.000,304.937 69.000 C 304.810 69.000,304.375 69.364,303.970 69.810 C 303.075 70.794,302.712 71.000,301.881 71.000 C 301.529 71.000,301.074 71.117,300.870 71.259 L 300.500 71.519 300.479 52.968 C 300.457 32.999,300.443 32.480,299.890 31.782 C 299.147 30.843,294.506 30.301,290.333 30.667 M361.333 30.669 C 359.459 30.827,358.142 31.311,357.364 32.126 C 357.026 32.479,356.593 32.877,356.401 33.009 C 356.210 33.142,355.838 33.737,355.575 34.333 C 355.312 34.929,355.006 35.473,354.895 35.543 C 354.382 35.862,354.033 36.776,353.988 37.917 C 353.886 40.538,353.948 40.921,354.583 41.595 C 354.904 41.935,355.167 42.300,355.167 42.407 C 355.167 42.513,355.230 42.671,355.307 42.758 C 355.384 42.845,355.546 43.179,355.667 43.500 C 355.916 44.156,358.268 46.500,358.678 46.500 C 358.921 46.500,360.651 47.153,361.304 47.491 C 362.366 48.041,364.287 48.000,365.250 47.407 C 365.433 47.294,366.177 47.000,366.903 46.753 C 368.523 46.203,368.928 45.946,369.141 45.337 C 369.244 45.041,369.534 44.754,369.910 44.575 C 371.952 43.606,372.084 33.167,370.055 33.167 C 369.936 33.167,369.556 32.794,369.211 32.338 C 368.161 30.952,365.256 30.337,361.333 30.669 M142.750 30.773 C 142.567 30.811,141.892 30.955,141.250 31.094 C 140.608 31.233,139.920 31.381,139.721 31.423 C 138.930 31.590,138.234 32.601,137.141 35.167 L 136.750 36.083 136.750 71.250 L 136.750 106.417 137.218 107.083 C 137.476 107.450,137.924 107.938,138.214 108.167 L 138.742 108.583 143.746 108.638 C 152.163 108.730,152.294 108.701,152.882 106.629 C 153.283 105.216,153.257 33.232,152.855 32.500 C 152.499 31.852,151.825 31.333,151.341 31.333 C 151.098 31.333,150.229 31.185,149.408 31.004 C 148.010 30.695,143.842 30.550,142.750 30.773 M196.685 31.058 C 195.662 31.376,195.343 31.567,194.808 32.179 C 194.454 32.585,194.086 32.992,193.991 33.083 C 192.709 34.312,192.501 34.582,192.411 35.140 C 192.357 35.476,192.232 36.122,192.132 36.577 C 191.517 39.374,192.259 43.229,193.611 44.260 C 193.924 44.498,194.374 44.988,194.612 45.347 C 194.850 45.706,195.147 46.000,195.272 46.000 C 195.397 46.000,195.500 46.067,195.500 46.149 C 195.500 46.230,195.706 46.346,195.958 46.406 C 196.520 46.540,197.944 47.085,199.150 47.628 C 200.130 48.069,202.220 47.959,202.824 47.434 C 202.967 47.311,203.721 46.998,204.500 46.740 C 206.066 46.221,207.980 44.598,208.238 43.571 C 208.305 43.307,208.590 42.884,208.871 42.633 C 210.153 41.489,210.187 36.286,208.922 34.975 C 208.626 34.668,208.257 34.147,208.102 33.818 C 207.600 32.752,206.281 31.572,205.125 31.155 C 203.497 30.568,198.445 30.510,196.685 31.058 M148.458 31.502 C 149.306 31.591,150.131 31.731,150.292 31.813 C 150.452 31.894,150.791 32.058,151.044 32.177 C 152.172 32.704,152.079 29.479,152.126 69.750 L 152.168 106.083 151.293 106.750 L 150.417 107.417 144.880 107.467 C 139.415 107.516,138.667 107.456,138.667 106.971 C 138.667 106.870,138.535 106.691,138.375 106.573 C 138.099 106.371,138.083 104.467,138.083 70.638 L 138.083 34.917 138.454 34.167 C 139.684 31.673,142.632 30.888,148.458 31.502 M178.255 31.724 C 179.074 31.924,179.500 32.121,179.671 32.380 C 179.885 32.702,179.923 37.456,179.963 69.333 L 180.010 105.917 179.660 106.626 C 179.092 107.775,179.247 107.750,172.655 107.750 C 166.040 107.750,166.554 107.845,165.875 106.496 L 165.499 105.750 165.500 71.282 C 165.500 35.922,165.516 34.977,166.143 34.012 C 166.625 33.269,167.740 32.194,168.253 31.978 C 169.889 31.288,175.850 31.136,178.255 31.724 M204.314 31.763 C 205.314 32.100,207.667 34.245,207.667 34.819 C 207.667 34.988,207.779 35.219,207.917 35.333 C 208.054 35.447,208.167 35.627,208.167 35.733 C 208.167 35.839,208.317 36.054,208.500 36.211 C 208.802 36.470,208.833 36.703,208.833 38.667 L 208.833 40.837 208.278 41.627 C 207.973 42.061,207.675 42.609,207.616 42.844 C 207.321 44.022,205.208 45.685,203.309 46.234 C 200.918 46.925,195.500 46.059,195.500 44.986 C 195.500 44.890,195.082 44.387,194.572 43.869 C 192.069 41.325,192.088 36.151,194.611 33.730 C 195.100 33.260,195.500 32.810,195.500 32.728 C 195.500 32.431,197.247 31.680,198.500 31.439 C 199.505 31.245,203.427 31.463,204.314 31.763 M296.952 31.516 C 298.483 31.732,299.044 31.940,299.355 32.407 C 299.544 32.691,299.598 36.161,299.667 52.595 C 299.743 70.799,299.773 72.463,300.027 72.717 C 300.179 72.870,300.338 73.089,300.380 73.205 C 300.440 73.372,300.540 73.366,300.853 73.179 C 301.071 73.048,301.430 72.847,301.650 72.731 C 301.870 72.616,302.095 72.457,302.150 72.378 C 302.205 72.299,302.587 72.039,303.000 71.800 C 303.412 71.561,304.142 70.983,304.620 70.516 C 305.099 70.049,305.523 69.667,305.564 69.667 C 305.670 69.667,306.402 69.051,307.498 68.042 C 308.020 67.560,308.534 67.167,308.640 67.167 C 308.746 67.167,308.833 67.097,308.833 67.011 C 308.833 66.926,308.965 66.813,309.125 66.761 C 309.285 66.710,309.595 66.405,309.813 66.084 C 310.031 65.763,310.481 65.337,310.813 65.137 C 311.145 64.937,311.822 64.374,312.317 63.887 C 312.812 63.399,313.310 63.000,313.424 63.000 C 313.538 63.000,313.995 62.587,314.439 62.083 C 314.884 61.579,315.337 61.167,315.446 61.167 C 315.555 61.167,316.070 60.754,316.591 60.250 C 317.111 59.746,317.569 59.333,317.609 59.333 C 317.707 59.333,319.515 58.011,319.867 57.682 C 320.456 57.131,320.660 57.007,321.681 56.577 C 322.257 56.335,322.958 55.966,323.239 55.758 C 324.831 54.578,330.595 54.489,332.216 55.620 C 332.582 55.875,333.250 56.272,333.700 56.503 C 334.522 56.924,336.003 58.380,336.534 59.289 L 336.818 59.775 335.914 60.763 C 334.487 62.321,334.411 62.400,334.027 62.708 C 333.827 62.869,333.597 63.000,333.517 63.000 C 333.437 63.000,333.239 63.202,333.078 63.449 C 332.699 64.027,331.816 64.833,331.562 64.833 C 331.453 64.833,331.030 65.205,330.621 65.660 C 330.212 66.115,329.680 66.577,329.439 66.687 C 329.197 66.797,329.000 66.950,329.000 67.027 C 329.000 67.104,328.918 67.167,328.818 67.167 C 328.719 67.167,328.325 67.488,327.943 67.880 C 327.562 68.272,326.875 68.849,326.417 69.160 C 325.958 69.472,325.345 69.976,325.053 70.280 C 324.761 70.584,324.481 70.833,324.430 70.833 C 324.316 70.833,323.943 71.136,322.526 72.375 C 321.923 72.902,321.341 73.333,321.232 73.333 C 321.123 73.333,320.809 73.590,320.533 73.904 C 320.258 74.218,319.631 74.757,319.141 75.101 C 318.651 75.445,317.966 76.013,317.619 76.363 C 317.271 76.713,316.928 77.000,316.857 77.000 C 316.785 77.000,316.374 77.337,315.945 77.749 C 315.101 78.557,315.097 78.680,315.875 79.565 C 316.035 79.747,316.167 79.981,316.167 80.085 C 316.167 80.294,316.452 80.576,319.500 83.380 C 320.646 84.434,322.333 86.103,323.250 87.088 C 324.167 88.074,325.292 89.270,325.750 89.747 C 327.049 91.099,328.808 93.057,329.104 93.480 C 329.252 93.691,329.702 94.166,330.103 94.536 C 330.505 94.906,330.833 95.306,330.833 95.423 C 330.833 95.541,331.246 96.047,331.750 96.547 C 332.254 97.047,332.667 97.533,332.667 97.626 C 332.667 97.719,333.060 98.210,333.542 98.716 C 334.023 99.223,334.560 99.888,334.736 100.194 C 335.053 100.747,336.287 102.326,336.550 102.517 C 336.626 102.572,336.783 102.797,336.898 103.017 C 337.328 103.837,337.601 104.216,338.283 104.934 C 338.933 105.620,338.968 105.703,338.782 106.127 C 338.241 107.361,339.035 107.244,330.803 107.301 C 322.046 107.361,321.544 107.288,320.696 105.833 C 320.456 105.421,320.081 104.941,319.863 104.767 C 319.231 104.261,318.667 103.605,318.667 103.375 C 318.667 103.173,318.262 102.713,315.868 100.189 C 314.410 98.652,314.333 98.566,314.333 98.470 C 314.333 98.423,313.940 97.970,313.458 97.463 C 312.977 96.956,311.983 95.885,311.250 95.081 C 310.517 94.278,309.579 93.292,309.167 92.890 C 308.754 92.488,308.361 92.105,308.294 92.038 C 308.227 91.971,307.842 91.560,307.439 91.125 C 307.036 90.690,306.675 90.333,306.635 90.333 C 306.596 90.333,306.077 89.865,305.483 89.292 C 304.404 88.251,302.288 86.580,301.500 86.146 C 301.271 86.020,300.963 85.821,300.816 85.705 C 300.587 85.523,300.486 85.588,300.108 86.159 L 299.667 86.826 299.667 96.429 C 299.667 109.148,300.426 107.833,293.082 107.833 C 286.321 107.833,285.981 107.778,285.458 106.602 L 285.078 105.750 285.098 71.083 C 285.120 32.609,285.056 34.763,286.194 33.660 C 286.545 33.318,286.833 32.968,286.833 32.882 C 286.833 31.667,292.547 30.896,296.952 31.516 M366.550 31.744 C 367.601 32.088,367.939 32.294,368.594 32.994 C 369.026 33.456,369.462 33.836,369.564 33.839 C 370.442 33.863,370.978 37.230,370.649 40.650 C 370.443 42.784,370.242 43.286,369.337 43.917 C 369.014 44.142,368.605 44.545,368.427 44.812 C 367.521 46.176,362.753 47.097,360.806 46.285 C 360.500 46.157,359.971 46.000,359.630 45.936 C 359.191 45.854,358.778 45.579,358.214 44.994 C 357.775 44.540,357.342 44.164,357.250 44.158 C 356.954 44.140,356.397 43.274,356.077 42.333 C 355.905 41.829,355.672 41.303,355.558 41.164 C 354.862 40.311,354.894 37.561,355.616 36.250 C 355.717 36.067,355.932 35.579,356.095 35.167 C 356.573 33.956,358.613 32.070,359.804 31.739 C 360.324 31.594,360.825 31.450,360.917 31.418 C 361.683 31.151,365.390 31.366,366.550 31.744 M42.396 38.489 C 42.018 38.764,41.418 39.061,41.063 39.150 C 39.013 39.660,38.042 40.311,37.555 41.500 C 37.424 41.821,37.213 42.308,37.088 42.583 C 36.050 44.850,36.089 44.608,36.000 49.249 L 35.917 53.581 35.333 53.866 C 34.880 54.087,34.267 54.154,32.583 54.165 C 27.291 54.199,27.138 54.367,27.109 60.167 C 27.091 64.012,27.150 64.312,28.059 64.982 C 28.690 65.447,29.500 66.252,29.501 66.416 C 29.504 66.819,30.496 67.040,32.667 67.121 C 34.722 67.197,34.963 67.239,35.458 67.611 L 36.000 68.017 36.000 79.518 C 36.000 90.911,36.077 92.847,36.573 93.917 C 36.873 94.564,37.453 97.145,37.575 98.379 C 37.683 99.465,38.012 100.175,38.795 101.010 C 39.090 101.325,39.332 101.680,39.333 101.797 C 39.334 102.312,40.235 103.710,41.245 104.769 C 41.848 105.400,42.467 106.050,42.621 106.213 C 42.776 106.376,43.093 106.606,43.326 106.724 C 43.559 106.842,43.900 107.021,44.083 107.122 C 44.267 107.223,44.658 107.395,44.954 107.505 C 45.250 107.614,45.662 107.874,45.871 108.082 C 47.834 110.039,64.300 109.901,66.916 107.906 C 67.233 107.664,67.737 107.403,68.038 107.325 C 69.593 106.921,71.000 106.244,71.000 105.899 C 71.000 105.796,71.285 105.514,71.634 105.273 C 71.983 105.031,72.514 104.580,72.814 104.270 L 73.359 103.707 73.016 102.594 C 72.826 101.982,72.577 101.376,72.461 101.246 C 71.973 100.703,71.859 100.516,71.416 99.528 C 71.160 98.958,70.699 98.270,70.392 98.001 C 70.085 97.731,69.831 97.414,69.827 97.297 C 69.824 97.179,69.536 96.558,69.187 95.917 L 68.553 94.750 67.128 94.702 C 65.704 94.654,65.703 94.654,65.088 95.235 C 64.210 96.063,63.204 96.248,59.583 96.249 C 55.957 96.250,55.329 96.109,54.335 95.066 C 53.951 94.663,53.585 94.333,53.521 94.333 C 52.558 94.333,52.357 91.720,52.344 79.009 L 52.333 68.102 52.781 67.634 L 53.229 67.167 59.656 67.153 C 68.862 67.134,68.722 67.184,69.485 63.628 C 70.392 59.402,69.458 55.965,67.083 54.792 C 66.190 54.351,63.659 54.167,58.489 54.166 C 53.766 54.165,53.380 54.143,52.887 53.843 L 52.358 53.520 52.304 47.187 L 52.250 40.855 51.760 40.344 C 51.491 40.063,51.193 39.833,51.097 39.833 C 51.001 39.833,50.547 39.687,50.087 39.509 C 49.626 39.330,49.057 39.144,48.821 39.096 C 48.585 39.048,48.098 38.808,47.738 38.562 C 47.135 38.151,46.925 38.111,45.083 38.053 L 43.083 37.990 42.396 38.489 M47.333 39.726 C 49.106 39.893,49.781 40.030,50.516 40.372 L 51.450 40.806 51.558 41.844 C 51.618 42.415,51.667 45.257,51.667 48.158 L 51.667 53.435 52.259 54.009 L 52.851 54.583 58.884 54.694 C 66.322 54.831,65.822 54.741,67.383 56.224 C 68.626 57.406,68.640 57.429,68.902 58.701 C 69.466 61.441,68.772 65.278,67.703 65.324 C 67.586 65.329,67.445 65.449,67.391 65.589 C 67.097 66.356,66.625 66.412,59.667 66.500 C 52.713 66.588,52.194 66.653,52.172 67.438 C 52.169 67.541,52.054 67.719,51.917 67.833 C 51.629 68.072,51.556 87.874,51.833 90.417 C 52.332 94.993,53.075 96.055,56.377 96.903 C 56.905 97.038,57.398 97.187,57.473 97.233 C 58.494 97.864,60.960 97.531,65.428 96.157 C 67.227 95.605,68.336 96.027,69.088 97.553 C 69.351 98.086,69.753 98.724,69.982 98.969 C 70.483 99.508,71.665 101.793,71.666 102.225 C 71.666 102.394,71.785 102.782,71.930 103.087 C 72.208 103.673,72.108 103.884,71.302 104.417 C 70.299 105.080,69.703 105.507,69.408 105.774 C 68.878 106.254,68.378 106.501,67.617 106.657 C 66.745 106.836,65.270 107.373,64.973 107.620 C 63.030 109.232,49.190 109.276,47.263 107.677 C 46.910 107.384,45.556 106.757,44.951 106.606 C 44.116 106.398,40.712 103.032,40.167 101.875 C 39.984 101.485,39.677 100.829,39.485 100.417 C 39.294 100.004,39.050 99.610,38.943 99.542 C 37.806 98.807,37.618 96.373,37.548 81.431 C 37.470 65.202,37.862 66.835,33.972 66.503 C 31.835 66.320,30.818 65.946,29.250 64.767 C 27.659 63.569,27.580 63.342,27.594 59.995 C 27.611 55.564,28.430 54.670,32.472 54.663 C 35.276 54.659,36.498 54.474,37.041 53.971 L 37.467 53.575 37.541 48.329 C 37.611 43.294,37.629 43.055,37.986 42.385 C 38.922 40.629,40.002 39.995,42.500 39.734 C 44.860 39.487,44.779 39.487,47.333 39.726 M237.750 52.108 C 237.475 52.146,236.875 52.255,236.417 52.350 C 235.958 52.445,235.195 52.588,234.721 52.667 C 234.247 52.747,233.568 53.004,233.213 53.239 C 232.766 53.535,232.186 53.715,231.325 53.824 C 226.761 54.403,225.730 54.664,225.199 55.375 C 225.079 55.535,224.838 55.667,224.663 55.667 C 224.488 55.667,224.098 55.777,223.797 55.912 C 223.496 56.048,222.940 56.236,222.561 56.330 C 221.605 56.569,220.781 57.392,220.266 58.624 L 219.830 59.665 219.873 82.874 L 219.917 106.083 220.417 107.083 C 221.308 108.867,221.469 108.906,228.083 108.968 C 235.098 109.034,235.755 108.896,236.506 107.198 C 236.825 106.476,236.833 105.977,236.833 87.299 L 236.833 68.141 237.321 67.654 C 237.588 67.386,237.982 67.166,238.196 67.166 C 238.409 67.165,238.798 67.053,239.061 66.916 C 239.323 66.779,239.632 66.667,239.747 66.667 C 239.861 66.667,240.134 66.529,240.353 66.360 C 241.675 65.341,249.155 65.204,249.763 66.188 C 249.922 66.446,251.468 67.167,251.861 67.167 C 252.332 67.167,253.395 67.892,254.159 68.736 C 254.484 69.094,254.825 69.469,254.917 69.569 C 255.009 69.669,255.266 70.162,255.487 70.667 C 255.709 71.171,256.068 71.752,256.287 71.958 C 257.136 72.759,257.161 73.262,257.164 90.059 C 257.167 107.263,257.175 107.408,258.201 108.352 C 258.840 108.939,259.573 109.000,266.030 109.000 C 272.453 109.000,272.430 109.007,273.088 106.833 C 273.548 105.317,273.564 76.059,273.108 72.417 C 272.959 71.225,272.835 69.837,272.832 69.333 C 272.824 67.475,272.226 65.571,271.497 65.082 C 271.224 64.900,271.001 64.665,271.000 64.561 C 271.000 64.457,270.888 64.157,270.751 63.894 C 270.614 63.631,270.502 63.271,270.501 63.094 C 270.500 62.771,269.841 61.670,269.648 61.668 C 269.592 61.667,269.112 61.100,268.582 60.407 C 268.051 59.715,267.169 58.803,266.622 58.382 C 266.075 57.961,265.415 57.422,265.156 57.183 C 264.392 56.481,264.191 56.333,263.996 56.333 C 263.697 56.333,262.089 55.611,262.022 55.447 C 261.896 55.141,261.130 54.580,260.697 54.478 C 260.451 54.420,259.537 54.210,258.667 54.012 C 257.711 53.794,256.819 53.474,256.417 53.205 C 254.873 52.173,254.348 52.116,245.917 52.076 C 241.700 52.056,238.025 52.071,237.750 52.108 M99.250 52.344 C 95.661 52.478,94.967 52.634,93.935 53.542 C 93.753 53.702,93.492 53.833,93.355 53.833 C 93.104 53.833,91.327 54.342,90.053 54.780 C 89.670 54.911,89.033 55.264,88.637 55.564 C 88.241 55.865,87.490 56.304,86.968 56.541 C 86.447 56.778,85.922 57.134,85.802 57.332 C 85.617 57.636,84.290 58.667,84.083 58.667 C 83.944 58.667,83.167 59.522,83.167 59.674 C 83.167 59.762,83.105 59.833,83.029 59.833 C 82.818 59.833,81.333 61.239,81.333 61.439 C 81.333 61.535,80.921 62.047,80.417 62.576 C 79.912 63.105,79.500 63.643,79.500 63.772 C 79.500 64.052,78.716 65.331,78.540 65.339 C 78.257 65.351,77.789 66.257,77.410 67.524 C 77.154 68.377,76.799 69.130,76.448 69.563 C 75.760 70.413,75.334 71.890,75.332 73.428 C 75.332 74.063,75.216 75.296,75.077 76.167 C 74.268 81.200,74.243 83.031,74.937 86.681 C 75.069 87.376,75.243 88.838,75.324 89.931 C 75.497 92.258,75.763 93.225,76.479 94.116 C 76.938 94.686,77.295 95.596,77.612 97.000 C 77.664 97.229,78.043 97.746,78.455 98.148 C 78.866 98.551,79.303 99.113,79.425 99.398 C 79.654 99.933,80.416 100.833,80.640 100.833 C 80.710 100.833,80.979 101.170,81.239 101.581 C 81.646 102.224,82.631 103.167,82.897 103.167 C 83.072 103.167,83.833 103.961,83.833 104.144 C 83.833 104.248,83.905 104.333,83.993 104.333 C 84.146 104.333,85.202 104.981,85.618 105.331 C 85.729 105.424,85.866 105.500,85.922 105.500 C 85.979 105.500,86.248 105.722,86.520 105.994 C 86.791 106.266,87.254 106.563,87.549 106.654 C 88.970 107.094,89.857 107.479,90.394 107.888 C 91.971 109.091,95.004 109.417,104.583 109.415 C 114.250 109.413,119.014 109.050,120.000 108.242 C 120.329 107.973,121.755 107.334,122.033 107.332 C 122.384 107.329,123.964 106.547,124.358 106.180 L 124.721 105.842 124.428 104.379 C 124.268 103.575,124.023 102.617,123.885 102.250 C 123.746 101.883,123.570 101.147,123.494 100.614 C 123.400 99.958,123.203 99.445,122.886 99.030 C 122.362 98.345,121.680 97.034,121.672 96.696 C 121.664 96.372,120.854 95.044,120.606 94.949 C 120.363 94.855,119.245 95.128,117.667 95.667 C 115.637 96.359,102.545 96.744,100.000 96.186 C 98.387 95.832,97.927 95.676,97.513 95.343 C 96.733 94.715,95.867 94.181,95.462 94.080 C 95.243 94.025,94.744 93.572,94.355 93.073 C 93.966 92.575,93.582 92.167,93.503 92.167 C 93.264 92.167,92.333 91.159,92.333 90.901 C 92.333 90.627,91.603 89.417,91.340 89.254 C 90.984 89.034,91.197 88.851,92.292 88.436 L 93.417 88.010 105.583 87.963 C 118.629 87.913,118.687 87.910,119.207 87.068 C 119.275 86.958,119.912 86.665,120.624 86.416 C 121.335 86.168,122.131 85.885,122.393 85.788 C 122.655 85.691,123.224 85.268,123.657 84.847 C 124.090 84.427,124.709 83.847,125.033 83.558 C 125.357 83.270,125.867 82.532,126.165 81.920 C 126.463 81.307,126.885 80.615,127.102 80.381 C 128.532 78.837,128.499 67.586,127.058 65.705 C 126.182 64.560,125.833 63.987,125.833 63.690 C 125.833 63.333,125.074 61.723,124.867 61.641 C 124.786 61.609,124.389 61.133,123.985 60.583 C 122.753 58.906,120.622 56.990,119.293 56.366 C 118.648 56.063,117.775 55.532,117.352 55.187 C 116.767 54.709,116.325 54.510,115.500 54.353 C 113.981 54.064,113.373 53.839,112.419 53.212 C 111.962 52.912,111.429 52.667,111.235 52.667 C 111.042 52.667,110.666 52.598,110.400 52.514 C 109.751 52.309,102.975 52.205,99.250 52.344 M107.549 53.099 C 108.759 53.246,109.862 53.458,110.000 53.572 C 110.309 53.827,112.599 54.500,113.167 54.503 C 113.921 54.506,115.488 55.094,116.293 55.675 C 116.728 55.988,117.472 56.396,117.948 56.581 C 118.424 56.766,119.099 57.178,119.448 57.498 C 119.797 57.818,120.308 58.250,120.583 58.459 C 121.443 59.112,123.500 61.221,123.500 61.449 C 123.500 61.569,123.566 61.667,123.646 61.667 C 123.727 61.667,123.879 61.873,123.984 62.125 C 124.089 62.377,124.416 62.820,124.712 63.109 C 125.093 63.481,125.342 63.967,125.565 64.776 C 125.941 66.136,126.472 67.484,126.775 67.843 C 127.325 68.496,127.873 75.761,127.427 76.484 C 127.366 76.582,127.252 77.058,127.173 77.542 C 127.083 78.100,126.812 78.747,126.432 79.311 C 126.103 79.800,125.833 80.338,125.833 80.507 C 125.833 80.823,125.333 81.780,124.801 82.481 C 124.635 82.700,124.068 83.211,123.541 83.616 C 123.014 84.021,122.507 84.442,122.413 84.551 C 121.935 85.108,120.452 85.767,119.145 86.004 C 118.231 86.170,117.580 86.367,116.417 86.830 C 115.125 87.345,114.376 87.382,103.000 87.492 C 96.629 87.553,91.283 87.664,91.119 87.739 C 90.119 88.192,90.148 89.456,91.184 90.552 C 91.374 90.752,91.681 91.211,91.866 91.571 C 92.246 92.308,94.579 94.667,94.928 94.667 C 95.053 94.667,95.402 94.910,95.703 95.208 C 96.525 96.021,97.609 96.468,100.009 96.983 C 100.336 97.053,100.840 97.229,101.131 97.374 C 101.956 97.785,105.047 98.058,107.545 97.939 C 111.767 97.739,112.211 97.696,113.477 97.361 C 119.695 95.717,120.961 95.864,121.488 98.292 C 121.603 98.819,121.764 99.381,121.848 99.542 C 122.210 100.236,122.425 100.589,122.536 100.673 C 122.971 101.000,123.500 103.094,123.500 104.487 L 123.500 105.966 122.828 106.317 C 122.459 106.509,121.952 106.668,121.703 106.669 C 121.121 106.671,118.486 107.399,117.880 107.724 C 114.706 109.428,95.275 109.391,92.514 107.676 C 91.991 107.351,90.594 106.838,89.750 106.661 C 88.905 106.484,88.143 106.102,87.735 105.649 C 87.560 105.455,86.888 105.042,86.242 104.731 C 85.587 104.415,84.745 103.837,84.338 103.422 C 83.937 103.013,83.288 102.476,82.896 102.228 C 82.505 101.981,82.100 101.575,81.997 101.326 C 81.894 101.077,81.440 100.551,80.988 100.156 C 80.536 99.762,80.165 99.321,80.163 99.178 C 80.161 99.034,80.013 98.729,79.833 98.500 C 79.654 98.271,79.503 98.008,79.498 97.917 C 79.492 97.825,79.116 97.263,78.662 96.667 C 78.205 96.068,77.789 95.322,77.731 95.000 C 77.578 94.140,77.002 92.454,76.764 92.167 C 74.969 90.007,74.818 75.557,76.552 71.963 C 77.137 70.751,77.540 69.596,77.760 68.504 C 77.886 67.876,78.581 66.667,78.816 66.667 C 78.896 66.667,79.006 66.535,79.061 66.375 C 79.116 66.215,79.382 65.708,79.653 65.250 C 79.923 64.792,80.149 64.316,80.156 64.194 C 80.162 64.071,80.579 63.555,81.083 63.047 C 81.587 62.539,82.000 62.022,82.000 61.899 C 82.000 61.775,82.394 61.365,82.875 60.986 C 83.356 60.607,83.779 60.220,83.813 60.125 C 83.951 59.751,84.452 59.287,85.167 58.871 C 85.579 58.631,86.282 58.111,86.728 57.716 C 87.175 57.320,87.732 56.948,87.967 56.889 C 88.202 56.830,88.587 56.681,88.822 56.559 C 89.058 56.436,89.330 56.335,89.428 56.334 C 89.526 56.334,89.901 56.071,90.261 55.750 C 90.901 55.181,92.094 54.718,93.333 54.557 C 94.332 54.428,96.572 53.778,96.804 53.550 C 96.925 53.431,97.037 53.326,97.054 53.316 C 97.785 52.902,104.729 52.759,107.549 53.099 M251.016 52.991 C 252.844 53.103,253.630 53.223,254.182 53.472 C 255.076 53.875,256.861 54.435,257.701 54.576 C 258.811 54.761,260.068 55.250,261.001 55.859 C 261.505 56.188,262.271 56.589,262.705 56.750 C 263.138 56.911,263.753 57.295,264.071 57.605 C 264.390 57.914,264.691 58.167,264.740 58.167 C 265.031 58.167,268.667 61.715,268.667 61.999 C 268.667 62.082,268.864 62.360,269.105 62.616 C 269.347 62.873,269.654 63.346,269.788 63.667 C 270.244 64.758,270.568 65.415,271.109 66.346 C 271.464 66.957,271.777 67.870,272.024 69.013 L 272.399 70.750 272.408 88.500 L 272.417 106.250 271.910 107.000 L 271.404 107.750 266.077 107.797 C 261.457 107.838,260.616 107.806,259.742 107.559 C 257.919 107.043,258.099 108.799,257.978 90.333 C 257.860 72.178,257.863 72.226,256.646 70.750 C 256.495 70.567,256.320 70.248,256.258 70.042 C 256.195 69.835,256.074 69.667,255.989 69.667 C 255.903 69.667,255.833 69.555,255.833 69.419 C 255.833 68.866,254.346 67.397,253.231 66.847 C 252.783 66.626,252.021 66.195,251.538 65.889 C 251.055 65.584,250.555 65.333,250.427 65.333 C 250.299 65.333,249.725 65.213,249.152 65.066 C 247.904 64.747,242.246 64.814,240.583 65.168 C 239.299 65.442,237.317 66.380,236.681 67.014 C 235.982 67.712,236.000 67.187,235.994 86.873 C 235.988 107.214,236.039 106.092,235.083 106.862 C 233.820 107.880,234.142 107.833,228.315 107.833 L 222.952 107.833 221.976 106.808 L 221.000 105.782 221.000 82.799 C 221.000 60.300,221.007 59.803,221.326 59.200 C 221.506 58.861,221.743 58.353,221.854 58.071 C 222.079 57.499,222.973 56.833,223.517 56.833 C 223.835 56.833,224.731 56.580,226.042 56.120 C 226.294 56.032,226.500 55.894,226.500 55.813 C 226.500 55.733,226.650 55.667,226.833 55.667 C 227.017 55.667,227.167 55.599,227.167 55.517 C 227.167 55.342,228.085 55.126,230.417 54.751 C 231.333 54.604,232.758 54.336,233.583 54.156 C 234.408 53.976,235.234 53.829,235.419 53.831 C 235.604 53.832,236.031 53.685,236.368 53.505 C 237.438 52.931,245.453 52.651,251.016 52.991 M196.863 54.329 C 195.968 54.559,195.524 54.773,195.196 55.132 C 194.951 55.401,194.379 56.025,193.927 56.519 C 192.272 58.322,192.423 55.803,192.370 82.500 L 192.324 105.917 192.681 106.917 C 193.397 108.917,193.736 109.001,201.034 108.996 C 207.119 108.992,207.329 108.955,208.265 107.731 C 209.426 106.211,209.334 108.452,209.323 81.703 L 209.314 57.583 208.915 56.833 C 208.696 56.421,208.422 55.896,208.307 55.667 C 207.628 54.311,206.937 54.134,202.083 54.070 C 198.599 54.023,197.926 54.057,196.863 54.329 M204.549 54.868 C 206.201 55.052,206.395 55.110,206.723 55.520 C 207.527 56.524,207.667 56.747,207.667 57.024 C 207.667 57.183,207.742 57.360,207.833 57.417 C 208.101 57.582,208.060 105.517,207.792 106.117 C 207.677 106.374,207.308 106.865,206.971 107.208 L 206.359 107.833 201.057 107.833 L 195.755 107.833 194.743 107.330 C 193.210 106.567,193.333 108.711,193.336 82.822 C 193.338 59.230,193.331 59.518,193.963 58.386 C 194.075 58.186,194.167 57.951,194.167 57.865 C 194.167 57.521,195.915 55.825,196.683 55.424 C 198.110 54.678,200.999 54.474,204.549 54.868 M360.034 60.832 C 359.640 61.011,359.002 61.407,358.617 61.711 C 358.232 62.015,357.709 62.368,357.455 62.496 C 356.733 62.857,356.082 63.528,355.834 64.167 C 355.709 64.487,355.508 64.898,355.387 65.079 C 355.266 65.260,355.167 65.541,355.167 65.704 C 355.167 65.867,355.098 66.000,355.014 66.000 C 353.748 66.000,353.654 72.122,354.912 72.605 C 355.052 72.658,355.167 72.805,355.167 72.930 C 355.167 73.056,355.316 73.404,355.499 73.704 C 355.682 74.004,355.835 74.362,355.838 74.500 C 355.848 74.887,356.368 75.422,357.049 75.745 C 357.389 75.906,357.667 76.104,357.667 76.186 C 357.667 76.267,357.779 76.333,357.917 76.333 C 358.054 76.333,358.167 76.432,358.167 76.553 C 358.167 78.554,366.653 78.458,368.591 76.436 C 368.996 76.013,369.385 75.664,369.456 75.661 C 370.726 75.601,371.421 73.260,371.408 69.083 C 371.396 64.848,370.736 63.411,368.192 62.081 C 367.720 61.834,367.333 61.566,367.333 61.485 C 367.333 60.565,361.728 60.064,360.034 60.832 M364.923 61.422 C 365.470 61.563,365.992 61.775,366.083 61.894 C 366.175 62.013,366.652 62.311,367.143 62.557 C 368.300 63.136,368.639 63.412,369.639 64.584 L 370.466 65.553 370.667 67.419 C 371.013 70.628,370.329 74.500,369.417 74.500 C 369.299 74.500,369.164 74.599,369.118 74.720 C 369.071 74.842,368.369 75.393,367.558 75.947 C 365.851 77.111,364.571 77.393,362.096 77.151 C 360.252 76.970,360.150 76.933,358.931 75.999 C 358.334 75.541,357.772 75.167,357.681 75.167 C 357.319 75.167,356.661 74.340,356.280 73.405 C 354.787 69.745,354.652 68.805,355.417 67.369 C 355.646 66.938,355.833 66.494,355.833 66.382 C 355.833 65.600,357.137 63.666,357.941 63.255 C 358.294 63.075,358.762 62.794,358.981 62.630 C 359.199 62.467,359.518 62.333,359.689 62.333 C 359.860 62.333,360.000 62.267,360.000 62.186 C 360.000 61.448,363.134 60.962,364.923 61.422 M100.667 62.900 C 99.193 63.081,98.166 63.430,97.916 63.835 C 97.858 63.928,97.572 64.118,97.280 64.256 C 95.825 64.946,94.997 65.478,94.562 66.003 C 94.299 66.321,93.756 66.882,93.356 67.249 C 92.714 67.838,91.667 69.623,91.667 70.127 C 91.667 70.225,91.610 70.331,91.542 70.361 C 90.359 70.887,89.303 75.994,90.164 77.025 C 90.791 77.776,91.294 77.818,99.699 77.826 C 109.705 77.836,111.860 77.653,112.695 76.725 C 113.644 75.672,114.072 71.530,113.459 69.333 C 113.318 68.829,113.156 68.213,113.099 67.963 C 113.043 67.714,112.716 67.216,112.373 66.857 C 112.030 66.499,111.487 65.900,111.167 65.526 C 110.846 65.153,110.471 64.842,110.333 64.836 C 110.196 64.831,109.896 64.679,109.667 64.500 C 109.438 64.321,109.164 64.172,109.059 64.170 C 108.955 64.168,108.824 64.050,108.770 63.908 C 108.412 62.976,104.262 62.460,100.667 62.900 M106.417 63.987 C 106.875 64.239,107.400 64.525,107.583 64.623 C 107.767 64.721,108.404 64.935,109.000 65.097 C 110.144 65.407,110.667 65.730,110.667 66.124 C 110.667 66.255,111.079 66.771,111.583 67.272 C 112.087 67.772,112.500 68.272,112.500 68.382 C 112.500 68.493,112.650 68.978,112.833 69.460 C 113.316 70.730,113.316 74.216,112.833 74.833 C 112.654 75.063,112.506 75.335,112.504 75.439 C 112.497 75.772,111.273 76.833,110.668 77.030 C 109.996 77.249,94.208 77.436,92.193 77.249 C 90.516 77.093,90.349 76.908,90.462 75.326 C 90.527 74.413,90.666 73.901,91.022 73.264 C 91.894 71.702,92.330 70.753,92.332 70.409 C 92.333 70.036,92.486 69.814,93.790 68.275 C 95.447 66.319,96.918 65.169,98.211 64.821 C 98.586 64.720,99.124 64.464,99.405 64.252 C 100.778 63.216,104.736 63.067,106.417 63.987 M361.667 91.354 C 359.766 91.632,358.241 92.182,357.893 92.716 C 357.723 92.977,357.265 93.379,356.876 93.610 C 356.319 93.941,356.058 94.265,355.643 95.140 C 355.354 95.751,354.933 96.471,354.709 96.741 C 353.539 98.147,353.767 103.000,355.002 103.000 C 355.093 103.000,355.167 103.103,355.167 103.230 C 355.167 104.311,357.674 107.327,358.581 107.337 C 358.985 107.341,360.305 107.923,360.678 108.260 C 361.373 108.889,365.138 108.805,365.967 108.143 C 366.444 107.762,366.924 107.533,367.674 107.331 C 368.488 107.112,369.154 106.684,369.161 106.375 C 369.164 106.260,369.242 106.167,369.333 106.167 C 369.425 106.167,369.500 106.052,369.500 105.913 C 369.500 105.773,369.678 105.591,369.895 105.508 C 370.993 105.091,371.417 103.536,371.417 99.917 C 371.417 95.951,371.052 94.547,369.864 93.933 C 369.571 93.781,369.141 93.368,368.907 93.015 C 368.263 92.042,366.773 91.559,363.500 91.263 C 363.087 91.226,362.262 91.266,361.667 91.354 M365.083 92.232 C 366.279 92.346,367.461 92.924,368.399 93.856 C 368.847 94.302,369.267 94.667,369.332 94.667 C 370.362 94.667,370.975 97.949,370.639 101.667 C 370.434 103.935,370.558 103.666,368.949 105.332 C 367.963 106.352,367.552 106.668,367.205 106.670 C 366.955 106.672,366.412 106.828,366.000 107.017 C 364.908 107.516,361.756 107.515,360.420 107.015 C 359.907 106.824,359.375 106.667,359.237 106.667 C 358.939 106.667,358.804 106.560,357.415 105.227 C 356.537 104.384,356.287 104.019,355.993 103.144 C 355.797 102.561,355.549 101.978,355.443 101.850 C 355.157 101.505,354.884 99.608,355.041 99.058 C 355.345 97.991,355.567 97.374,355.940 96.552 C 356.156 96.077,356.333 95.576,356.333 95.439 C 356.333 95.207,357.645 94.000,357.897 94.000 C 357.959 94.000,358.225 93.756,358.487 93.458 C 359.278 92.560,361.621 91.963,363.750 92.117 C 364.025 92.137,364.625 92.189,365.083 92.232 " stroke="none" fill="#9db4ca" fill-rule="evenodd"></path><path id="path4" d="M169.667 31.565 C 168.031 31.928,167.056 32.605,166.143 34.012 C 165.516 34.977,165.500 35.922,165.500 71.282 L 165.499 105.750 165.875 106.496 C 166.554 107.845,166.040 107.750,172.655 107.750 C 179.247 107.750,179.092 107.775,179.660 106.626 L 180.010 105.917 179.963 69.333 C 179.923 37.456,179.885 32.702,179.671 32.380 C 179.111 31.535,172.301 30.980,169.667 31.565 M198.500 31.439 C 197.247 31.680,195.500 32.431,195.500 32.728 C 195.500 32.810,195.100 33.260,194.611 33.730 C 192.088 36.151,192.069 41.325,194.572 43.869 C 195.082 44.387,195.500 44.890,195.500 44.986 C 195.500 45.082,195.817 45.322,196.204 45.519 C 198.914 46.902,202.863 46.872,205.257 45.452 C 205.873 45.086,207.507 43.281,207.616 42.844 C 207.675 42.609,207.973 42.061,208.278 41.627 L 208.833 40.837 208.833 38.667 C 208.833 36.703,208.802 36.470,208.500 36.211 C 208.317 36.054,208.167 35.839,208.167 35.733 C 208.167 35.627,208.054 35.447,207.917 35.333 C 207.779 35.219,207.667 34.988,207.667 34.819 C 207.667 34.245,205.314 32.100,204.314 31.763 C 203.427 31.463,199.505 31.245,198.500 31.439 M288.833 31.694 C 287.680 31.998,286.833 32.501,286.833 32.882 C 286.833 32.968,286.545 33.318,286.194 33.660 C 285.056 34.763,285.120 32.609,285.098 71.083 L 285.078 105.750 285.458 106.602 C 285.981 107.778,286.321 107.833,293.082 107.833 C 300.426 107.833,299.667 109.148,299.667 96.429 L 299.667 86.826 300.108 86.159 C 300.486 85.588,300.587 85.523,300.816 85.705 C 300.963 85.821,301.271 86.020,301.500 86.146 C 302.288 86.580,304.404 88.251,305.483 89.292 C 306.077 89.865,306.596 90.333,306.635 90.333 C 306.675 90.333,307.036 90.690,307.439 91.125 C 307.842 91.560,308.227 91.971,308.294 92.038 C 308.361 92.105,308.754 92.488,309.167 92.890 C 309.579 93.292,310.517 94.278,311.250 95.081 C 311.983 95.885,312.977 96.956,313.458 97.463 C 313.940 97.970,314.333 98.423,314.333 98.470 C 314.333 98.566,314.410 98.652,315.868 100.189 C 318.262 102.713,318.667 103.173,318.667 103.375 C 318.667 103.605,319.231 104.261,319.863 104.767 C 320.081 104.941,320.456 105.421,320.696 105.833 C 321.544 107.288,322.046 107.361,330.803 107.301 C 339.035 107.244,338.241 107.361,338.782 106.127 C 338.968 105.703,338.933 105.620,338.283 104.934 C 337.601 104.216,337.328 103.837,336.898 103.017 C 336.783 102.797,336.626 102.572,336.550 102.517 C 336.287 102.326,335.053 100.747,334.736 100.194 C 334.560 99.888,334.023 99.223,333.542 98.716 C 333.060 98.210,332.667 97.719,332.667 97.626 C 332.667 97.533,332.254 97.047,331.750 96.547 C 331.246 96.047,330.833 95.541,330.833 95.423 C 330.833 95.306,330.505 94.906,330.103 94.536 C 329.702 94.166,329.252 93.691,329.104 93.480 C 328.808 93.057,327.049 91.099,325.750 89.747 C 325.292 89.270,324.167 88.074,323.250 87.088 C 322.333 86.103,320.646 84.434,319.500 83.380 C 316.452 80.576,316.167 80.294,316.167 80.085 C 316.167 79.981,316.035 79.747,315.875 79.565 C 315.097 78.680,315.101 78.557,315.945 77.749 C 316.374 77.337,316.785 77.000,316.857 77.000 C 316.928 77.000,317.271 76.713,317.619 76.363 C 317.966 76.013,318.651 75.445,319.141 75.101 C 319.631 74.757,320.258 74.218,320.533 73.904 C 320.809 73.590,321.123 73.333,321.232 73.333 C 321.341 73.333,321.923 72.902,322.526 72.375 C 323.943 71.136,324.316 70.833,324.430 70.833 C 324.481 70.833,324.761 70.584,325.053 70.280 C 325.345 69.976,325.958 69.472,326.417 69.160 C 326.875 68.849,327.562 68.272,327.943 67.880 C 328.325 67.488,328.719 67.167,328.818 67.167 C 328.918 67.167,329.000 67.104,329.000 67.027 C 329.000 66.950,329.197 66.797,329.439 66.687 C 329.680 66.577,330.212 66.115,330.621 65.660 C 331.030 65.205,331.453 64.833,331.562 64.833 C 331.816 64.833,332.699 64.027,333.078 63.449 C 333.239 63.202,333.437 63.000,333.517 63.000 C 333.597 63.000,333.827 62.869,334.027 62.708 C 334.411 62.400,334.487 62.321,335.914 60.763 L 336.818 59.775 336.534 59.289 C 336.003 58.380,334.522 56.924,333.700 56.503 C 333.250 56.272,332.582 55.875,332.216 55.620 C 330.595 54.489,324.831 54.578,323.239 55.758 C 322.958 55.966,322.257 56.335,321.681 56.577 C 320.660 57.007,320.456 57.131,319.867 57.682 C 319.515 58.011,317.707 59.333,317.609 59.333 C 317.569 59.333,317.111 59.746,316.591 60.250 C 316.070 60.754,315.555 61.167,315.446 61.167 C 315.337 61.167,314.884 61.579,314.439 62.083 C 313.995 62.587,313.538 63.000,313.424 63.000 C 313.310 63.000,312.812 63.399,312.317 63.887 C 311.822 64.374,311.145 64.937,310.813 65.137 C 310.481 65.337,310.031 65.763,309.813 66.084 C 309.595 66.405,309.285 66.710,309.125 66.761 C 308.965 66.813,308.833 66.926,308.833 67.011 C 308.833 67.097,308.746 67.167,308.640 67.167 C 308.534 67.167,308.020 67.560,307.498 68.042 C 306.402 69.051,305.670 69.667,305.564 69.667 C 305.523 69.667,305.099 70.049,304.620 70.516 C 304.142 70.983,303.412 71.561,303.000 71.800 C 302.587 72.039,302.205 72.299,302.150 72.378 C 302.095 72.457,301.870 72.616,301.650 72.731 C 301.430 72.847,301.071 73.048,300.853 73.179 C 300.540 73.366,300.440 73.372,300.380 73.205 C 300.338 73.089,300.179 72.870,300.027 72.717 C 299.773 72.463,299.743 70.799,299.667 52.595 C 299.577 31.128,299.631 32.273,298.688 31.881 C 297.177 31.253,290.951 31.135,288.833 31.694 M360.917 31.418 C 360.825 31.450,360.324 31.594,359.804 31.739 C 358.613 32.070,356.573 33.956,356.095 35.167 C 355.932 35.579,355.717 36.067,355.616 36.250 C 354.894 37.561,354.862 40.311,355.558 41.164 C 355.672 41.303,355.905 41.829,356.077 42.333 C 356.397 43.274,356.954 44.140,357.250 44.158 C 357.342 44.164,357.775 44.540,358.214 44.994 C 358.778 45.579,359.191 45.854,359.630 45.936 C 359.971 46.000,360.500 46.157,360.806 46.285 C 362.753 47.097,367.521 46.176,368.427 44.812 C 368.605 44.545,369.014 44.142,369.337 43.917 C 370.242 43.286,370.443 42.784,370.649 40.650 C 370.978 37.230,370.442 33.863,369.564 33.839 C 369.462 33.836,369.026 33.456,368.594 32.994 C 367.349 31.663,362.859 30.741,360.917 31.418 M178.077 32.267 L 179.138 32.533 179.319 33.572 C 179.694 35.722,179.561 105.721,179.181 106.190 L 178.863 106.583 172.772 106.583 C 166.877 106.583,166.673 106.573,166.428 106.250 C 166.151 105.886,166.101 35.207,166.378 34.667 C 166.448 34.529,166.804 34.246,167.169 34.037 C 167.570 33.808,167.924 33.439,168.063 33.107 C 168.279 32.589,168.716 32.303,169.583 32.112 C 170.571 31.895,177.066 32.013,178.077 32.267 M204.943 32.959 C 205.358 33.440,205.784 33.836,205.890 33.839 C 206.341 33.852,206.883 34.534,207.019 35.261 C 207.096 35.677,207.274 36.131,207.413 36.270 C 207.553 36.410,207.668 36.687,207.669 36.887 C 207.671 37.087,207.770 37.580,207.891 37.983 C 208.070 38.584,208.071 38.825,207.896 39.317 C 207.778 39.647,207.678 40.121,207.674 40.371 C 207.670 40.621,207.517 41.071,207.334 41.371 C 207.151 41.671,207.001 42.154,207.001 42.444 C 207.000 42.976,206.387 43.664,205.588 44.029 C 205.402 44.113,205.087 44.431,204.889 44.735 C 204.388 45.499,202.275 45.934,199.838 45.775 C 197.733 45.637,196.919 45.290,195.774 44.042 C 195.669 43.928,195.377 43.609,195.125 43.335 C 194.873 43.061,194.667 42.777,194.667 42.705 C 194.667 42.633,194.439 42.325,194.160 42.020 C 193.032 40.785,193.083 36.809,194.243 35.579 C 194.568 35.235,194.833 34.888,194.833 34.808 C 194.833 34.580,196.219 33.167,196.443 33.167 C 196.554 33.167,196.688 33.035,196.741 32.875 C 196.984 32.144,197.722 32.002,201.053 32.044 L 204.190 32.084 204.943 32.959 M298.353 32.318 C 299.147 32.710,299.167 33.232,299.167 53.895 C 299.167 70.634,299.197 73.007,299.417 73.226 C 299.554 73.364,299.667 73.538,299.667 73.614 C 299.667 74.595,302.537 73.741,303.451 72.489 C 303.562 72.337,304.143 71.884,304.742 71.482 C 305.341 71.079,305.832 70.669,305.833 70.571 C 305.834 70.319,306.460 69.782,307.270 69.339 C 307.648 69.132,308.064 68.737,308.195 68.461 C 308.337 68.161,308.765 67.774,309.258 67.500 C 309.713 67.247,310.288 66.742,310.540 66.373 C 310.829 65.950,311.245 65.605,311.673 65.434 C 312.149 65.243,312.481 64.945,312.799 64.424 C 313.095 63.938,313.405 63.648,313.700 63.581 C 314.129 63.482,315.500 62.274,315.500 61.995 C 315.500 61.923,315.843 61.697,316.261 61.495 C 316.680 61.292,317.111 60.985,317.218 60.813 C 317.326 60.641,317.489 60.498,317.582 60.496 C 317.674 60.494,317.974 60.232,318.248 59.913 C 318.523 59.594,318.841 59.333,318.957 59.333 C 319.072 59.333,319.167 59.266,319.167 59.185 C 319.167 59.103,319.450 58.923,319.797 58.784 C 320.143 58.646,320.530 58.338,320.657 58.100 C 320.956 57.543,321.388 57.275,322.417 57.011 C 322.875 56.893,323.486 56.693,323.775 56.565 C 324.064 56.438,324.360 56.333,324.433 56.333 C 324.506 56.333,324.857 56.131,325.214 55.884 C 326.218 55.188,329.635 55.183,330.543 55.875 C 330.874 56.127,331.232 56.333,331.338 56.333 C 331.445 56.333,331.731 56.442,331.974 56.575 C 332.218 56.709,332.877 56.978,333.441 57.175 C 334.312 57.478,334.479 57.602,334.559 58.002 C 334.610 58.261,334.953 58.779,335.320 59.153 C 335.687 59.527,335.891 59.833,335.775 59.833 C 335.459 59.833,334.732 60.667,334.450 61.352 C 334.272 61.785,334.045 62.009,333.643 62.147 C 333.066 62.345,332.000 63.414,332.000 63.794 C 332.000 63.912,331.782 64.052,331.515 64.105 C 331.248 64.159,330.629 64.588,330.140 65.060 C 329.259 65.908,327.615 67.163,327.375 67.171 C 327.306 67.173,327.029 67.473,326.760 67.837 C 326.490 68.202,326.171 68.500,326.051 68.500 C 325.931 68.500,325.833 68.574,325.833 68.663 C 325.833 68.753,325.648 68.873,325.422 68.930 C 325.196 68.987,324.840 69.262,324.630 69.541 C 324.033 70.339,323.476 70.833,323.174 70.833 C 322.818 70.833,322.242 71.370,321.911 72.010 C 321.741 72.340,321.482 72.545,321.154 72.611 C 320.690 72.704,319.167 74.045,319.167 74.361 C 319.167 74.437,319.031 74.500,318.865 74.500 C 318.699 74.500,318.417 74.635,318.240 74.800 C 318.062 74.965,317.785 75.150,317.625 75.212 C 317.465 75.273,317.333 75.400,317.333 75.495 C 317.333 75.589,317.265 75.667,317.182 75.667 C 317.098 75.667,316.629 76.079,316.140 76.582 C 315.650 77.086,315.162 77.498,315.054 77.499 C 314.127 77.504,314.042 78.921,314.922 79.694 C 315.240 79.973,315.500 80.270,315.500 80.354 C 315.500 80.593,316.360 81.833,316.526 81.833 C 316.879 81.833,317.986 82.731,318.165 83.163 C 318.280 83.441,318.653 83.790,319.072 84.012 C 319.501 84.240,319.970 84.683,320.250 85.126 C 320.506 85.532,320.910 85.950,321.147 86.056 C 321.709 86.308,322.142 86.745,322.336 87.257 C 322.422 87.483,322.828 87.904,323.237 88.193 C 323.647 88.482,324.208 89.082,324.484 89.526 C 324.760 89.970,325.099 90.333,325.236 90.333 C 325.538 90.333,326.296 91.119,326.442 91.583 C 326.572 92.000,327.252 92.644,327.767 92.840 C 327.995 92.926,328.203 93.182,328.267 93.452 C 328.404 94.033,329.055 94.747,329.686 95.008 C 329.950 95.118,330.167 95.314,330.167 95.446 C 330.167 95.870,330.895 96.965,331.360 97.239 C 331.609 97.386,332.052 97.925,332.344 98.436 C 332.637 98.947,333.229 99.714,333.660 100.141 C 334.092 100.568,334.609 101.254,334.811 101.667 C 335.013 102.079,335.369 102.567,335.604 102.750 C 336.363 103.343,336.666 103.721,336.816 104.264 C 336.985 104.875,337.469 105.415,338.000 105.583 C 338.488 105.738,338.282 105.904,337.089 106.320 C 335.772 106.779,324.169 106.859,323.109 106.417 C 322.780 106.279,322.279 106.167,321.996 106.167 C 321.534 106.167,321.441 106.075,321.085 105.269 C 320.719 104.443,319.959 103.667,319.516 103.667 C 319.416 103.667,319.333 103.572,319.333 103.456 C 319.333 102.898,318.556 101.857,316.542 99.717 C 316.335 99.497,316.167 99.282,316.167 99.239 C 316.167 99.195,315.754 98.760,315.250 98.271 C 314.746 97.783,314.333 97.306,314.333 97.212 C 314.333 97.117,313.960 96.716,313.503 96.319 C 313.046 95.923,312.470 95.279,312.223 94.889 C 311.976 94.498,311.576 94.110,311.333 94.025 C 311.084 93.938,310.663 93.514,310.364 93.048 C 310.073 92.595,309.629 92.118,309.376 91.989 C 308.819 91.705,308.168 91.057,308.164 90.783 C 308.160 90.505,307.466 89.876,306.946 89.678 C 306.707 89.587,306.320 89.208,306.085 88.835 C 305.849 88.462,305.303 87.935,304.870 87.664 C 304.437 87.392,303.899 86.919,303.674 86.611 C 303.318 86.127,301.374 84.833,301.000 84.833 C 300.928 84.833,300.822 84.712,300.765 84.563 C 300.677 84.334,300.592 84.362,300.206 84.748 C 299.097 85.856,299.169 85.082,299.168 95.891 C 299.167 104.916,299.143 105.738,298.876 106.190 L 298.586 106.682 292.668 106.633 C 287.366 106.588,286.693 106.552,286.207 106.287 L 285.664 105.990 285.707 70.858 C 285.748 37.655,285.766 35.710,286.042 35.435 C 286.202 35.274,286.333 35.050,286.333 34.937 C 286.333 34.824,286.583 34.490,286.887 34.195 C 287.192 33.900,287.544 33.397,287.669 33.077 C 287.854 32.605,288.024 32.463,288.574 32.322 C 288.946 32.227,289.325 32.117,289.417 32.079 C 289.853 31.896,297.938 32.113,298.353 32.318 M366.333 32.292 C 367.094 32.588,368.000 33.269,368.000 33.545 C 368.000 33.738,368.692 34.320,368.929 34.328 C 370.641 34.381,370.704 42.064,369.002 43.173 C 368.588 43.443,368.030 43.993,367.762 44.396 C 366.960 45.600,363.404 46.239,360.957 45.618 C 360.385 45.473,359.710 45.311,359.458 45.258 C 359.206 45.204,359.000 45.052,359.000 44.919 C 359.000 44.518,358.034 43.548,357.535 43.449 C 356.340 43.210,355.785 38.126,356.670 35.525 C 356.893 34.870,357.160 34.333,357.263 34.333 C 357.635 34.333,358.792 33.353,358.893 32.953 C 359.119 32.053,364.489 31.575,366.333 32.292 M239.199 53.029 C 237.518 53.140,236.833 53.255,236.368 53.505 C 236.031 53.685,235.604 53.832,235.419 53.831 C 235.234 53.829,234.408 53.976,233.583 54.156 C 232.758 54.336,231.333 54.604,230.417 54.751 C 228.085 55.126,227.167 55.342,227.167 55.517 C 227.167 55.599,227.017 55.667,226.833 55.667 C 226.650 55.667,226.500 55.733,226.500 55.813 C 226.500 55.894,226.294 56.032,226.042 56.120 C 224.731 56.580,223.835 56.833,223.517 56.833 C 222.973 56.833,222.079 57.499,221.854 58.071 C 221.743 58.353,221.506 58.861,221.326 59.200 C 221.007 59.803,221.000 60.300,221.000 82.799 L 221.000 105.782 221.976 106.808 L 222.952 107.833 228.315 107.833 C 234.142 107.833,233.820 107.880,235.083 106.862 C 236.039 106.092,235.988 107.214,235.994 86.873 C 236.000 67.187,235.982 67.712,236.681 67.014 C 237.317 66.380,239.299 65.442,240.583 65.168 C 242.246 64.814,247.904 64.747,249.152 65.066 C 249.725 65.213,250.299 65.333,250.427 65.333 C 250.555 65.333,251.055 65.584,251.538 65.889 C 252.021 66.195,252.783 66.626,253.231 66.847 C 254.346 67.397,255.833 68.866,255.833 69.419 C 255.833 69.555,255.903 69.667,255.989 69.667 C 256.074 69.667,256.195 69.835,256.258 70.042 C 256.320 70.248,256.495 70.567,256.646 70.750 C 257.863 72.226,257.860 72.178,257.978 90.333 C 258.099 108.799,257.919 107.043,259.742 107.559 C 260.616 107.806,261.457 107.838,266.077 107.797 L 271.404 107.750 271.910 107.000 L 272.417 106.250 272.408 88.500 L 272.399 70.750 272.024 69.013 C 271.777 67.870,271.464 66.957,271.109 66.346 C 270.568 65.415,270.244 64.758,269.788 63.667 C 269.654 63.346,269.347 62.873,269.105 62.616 C 268.864 62.360,268.667 62.082,268.667 61.999 C 268.667 61.715,265.031 58.167,264.740 58.167 C 264.691 58.167,264.390 57.914,264.071 57.605 C 263.753 57.295,263.138 56.911,262.705 56.750 C 262.271 56.589,261.505 56.188,261.001 55.859 C 260.068 55.250,258.811 54.761,257.701 54.576 C 256.861 54.435,255.076 53.875,254.182 53.472 C 252.889 52.888,244.886 52.651,239.199 53.029 M97.042 53.370 C 96.835 53.470,96.667 53.612,96.667 53.687 C 96.667 53.848,97.118 53.701,97.579 53.389 C 97.984 53.115,97.599 53.101,97.042 53.370 M109.347 53.394 C 109.683 53.688,110.230 53.864,110.021 53.611 C 109.895 53.458,109.677 53.333,109.535 53.333 C 109.394 53.333,109.309 53.361,109.347 53.394 M248.440 53.509 C 248.694 53.606,249.506 53.756,250.243 53.843 C 250.980 53.930,252.071 54.113,252.667 54.251 C 254.518 54.677,256.346 55.000,256.904 55.000 C 257.759 55.000,259.153 55.482,259.378 55.855 C 259.628 56.269,260.366 56.646,261.958 57.175 C 262.623 57.395,263.167 57.631,263.167 57.699 C 263.167 57.965,264.184 58.842,264.807 59.112 C 265.170 59.269,265.591 59.610,265.745 59.870 C 266.086 60.447,266.843 61.167,267.108 61.167 C 267.216 61.167,267.483 61.527,267.703 61.967 C 268.105 62.775,268.709 63.500,268.980 63.500 C 269.134 63.500,269.342 63.973,269.678 65.083 C 270.108 66.501,270.569 67.595,270.855 67.876 C 271.739 68.740,271.727 68.478,271.794 87.813 C 271.841 101.387,271.808 105.825,271.658 106.188 L 271.460 106.667 265.771 106.661 C 261.034 106.657,260.029 106.615,259.760 106.411 C 259.582 106.277,259.267 106.167,259.060 106.167 L 258.683 106.167 258.623 91.208 C 258.548 72.793,258.403 70.941,256.924 69.507 C 256.599 69.192,256.333 68.837,256.333 68.717 C 256.333 68.598,256.273 68.500,256.199 68.500 C 256.125 68.500,255.937 68.211,255.781 67.858 C 255.557 67.350,255.282 67.104,254.457 66.676 C 253.885 66.378,253.229 65.964,253.000 65.756 C 251.728 64.598,250.679 64.417,245.250 64.417 C 240.729 64.417,238.561 64.625,237.583 65.153 C 236.985 65.476,235.173 67.256,234.877 67.811 C 234.711 68.121,234.667 72.198,234.667 87.012 L 234.667 105.820 234.210 106.243 L 233.753 106.667 228.377 106.667 C 223.074 106.667,222.995 106.662,222.637 106.303 L 222.273 105.940 222.248 82.845 C 222.224 60.834,222.237 59.711,222.528 58.917 C 222.696 58.458,222.833 57.969,222.833 57.830 C 222.833 57.577,223.074 57.508,226.000 56.916 C 227.260 56.661,228.843 56.087,229.004 55.827 C 229.179 55.543,231.484 55.006,232.539 55.003 C 233.696 54.999,237.874 54.418,239.185 54.078 C 239.706 53.944,240.571 53.826,241.107 53.817 C 241.644 53.809,242.458 53.705,242.917 53.587 C 243.942 53.324,247.809 53.269,248.440 53.509 M198.374 54.852 C 196.875 55.101,194.167 57.041,194.167 57.865 C 194.167 57.951,194.075 58.186,193.963 58.386 C 193.331 59.518,193.338 59.230,193.336 82.822 C 193.333 108.711,193.210 106.567,194.743 107.330 L 195.755 107.833 201.057 107.833 L 206.359 107.833 206.971 107.208 C 207.308 106.865,207.677 106.374,207.792 106.117 C 208.060 105.517,208.101 57.582,207.833 57.417 C 207.742 57.360,207.667 57.183,207.667 57.024 C 207.667 56.747,207.527 56.524,206.723 55.520 C 206.151 54.806,201.082 54.400,198.374 54.852 M205.058 55.655 C 205.487 55.862,206.099 56.286,206.419 56.596 L 207.000 57.161 207.000 81.609 C 207.000 104.124,206.978 106.081,206.724 106.362 C 206.468 106.645,206.068 106.667,201.054 106.667 L 195.660 106.667 194.996 106.228 L 194.333 105.789 194.346 83.520 C 194.352 71.271,194.419 60.875,194.493 60.417 C 194.674 59.308,195.149 57.616,195.311 57.505 C 195.383 57.457,195.489 57.285,195.549 57.125 C 195.608 56.965,195.778 56.833,195.927 56.833 C 196.293 56.833,197.176 56.326,197.521 55.918 C 198.238 55.070,203.472 54.887,205.058 55.655 M361.833 61.322 C 361.105 61.468,360.000 61.989,360.000 62.186 C 360.000 62.267,359.860 62.333,359.689 62.333 C 359.518 62.333,359.199 62.467,358.981 62.630 C 358.762 62.794,358.294 63.075,357.941 63.255 C 357.137 63.666,355.833 65.600,355.833 66.382 C 355.833 66.494,355.646 66.938,355.417 67.369 C 354.652 68.805,354.787 69.745,356.280 73.405 C 356.661 74.340,357.319 75.167,357.681 75.167 C 357.772 75.167,358.334 75.541,358.931 75.999 C 360.150 76.933,360.252 76.970,362.096 77.151 C 364.571 77.393,365.851 77.111,367.558 75.947 C 368.369 75.393,369.071 74.842,369.118 74.720 C 369.164 74.599,369.299 74.500,369.417 74.500 C 370.329 74.500,371.013 70.628,370.667 67.419 L 370.466 65.553 369.639 64.584 C 368.639 63.412,368.300 63.136,367.143 62.557 C 366.652 62.311,366.175 62.013,366.083 61.894 C 365.675 61.365,363.249 61.038,361.833 61.322 M363.738 62.148 C 363.789 62.229,364.074 62.342,364.373 62.399 C 364.672 62.455,365.104 62.599,365.333 62.719 C 365.563 62.838,366.238 63.076,366.833 63.248 C 367.799 63.527,367.971 63.644,368.417 64.321 C 368.692 64.739,369.117 65.177,369.362 65.294 C 370.621 65.893,370.512 72.302,369.225 73.387 C 368.918 73.646,368.667 73.946,368.667 74.054 C 368.667 74.316,367.587 75.167,367.253 75.167 C 366.944 75.167,366.260 75.570,365.667 76.100 C 364.705 76.961,360.667 76.878,360.667 75.998 C 360.667 75.838,359.328 75.167,359.009 75.167 C 358.912 75.167,358.833 75.097,358.833 75.011 C 358.833 74.926,358.683 74.808,358.500 74.750 C 358.150 74.639,357.000 73.626,357.000 73.430 C 357.000 73.367,356.854 72.995,356.676 72.605 C 355.687 70.432,356.212 65.541,357.516 64.793 C 357.785 64.639,358.056 64.378,358.118 64.214 C 358.279 63.784,358.640 63.546,359.583 63.245 C 360.042 63.099,360.754 62.842,361.167 62.674 C 361.860 62.391,362.977 62.071,363.448 62.021 C 363.558 62.009,363.688 62.066,363.738 62.148 M362.250 92.123 C 360.793 92.185,359.070 92.796,358.487 93.458 C 358.225 93.756,357.959 94.000,357.897 94.000 C 357.645 94.000,356.333 95.207,356.333 95.439 C 356.333 95.576,356.156 96.077,355.940 96.552 C 355.567 97.374,355.345 97.991,355.041 99.058 C 354.884 99.608,355.157 101.505,355.443 101.850 C 355.549 101.978,355.797 102.561,355.993 103.144 C 356.287 104.019,356.537 104.384,357.415 105.227 C 358.804 106.560,358.939 106.667,359.237 106.667 C 359.375 106.667,359.907 106.824,360.420 107.015 C 361.756 107.515,364.908 107.516,366.000 107.017 C 366.412 106.828,366.955 106.672,367.205 106.670 C 367.552 106.668,367.963 106.352,368.949 105.332 C 370.558 103.666,370.434 103.935,370.639 101.667 C 370.975 97.949,370.362 94.667,369.332 94.667 C 369.267 94.667,368.847 94.302,368.399 93.856 C 367.181 92.647,366.250 92.298,363.750 92.117 C 363.475 92.097,362.800 92.100,362.250 92.123 M366.203 93.106 C 366.453 93.233,366.737 93.486,366.834 93.668 C 366.932 93.851,367.094 94.000,367.194 94.000 C 367.404 94.000,368.601 94.992,369.405 95.832 C 370.738 97.225,370.454 103.097,369.000 104.197 C 368.587 104.509,368.118 105.042,367.957 105.382 C 367.796 105.722,367.608 106.001,367.540 106.003 C 367.472 106.004,366.892 106.121,366.250 106.262 C 364.824 106.575,361.937 106.615,360.583 106.341 C 360.033 106.229,359.415 106.106,359.208 106.066 C 359.002 106.026,358.833 105.893,358.833 105.770 C 358.833 105.462,357.744 104.333,357.447 104.333 C 356.332 104.333,355.823 99.143,356.674 96.461 C 356.899 95.753,357.173 95.171,357.282 95.170 C 357.625 95.165,358.732 94.442,359.145 93.955 C 360.118 92.805,364.560 92.272,366.203 93.106 M109.333 97.833 C 108.764 97.953,108.768 97.957,109.542 97.978 C 109.977 97.990,110.333 97.925,110.333 97.833 C 110.333 97.650,110.202 97.650,109.333 97.833 M105.964 98.123 C 106.448 98.157,107.198 98.156,107.631 98.122 C 108.063 98.088,107.667 98.060,106.750 98.061 C 105.833 98.061,105.480 98.089,105.964 98.123 " stroke="none" fill="#849cbc" fill-rule="evenodd"></path></g></svg>