<svg id="svg" version="1.1" xmlns="http://www.w3.org/2000/svg" xmlns:xlink="http://www.w3.org/1999/xlink" width="400" height="239.05325443786984" viewBox="0, 0, 400,239.05325443786984"><g id="svgg"><path id="path0" d="M222.355 54.682 C 219.250 55.223,218.530 56.058,218.530 59.114 C 218.530 62.715,219.950 63.686,224.587 63.251 L 226.389 63.082 226.661 61.965 C 227.429 58.818,227.468 58.384,227.074 57.448 C 226.864 56.951,226.631 56.254,226.555 55.898 C 226.442 55.372,226.249 55.224,225.521 55.108 C 225.029 55.029,224.440 54.863,224.211 54.739 C 223.788 54.509,223.417 54.497,222.355 54.682 M221.877 74.267 C 220.429 74.521,220.127 74.657,219.399 75.385 C 218.974 75.810,218.370 76.693,218.055 77.349 C 217.741 78.005,217.288 78.682,217.050 78.854 C 216.592 79.185,216.457 79.857,216.849 79.857 C 216.977 79.857,217.395 80.475,217.779 81.231 C 218.162 81.987,218.657 82.956,218.879 83.383 C 219.132 83.871,219.519 84.210,219.922 84.296 C 220.274 84.371,220.809 84.533,221.111 84.655 C 222.900 85.380,226.227 84.628,226.781 83.373 C 227.009 82.854,227.505 82.255,227.882 82.040 C 229.043 81.380,228.782 76.748,227.584 76.748 C 227.195 76.748,226.695 76.140,226.523 75.456 C 226.285 74.506,223.940 73.906,221.877 74.267 M220.442 95.801 C 220.245 95.870,219.815 96.217,219.486 96.571 C 218.622 97.502,217.784 98.027,217.166 98.027 C 216.771 98.027,216.588 98.204,216.483 98.685 C 216.283 99.603,215.187 102.135,214.793 102.589 C 214.421 103.017,214.337 105.571,214.687 105.788 C 215.006 105.985,216.312 108.659,216.494 109.489 C 216.614 110.033,216.819 110.226,217.409 110.353 C 217.828 110.442,218.440 110.654,218.769 110.823 C 221.143 112.046,225.095 112.192,226.381 111.105 C 226.568 110.948,227.158 110.708,227.693 110.572 C 228.524 110.360,228.696 110.204,228.878 109.496 C 228.995 109.040,229.230 108.506,229.401 108.308 C 231.404 105.999,231.359 102.429,229.294 99.821 C 229.190 99.689,229.036 99.259,228.952 98.864 C 228.830 98.296,228.574 98.054,227.717 97.700 C 226.881 97.355,226.605 97.101,226.502 96.586 C 226.419 96.173,226.173 95.866,225.856 95.781 C 225.224 95.611,220.935 95.627,220.442 95.801 M173.725 106.934 C 173.342 107.659,173.321 110.141,173.394 144.411 C 173.481 184.816,173.399 182.656,174.902 184.050 C 175.227 184.351,175.493 184.811,175.493 185.071 C 175.493 185.835,177.525 188.643,178.078 188.643 C 178.174 188.643,178.761 189.110,179.383 189.680 C 180.613 190.810,181.442 191.270,182.259 191.278 C 183.042 191.286,184.880 192.177,185.335 192.770 C 185.763 193.326,198.477 193.733,202.382 193.315 L 203.945 193.148 203.945 188.317 L 203.945 183.486 203.251 183.076 C 202.667 182.731,201.893 182.665,198.409 182.662 C 193.836 182.657,191.297 182.279,190.441 181.475 C 190.158 181.209,189.708 180.992,189.441 180.992 C 188.758 180.992,187.009 179.670,186.662 178.892 C 186.441 178.397,186.342 169.706,186.245 142.259 C 186.176 122.469,186.095 106.249,186.066 106.216 C 186.037 106.184,183.340 106.157,180.074 106.157 L 174.134 106.157 173.725 106.934 M310.699 106.395 C 310.436 106.508,309.938 106.661,309.592 106.735 C 308.637 106.938,308.674 105.204,308.670 150.533 L 308.667 193.116 310.496 193.270 C 312.768 193.462,320.317 193.468,321.024 193.278 L 321.547 193.138 321.622 184.376 L 321.698 175.613 322.475 174.465 C 322.902 173.833,323.410 173.026,323.603 172.671 C 323.797 172.317,324.599 171.341,325.386 170.503 C 326.174 169.665,326.849 168.912,326.888 168.829 C 327.069 168.440,329.012 167.125,329.406 167.125 C 329.651 167.125,329.980 166.996,330.137 166.838 C 330.323 166.653,330.424 166.642,330.424 166.807 C 330.424 166.948,330.855 167.133,331.381 167.217 C 331.907 167.301,332.337 167.453,332.337 167.554 C 332.337 167.656,332.633 167.915,332.995 168.130 C 333.666 168.530,334.602 170.101,334.829 171.208 C 334.899 171.547,335.202 171.937,335.502 172.074 C 336.058 172.327,336.250 172.625,337.087 174.543 C 337.347 175.138,337.784 175.828,338.059 176.076 C 338.645 176.607,339.271 177.787,339.271 178.364 C 339.271 178.588,339.562 179.082,339.918 179.463 C 340.726 180.328,341.901 182.582,341.901 183.269 C 341.901 183.572,342.123 183.886,342.441 184.031 C 342.739 184.166,343.128 184.587,343.306 184.966 C 343.484 185.345,343.723 185.838,343.837 186.062 C 343.951 186.287,344.109 186.881,344.190 187.383 C 344.297 188.055,344.535 188.428,345.091 188.795 C 345.607 189.136,345.981 189.683,346.275 190.525 C 346.511 191.203,347.045 192.105,347.461 192.531 L 348.217 193.305 353.846 193.387 C 363.784 193.531,364.435 193.396,362.892 191.512 C 362.515 191.052,362.093 190.534,361.953 190.362 C 361.813 190.189,361.596 189.675,361.470 189.220 C 361.344 188.765,360.883 188.066,360.444 187.667 C 359.952 187.219,359.441 186.376,359.108 185.461 C 358.763 184.514,358.237 183.658,357.647 183.085 C 357.129 182.581,356.721 181.952,356.716 181.650 C 356.711 181.354,356.172 180.412,355.518 179.558 C 354.814 178.637,354.271 177.651,354.186 177.139 C 354.077 176.478,353.874 176.197,353.320 175.944 C 352.795 175.704,352.478 175.298,352.169 174.467 C 351.934 173.836,351.483 173.117,351.167 172.869 C 350.631 172.447,349.313 170.218,349.313 169.733 C 349.313 169.614,348.882 169.085,348.356 168.559 C 347.830 168.033,347.400 167.397,347.400 167.146 C 347.400 166.894,346.856 166.037,346.191 165.242 C 345.420 164.320,344.931 163.483,344.842 162.936 C 344.746 162.342,344.460 161.892,343.915 161.476 C 343.479 161.144,343.058 160.563,342.974 160.177 C 342.889 159.794,342.721 159.418,342.600 159.343 C 342.478 159.268,342.379 158.899,342.379 158.522 C 342.379 158.145,342.126 157.533,341.817 157.161 C 340.509 155.590,340.422 154.925,341.406 154.021 C 341.791 153.667,342.307 152.863,342.552 152.235 C 342.878 151.400,343.216 150.983,343.812 150.681 C 344.334 150.417,344.689 150.026,344.802 149.591 C 344.899 149.218,345.497 148.352,346.129 147.667 C 346.762 146.982,347.442 146.172,347.639 145.867 C 347.836 145.562,348.453 144.868,349.010 144.324 C 349.567 143.780,350.024 143.206,350.026 143.048 C 350.028 142.890,350.471 142.405,351.011 141.972 C 351.551 141.538,352.142 140.894,352.325 140.540 C 352.508 140.186,352.971 139.712,353.353 139.486 C 353.736 139.260,354.271 138.681,354.542 138.199 C 354.812 137.717,355.414 137.118,355.879 136.868 C 356.344 136.617,356.724 136.259,356.724 136.071 C 356.724 135.587,357.881 134.130,358.265 134.130 C 358.441 134.130,358.754 133.709,358.960 133.195 C 359.166 132.680,359.574 132.091,359.868 131.885 C 360.471 131.463,360.471 131.464,359.426 130.933 C 358.782 130.606,357.747 130.544,352.892 130.544 L 347.123 130.544 345.710 131.201 C 344.643 131.698,344.296 131.982,344.294 132.363 C 344.292 132.865,342.890 134.898,342.299 135.256 C 342.127 135.360,341.725 135.920,341.406 136.499 C 341.086 137.079,340.614 137.671,340.357 137.814 C 339.633 138.218,339.271 138.607,339.271 138.980 C 339.271 139.440,338.184 140.586,337.747 140.586 C 337.553 140.586,337.269 140.967,337.115 141.433 C 336.962 141.899,336.388 142.742,335.842 143.307 C 335.295 143.871,334.579 144.735,334.250 145.226 C 333.921 145.718,333.514 146.247,333.345 146.401 C 332.368 147.296,332.056 147.695,331.689 148.523 C 331.531 148.878,331.124 149.350,330.785 149.573 C 330.445 149.795,329.951 150.450,329.688 151.028 C 329.373 151.720,328.947 152.205,328.442 152.448 C 328.020 152.651,327.513 153.158,327.316 153.574 C 326.820 154.622,326.032 154.968,324.378 154.866 C 321.451 154.684,321.601 156.030,321.588 129.743 C 321.579 110.043,321.538 107.699,321.192 106.970 L 320.806 106.157 315.992 106.173 C 313.344 106.182,310.962 106.282,310.699 106.395 M271.967 129.758 C 270.645 130.146,269.768 130.352,266.975 130.932 C 265.938 131.147,264.915 131.497,264.701 131.710 C 263.796 132.610,262.878 133.188,261.972 133.433 C 261.440 133.576,260.806 133.946,260.562 134.256 C 259.405 135.727,257.390 134.809,256.025 132.191 C 255.200 130.609,254.958 130.544,249.843 130.544 C 245.395 130.544,244.517 130.667,244.056 131.357 C 243.960 131.501,243.879 145.458,243.877 162.372 L 243.873 193.123 244.770 193.272 C 245.939 193.465,253.435 193.464,255.046 193.271 L 256.296 193.121 256.361 172.842 C 256.411 157.009,256.491 152.499,256.724 152.265 C 256.889 152.101,257.023 151.638,257.023 151.237 C 257.021 149.193,258.289 146.085,259.124 146.085 C 259.263 146.085,259.444 145.776,259.527 145.398 C 259.710 144.563,260.499 143.787,261.387 143.566 C 261.748 143.476,262.044 143.279,262.044 143.127 C 262.044 141.645,269.368 140.393,272.776 141.292 C 273.251 141.418,273.909 141.576,274.238 141.643 C 274.567 141.711,275.266 142.144,275.792 142.606 C 276.318 143.068,276.813 143.448,276.891 143.450 C 277.092 143.457,278.063 144.318,278.063 144.489 C 278.063 144.567,278.486 145.075,279.003 145.618 C 279.850 146.509,279.957 146.762,280.087 148.198 C 280.257 150.074,280.629 151.584,280.920 151.584 C 281.816 151.584,281.889 153.220,281.889 173.489 L 281.889 193.157 282.964 193.318 C 284.404 193.534,293.997 193.351,294.245 193.103 C 294.599 192.749,294.487 149.043,294.128 147.400 C 293.956 146.611,293.546 144.728,293.217 143.216 C 292.328 139.132,292.181 138.662,291.738 138.494 C 291.084 138.247,290.711 137.768,290.457 136.850 C 290.267 136.162,290.033 135.916,289.285 135.623 C 288.601 135.354,288.274 135.046,288.068 134.476 C 287.859 133.899,287.601 133.659,287.076 133.554 C 286.686 133.476,285.710 132.924,284.906 132.327 C 284.103 131.729,283.230 131.201,282.966 131.152 C 279.908 130.588,276.897 129.869,276.333 129.569 C 275.731 129.249,273.353 129.352,271.967 129.758 M216.496 131.082 C 216.425 131.378,216.396 145.499,216.432 162.463 L 216.497 193.305 221.279 193.379 C 223.909 193.419,226.733 193.383,227.555 193.300 L 229.050 193.148 229.050 162.218 L 229.050 131.288 228.518 130.916 C 228.073 130.605,227.061 130.544,222.306 130.544 L 216.626 130.544 216.496 131.082 " stroke="none" fill="#0464a4" fill-rule="evenodd"></path><path id="path1" d="M134.848 104.447 C 132.442 104.895,132.611 102.211,132.524 141.303 C 132.435 181.285,132.382 180.047,134.363 184.207 C 135.042 185.631,135.724 186.924,135.880 187.080 C 136.035 187.236,136.485 187.784,136.880 188.298 C 137.992 189.748,139.559 191.130,140.785 191.743 C 141.399 192.050,142.170 192.451,142.499 192.635 C 145.323 194.215,147.595 194.435,160.072 194.336 C 172.048 194.241,172.536 194.038,169.289 190.512 C 168.869 190.057,168.346 189.073,167.597 187.328 C 167.314 186.671,166.823 185.601,166.506 184.950 C 166.189 184.300,165.929 183.647,165.929 183.500 C 165.929 183.252,164.804 180.774,164.674 180.736 C 164.641 180.726,161.918 180.631,158.623 180.525 C 149.686 180.237,149.342 179.997,148.940 173.758 C 148.827 172.016,148.729 156.067,148.722 138.314 C 148.707 103.733,148.747 105.175,147.798 104.702 C 147.107 104.358,136.452 104.148,134.848 104.447 M31.297 109.334 L 30.484 109.881 30.361 118.957 C 30.210 130.081,30.173 130.185,26.300 130.486 C 23.804 130.679,23.428 131.541,23.436 137.036 C 23.444 141.972,23.967 142.977,26.528 142.977 C 27.402 142.977,28.002 143.139,28.659 143.554 C 30.440 144.679,30.365 143.861,30.365 162.062 C 30.365 172.819,30.453 178.757,30.624 179.599 C 31.192 182.384,31.649 183.785,32.365 184.938 C 32.777 185.601,33.323 186.551,33.578 187.049 C 34.553 188.952,37.023 191.068,39.999 192.549 C 43.578 194.329,44.618 194.425,59.414 194.331 L 70.412 194.262 71.319 193.698 L 72.226 193.134 71.080 191.896 C 68.443 189.046,67.078 187.152,65.762 184.512 C 65.318 183.620,64.504 182.393,63.953 181.785 L 62.952 180.679 56.640 180.487 C 49.366 180.267,47.579 179.850,47.579 178.373 C 47.579 178.157,47.445 177.845,47.280 177.681 C 47.048 177.449,46.966 173.750,46.914 161.183 L 46.846 144.983 47.573 143.980 L 48.299 142.977 51.951 142.977 C 55.790 142.977,55.997 142.928,57.198 141.726 C 57.952 140.972,58.099 140.184,58.099 136.907 C 58.099 130.988,57.692 130.544,52.262 130.544 L 48.531 130.544 47.756 129.804 L 46.981 129.063 46.909 119.612 C 46.828 109.140,46.931 109.760,45.168 109.138 C 43.308 108.482,32.332 108.637,31.297 109.334 M89.301 128.387 C 85.646 129.171,81.436 131.045,78.695 133.108 C 77.422 134.066,73.813 137.829,73.390 138.639 C 73.140 139.118,72.610 139.866,72.212 140.302 C 71.814 140.737,71.488 141.205,71.488 141.341 C 71.488 141.662,70.921 142.994,70.079 144.650 C 69.400 145.986,69.181 146.709,68.485 149.910 C 68.271 150.897,67.994 152.026,67.871 152.421 C 67.242 154.429,66.853 161.396,67.159 165.184 C 67.420 168.410,67.693 170.088,68.857 175.613 C 69.245 177.451,69.698 178.830,70.054 179.252 C 70.251 179.486,70.675 180.323,70.996 181.112 C 71.317 181.901,71.721 182.689,71.894 182.864 C 72.067 183.039,72.763 184.032,73.440 185.071 C 74.117 186.110,74.869 187.024,75.112 187.101 C 75.354 187.178,75.553 187.325,75.553 187.429 C 75.553 187.715,76.541 188.706,77.340 189.222 C 77.731 189.474,78.161 189.768,78.296 189.876 C 79.364 190.724,80.095 191.210,80.813 191.547 C 81.273 191.763,82.564 192.374,83.682 192.904 C 85.215 193.631,86.331 193.963,88.225 194.258 C 89.605 194.473,91.189 194.751,91.743 194.875 C 93.488 195.267,98.964 195.399,101.136 195.103 C 108.151 194.146,109.679 193.785,111.656 192.616 C 111.984 192.422,112.980 191.924,113.867 191.509 C 114.755 191.094,115.481 190.667,115.481 190.559 C 115.481 190.451,115.982 190.069,116.594 189.710 C 117.608 189.116,118.467 188.418,120.272 186.719 C 120.862 186.165,120.908 185.994,120.797 184.807 L 120.674 183.503 117.717 180.634 C 113.178 176.228,111.895 175.242,111.895 176.156 C 111.895 176.258,111.491 176.554,110.998 176.814 C 110.505 177.074,109.994 177.370,109.863 177.471 C 107.765 179.095,106.262 179.823,103.646 180.483 C 103.120 180.616,102.132 180.892,101.449 181.097 C 100.053 181.517,96.209 181.603,95.056 181.239 C 94.652 181.112,93.676 180.830,92.887 180.614 C 90.334 179.912,89.489 179.528,88.429 178.590 C 86.581 176.955,85.889 176.153,85.361 175.035 C 85.076 174.432,84.624 173.509,84.357 172.983 C 83.395 171.089,82.911 168.769,83.412 168.459 C 83.527 168.388,83.682 168.019,83.758 167.639 C 83.976 166.553,83.942 166.555,103.690 166.469 L 122.382 166.389 123.116 165.553 L 123.849 164.717 123.830 160.721 C 123.820 158.523,123.725 155.864,123.619 154.812 C 123.229 150.935,122.873 148.344,122.666 147.878 C 122.549 147.615,122.190 146.808,121.869 146.085 C 121.547 145.362,121.085 144.232,120.842 143.574 C 119.934 141.120,117.421 137.469,115.123 135.266 C 111.866 132.146,110.220 131.105,106.276 129.676 C 101.374 127.898,94.138 127.349,89.301 128.387 M99.342 142.057 C 100.260 142.298,101.602 142.908,101.853 143.198 C 101.919 143.274,102.433 143.649,102.996 144.031 C 103.559 144.413,104.416 145.273,104.901 145.943 C 105.385 146.613,105.853 147.215,105.940 147.280 C 106.269 147.529,107.388 151.338,107.426 152.336 C 107.475 153.642,106.794 155.122,106.004 155.422 C 105.338 155.675,86.804 155.740,85.019 155.495 C 83.158 155.240,82.397 152.207,83.602 149.845 C 85.779 145.579,85.931 145.352,87.254 144.362 C 87.985 143.815,88.637 143.295,88.703 143.207 C 88.817 143.055,89.944 142.520,90.974 142.129 C 92.338 141.612,97.480 141.567,99.342 142.057 " stroke="none" fill="#e53d37" fill-rule="evenodd"></path><path id="path2" d="M0.000 119.546 L 0.000 239.091 200.000 239.091 L 400.000 239.091 400.000 119.546 L 400.000 0.000 200.000 0.000 L 0.000 0.000 0.000 119.546 M226.637 51.854 C 227.085 52.067,227.570 52.455,227.713 52.716 C 228.033 53.299,228.807 54.035,229.100 54.035 C 229.754 54.035,230.299 56.283,230.282 58.919 C 230.262 62.080,229.967 62.960,228.545 64.106 C 227.994 64.550,227.192 65.212,226.763 65.578 C 225.801 66.396,223.826 67.010,222.710 66.836 C 222.252 66.765,221.490 66.646,221.017 66.572 C 220.543 66.498,219.868 66.149,219.512 65.795 C 219.158 65.441,218.479 64.953,218.006 64.710 C 217.532 64.466,216.947 63.901,216.707 63.454 C 216.466 63.008,216.180 62.642,216.072 62.642 C 214.991 62.642,214.811 56.473,215.858 55.317 C 216.081 55.072,216.637 54.387,217.094 53.796 C 218.180 52.389,218.282 52.295,219.127 51.907 C 220.811 51.135,225.063 51.105,226.637 51.854 M226.420 71.184 C 226.748 71.387,227.300 71.834,227.645 72.178 C 227.991 72.522,228.561 73.001,228.913 73.243 C 229.266 73.484,229.829 74.291,230.165 75.036 C 230.501 75.781,231.033 76.888,231.347 77.498 C 232.137 79.029,232.014 81.226,231.087 82.156 C 230.940 82.303,230.673 82.895,230.492 83.471 C 230.062 84.840,229.214 85.980,228.490 86.162 C 228.172 86.241,227.858 86.512,227.792 86.763 C 227.386 88.317,221.163 88.974,218.982 87.695 C 214.245 84.914,212.953 77.454,216.544 73.615 C 217.146 72.972,217.785 72.445,217.965 72.445 C 218.144 72.445,218.290 72.346,218.290 72.225 C 218.290 70.880,224.611 70.071,226.420 71.184 M224.387 93.485 C 224.469 93.616,224.948 93.724,225.452 93.724 C 227.094 93.724,229.456 94.604,229.920 95.390 C 230.146 95.773,230.679 96.273,231.104 96.502 C 231.838 96.897,232.602 98.092,232.998 99.462 C 233.093 99.791,233.311 100.221,233.483 100.418 C 234.740 101.864,234.798 107.205,233.564 107.967 C 233.434 108.048,233.069 108.697,232.754 109.411 C 231.792 111.585,228.139 114.764,226.602 114.764 C 226.461 114.764,225.756 115.043,225.034 115.385 C 223.511 116.105,221.785 116.046,220.551 115.233 C 220.162 114.977,219.659 114.766,219.433 114.765 C 217.931 114.760,215.212 112.797,214.551 111.242 C 214.371 110.817,213.968 110.302,213.656 110.098 C 211.833 108.903,211.590 100.802,213.308 98.506 C 213.554 98.177,213.942 97.657,214.170 97.351 C 216.051 94.822,217.907 93.733,220.357 93.720 C 220.733 93.718,221.201 93.612,221.399 93.485 C 221.872 93.179,224.198 93.179,224.387 93.485 M186.664 103.209 C 188.396 104.031,188.270 101.394,188.411 139.868 C 188.543 175.841,188.511 174.717,189.482 176.689 C 189.644 177.017,189.902 177.675,190.054 178.150 C 190.401 179.226,190.967 179.309,198.182 179.339 C 206.057 179.371,206.692 179.558,207.303 182.023 C 207.797 184.013,207.891 192.980,207.422 193.243 C 207.219 193.356,207.053 193.595,207.053 193.774 C 207.053 194.358,205.653 195.296,204.366 195.575 C 201.586 196.176,183.749 195.525,181.590 194.743 C 180.340 194.290,179.420 193.804,179.244 193.504 C 179.137 193.323,178.585 192.956,178.017 192.689 C 177.000 192.211,174.298 189.643,174.298 189.154 C 174.298 189.016,173.873 188.456,173.355 187.911 C 172.836 187.366,172.342 186.601,172.256 186.212 C 172.075 185.387,171.756 184.742,171.017 183.711 C 169.758 181.954,169.755 181.856,169.755 142.117 C 169.755 100.863,169.605 104.119,171.531 103.419 C 172.980 102.892,173.199 102.877,179.761 102.842 C 184.976 102.814,185.939 102.865,186.664 103.209 M323.542 103.401 C 325.387 104.326,325.275 102.799,325.357 128.153 C 325.420 147.578,325.476 150.640,325.759 149.983 C 325.986 149.453,326.439 149.049,327.230 148.668 C 328.068 148.263,328.418 147.938,328.546 147.442 C 328.728 146.732,329.576 145.846,330.072 145.846 C 330.233 145.846,330.431 145.512,330.513 145.103 C 330.641 144.462,331.588 143.128,333.114 141.437 C 333.344 141.182,333.533 140.882,333.533 140.771 C 333.533 140.659,334.017 140.097,334.608 139.522 C 335.200 138.947,335.684 138.311,335.684 138.108 C 335.684 137.905,336.169 137.407,336.760 136.999 C 337.352 136.592,337.836 136.111,337.836 135.930 C 337.836 135.478,339.002 134.130,339.393 134.130 C 339.568 134.130,339.828 133.779,339.969 133.350 C 340.111 132.920,340.711 132.100,341.303 131.526 C 341.895 130.953,342.379 130.391,342.379 130.277 C 342.379 130.164,342.533 129.882,342.721 129.650 C 344.955 126.900,344.703 126.958,354.485 126.958 C 364.136 126.958,365.332 127.209,365.332 129.239 C 365.332 129.761,364.533 132.218,364.363 132.218 C 364.087 132.218,362.502 133.869,362.360 134.304 C 362.284 134.537,361.841 134.974,361.377 135.274 C 360.912 135.574,360.433 136.080,360.312 136.397 C 360.192 136.715,359.792 137.163,359.425 137.393 C 358.569 137.930,358.130 138.403,357.672 139.282 C 357.470 139.670,357.021 140.124,356.674 140.291 C 356.276 140.483,355.895 140.983,355.641 141.648 C 355.363 142.376,355.031 142.787,354.563 142.981 C 354.191 143.135,353.785 143.547,353.660 143.896 C 353.536 144.245,352.910 145.095,352.270 145.784 C 351.630 146.473,350.837 147.352,350.508 147.736 C 349.873 148.479,346.143 152.521,344.811 153.910 C 343.983 154.773,343.863 156.919,344.619 157.361 C 345.354 157.791,345.919 158.480,346.174 159.255 C 346.328 159.727,346.783 160.426,347.184 160.809 C 347.585 161.193,348.215 162.122,348.582 162.874 C 348.950 163.627,349.627 164.618,350.087 165.078 C 350.547 165.538,350.988 166.239,351.068 166.635 C 351.147 167.031,351.487 167.595,351.823 167.887 C 352.485 168.463,353.616 170.333,353.616 170.853 C 353.616 171.029,353.966 171.527,354.393 171.959 C 354.821 172.390,355.427 173.372,355.740 174.140 C 356.053 174.907,356.663 175.922,357.096 176.394 C 357.528 176.865,358.008 177.704,358.163 178.257 C 358.332 178.860,358.711 179.460,359.111 179.756 C 359.477 180.027,360.010 180.730,360.296 181.320 C 360.581 181.909,361.138 182.749,361.533 183.186 C 361.928 183.623,362.529 184.550,362.868 185.245 C 363.206 185.940,363.688 186.619,363.939 186.753 C 364.355 186.975,365.571 189.248,365.571 189.803 C 365.571 189.932,365.900 190.342,366.302 190.715 C 368.347 192.609,367.929 194.548,365.281 195.446 C 364.319 195.773,363.000 195.817,356.196 195.751 C 346.684 195.660,345.311 195.424,344.771 193.788 C 344.634 193.371,344.205 192.796,343.820 192.511 C 343.373 192.181,343.061 191.687,342.961 191.152 C 342.874 190.690,342.708 190.253,342.591 190.180 C 342.474 190.108,342.379 189.841,342.379 189.586 C 342.379 189.331,341.962 188.680,341.452 188.139 C 340.943 187.598,340.406 186.753,340.258 186.262 C 340.111 185.772,339.684 185.049,339.309 184.656 C 338.933 184.263,338.325 183.306,337.957 182.528 C 337.590 181.750,336.928 180.753,336.486 180.312 C 336.045 179.871,335.684 179.331,335.684 179.112 C 335.684 178.584,334.838 177.025,334.146 176.279 C 333.842 175.951,333.453 175.236,333.283 174.691 C 332.997 173.776,331.293 171.171,330.864 170.993 C 330.762 170.950,330.606 170.531,330.518 170.061 L 330.358 169.206 329.917 170.113 C 329.674 170.612,329.172 171.301,328.802 171.643 C 327.959 172.423,326.472 174.488,326.261 175.172 C 326.174 175.456,325.945 175.748,325.753 175.822 C 325.455 175.936,325.403 177.228,325.403 184.523 L 325.403 193.090 324.753 194.093 C 324.246 194.876,323.917 195.127,323.259 195.232 C 322.795 195.307,322.168 195.469,321.866 195.592 C 321.217 195.856,308.744 195.898,308.627 195.637 C 308.583 195.538,308.225 195.292,307.830 195.090 C 306.432 194.374,306.496 196.727,306.568 148.844 C 306.642 99.889,306.490 104.085,308.228 103.200 C 309.460 102.573,322.227 102.740,323.542 103.401 M148.237 103.832 C 149.765 104.596,149.670 102.156,149.671 141.012 C 149.671 178.950,149.606 176.966,150.896 178.393 C 151.981 179.592,152.277 179.644,158.631 179.754 C 165.388 179.870,165.409 179.875,166.208 181.688 C 166.474 182.292,167.004 183.437,167.386 184.234 C 167.769 185.031,168.081 185.813,168.081 185.971 C 168.081 186.129,168.180 186.446,168.300 186.674 C 168.421 186.902,168.651 187.443,168.812 187.876 C 168.973 188.310,169.412 188.993,169.788 189.396 C 170.164 189.799,170.472 190.229,170.472 190.352 C 170.472 190.591,170.526 190.666,171.674 192.039 C 172.466 192.986,172.430 193.399,171.488 194.142 C 170.270 195.104,170.338 195.099,159.059 195.090 C 146.201 195.080,143.835 194.845,141.708 193.363 C 141.339 193.106,140.425 192.587,139.676 192.210 C 138.700 191.719,137.976 191.100,137.120 190.024 C 136.463 189.199,135.808 188.416,135.663 188.285 C 135.179 187.845,134.441 186.617,134.294 186.008 C 134.214 185.677,133.931 185.172,133.665 184.887 C 131.874 182.964,131.902 183.610,131.814 142.590 C 131.728 102.343,131.642 104.934,133.096 103.975 C 133.948 103.414,147.150 103.289,148.237 103.832 M45.596 108.429 C 47.640 109.036,47.577 108.710,47.598 118.641 C 47.610 124.662,47.704 127.609,47.904 128.273 L 48.191 129.229 52.129 129.348 C 58.764 129.550,58.904 129.692,59.014 136.328 C 59.133 143.554,58.593 144.166,52.100 144.170 L 48.372 144.172 47.962 144.949 C 47.284 146.236,47.481 176.627,48.177 177.972 C 48.947 179.461,49.605 179.596,56.665 179.718 C 60.154 179.777,63.043 179.932,63.420 180.078 C 64.034 180.317,66.228 182.550,66.228 182.936 C 66.228 183.379,67.701 186.198,68.219 186.748 C 68.538 187.086,68.867 187.576,68.950 187.837 C 69.092 188.285,69.452 188.705,72.238 191.674 C 73.441 192.958,73.510 193.320,72.699 194.124 C 71.737 195.077,71.414 195.099,58.387 195.090 C 44.200 195.081,41.261 194.837,39.689 193.539 C 39.492 193.377,38.701 192.939,37.933 192.567 C 37.164 192.195,36.303 191.629,36.020 191.309 C 35.737 190.990,35.101 190.333,34.607 189.850 C 33.685 188.948,32.277 186.905,32.277 186.469 C 32.277 186.334,31.956 185.825,31.564 185.337 C 31.107 184.768,30.710 183.850,30.459 182.780 C 30.244 181.863,29.896 180.574,29.686 179.916 C 29.356 178.881,29.295 176.506,29.225 162.191 L 29.145 145.662 28.327 144.917 C 27.625 144.278,27.326 144.172,26.230 144.172 C 23.365 144.172,22.616 142.440,22.768 136.176 C 22.914 130.213,23.364 129.353,26.344 129.345 C 29.006 129.337,29.169 128.699,29.169 118.306 L 29.170 110.102 29.737 109.442 C 30.776 108.234,31.591 108.105,38.271 108.086 C 43.058 108.073,44.647 108.147,45.596 108.429 M278.036 126.470 C 278.511 126.596,279.868 126.877,281.052 127.094 C 283.181 127.484,285.714 128.459,285.714 128.888 C 285.714 129.010,285.828 129.109,285.966 129.109 C 286.631 129.109,288.320 130.126,289.102 130.997 C 289.582 131.532,290.237 132.088,290.557 132.235 C 290.878 132.381,291.318 132.903,291.535 133.394 C 291.752 133.886,292.255 134.603,292.653 134.987 C 293.353 135.662,294.561 137.826,294.561 138.405 C 294.561 138.561,294.910 139.040,295.338 139.469 C 296.171 140.305,296.554 141.550,296.856 144.411 C 296.946 145.266,297.114 146.026,297.228 146.101 C 298.046 146.635,298.139 149.230,298.131 171.429 L 298.124 193.305 297.239 194.167 C 295.686 195.680,294.946 195.816,288.273 195.816 C 283.576 195.816,282.076 195.737,280.978 195.432 C 278.595 194.769,278.781 196.615,278.781 173.578 C 278.781 152.607,278.680 150.100,277.815 149.494 C 277.568 149.321,277.066 148.645,276.699 147.991 C 276.332 147.338,275.950 146.803,275.850 146.802 C 275.751 146.802,275.428 146.524,275.133 146.184 C 273.285 144.053,264.791 144.180,263.257 146.361 C 262.919 146.842,262.373 147.398,262.044 147.597 C 261.439 147.962,261.051 148.901,260.544 151.225 C 260.371 152.019,260.257 159.264,260.204 172.767 L 260.124 193.113 259.231 194.079 C 257.773 195.655,256.933 195.816,250.144 195.816 C 243.512 195.816,242.104 195.590,241.249 194.389 C 240.611 193.494,240.472 130.347,241.104 128.835 C 241.858 127.030,241.625 127.077,249.827 127.077 C 258.094 127.077,258.050 127.068,258.842 128.862 C 259.457 130.257,261.137 130.093,263.968 128.360 C 264.968 127.749,265.882 127.443,267.674 127.118 C 268.983 126.882,270.323 126.599,270.652 126.490 C 271.496 126.209,276.998 126.194,278.036 126.470 M99.805 127.205 C 103.178 127.479,104.718 127.816,106.935 128.769 C 110.051 130.107,111.019 130.631,111.824 131.412 C 112.280 131.855,112.810 132.218,113.001 132.218 C 113.432 132.218,118.828 137.608,118.828 138.037 C 118.828 138.208,119.190 138.771,119.632 139.288 C 120.408 140.196,121.697 142.686,121.698 143.283 C 121.699 143.443,121.928 143.949,122.207 144.407 C 123.032 145.761,123.380 147.001,123.750 149.910 C 123.942 151.423,124.209 153.198,124.343 153.855 C 124.939 156.774,125.073 158.359,125.002 161.621 C 124.918 165.418,124.828 165.689,123.212 166.960 L 122.546 167.484 104.250 167.603 L 85.953 167.723 84.937 168.383 C 83.742 169.160,83.737 169.192,84.544 170.927 C 85.447 172.867,85.551 173.139,85.718 173.992 C 85.871 174.772,88.540 177.884,89.056 177.884 C 89.198 177.884,89.473 178.106,89.666 178.377 C 91.107 180.398,103.420 180.847,105.998 178.973 C 106.282 178.767,107.268 178.092,108.189 177.473 C 109.109 176.855,109.917 176.274,109.983 176.182 C 110.888 174.923,113.239 174.767,114.092 175.910 C 114.264 176.141,114.823 176.643,115.334 177.024 C 115.845 177.406,116.437 178.022,116.649 178.393 C 116.861 178.764,117.385 179.256,117.812 179.487 C 118.240 179.717,118.589 179.996,118.589 180.107 C 118.589 180.218,119.276 180.974,120.114 181.786 C 121.722 183.344,122.379 185.221,121.736 186.418 C 121.231 187.357,118.236 190.027,117.462 190.227 C 117.171 190.303,116.874 190.550,116.802 190.778 C 116.729 191.005,116.214 191.414,115.657 191.685 C 113.681 192.648,112.241 193.368,111.251 193.889 C 110.238 194.423,108.317 194.896,105.923 195.202 C 105.204 195.293,104.504 195.455,104.369 195.561 C 102.957 196.670,91.896 196.666,90.484 195.556 C 90.346 195.447,89.754 195.296,89.169 195.218 C 85.680 194.758,83.611 194.181,82.367 193.322 C 81.973 193.050,81.127 192.643,80.488 192.418 C 79.850 192.192,78.950 191.708,78.489 191.342 C 78.028 190.975,77.260 190.416,76.781 190.099 C 76.303 189.782,75.789 189.351,75.640 189.142 C 75.491 188.932,74.872 188.242,74.265 187.609 C 73.659 186.975,73.162 186.319,73.162 186.149 C 73.162 185.980,72.729 185.349,72.200 184.748 C 71.670 184.147,70.967 183.043,70.636 182.295 C 70.305 181.547,69.770 180.588,69.446 180.163 C 69.122 179.739,68.686 178.649,68.475 177.741 C 68.110 176.164,67.207 172.972,66.622 171.189 C 66.436 170.622,66.348 167.581,66.348 161.745 L 66.348 153.138 66.994 151.225 C 67.349 150.173,67.916 148.244,68.253 146.939 C 68.597 145.607,69.115 144.240,69.431 143.825 C 69.742 143.418,70.197 142.506,70.443 141.798 C 70.689 141.090,71.294 140.075,71.787 139.543 C 72.280 139.010,72.684 138.439,72.684 138.273 C 72.684 137.586,77.606 132.434,78.807 131.863 C 79.217 131.668,79.697 131.334,79.875 131.119 C 80.264 130.651,82.692 129.446,83.688 129.228 C 84.079 129.142,84.399 128.996,84.399 128.904 C 84.399 128.811,84.749 128.598,85.176 128.429 C 88.406 127.152,93.701 126.709,99.805 127.205 M229.987 127.193 C 232.819 127.730,232.630 125.238,232.633 162.009 L 232.636 193.354 232.090 194.167 C 231.205 195.482,230.141 195.668,222.972 195.756 C 217.786 195.819,216.648 195.772,216.002 195.465 C 215.577 195.264,215.170 195.099,215.098 195.099 C 215.025 195.099,214.583 194.704,214.114 194.222 L 213.263 193.345 213.326 161.526 L 213.389 129.707 214.101 128.656 C 214.493 128.079,215.138 127.464,215.536 127.291 C 216.421 126.905,228.054 126.827,229.987 127.193 M94.800 142.423 C 92.424 142.622,90.756 143.028,90.023 143.587 C 89.601 143.909,89.131 144.172,88.979 144.172 C 88.827 144.172,88.698 144.253,88.692 144.351 C 88.686 144.450,88.167 144.897,87.539 145.344 C 86.911 145.791,86.275 146.437,86.125 146.778 C 85.976 147.120,85.620 147.938,85.336 148.595 C 85.051 149.253,84.657 149.976,84.459 150.202 C 84.261 150.429,84.012 151.074,83.906 151.637 C 83.363 154.524,84.031 154.692,96.026 154.692 L 105.333 154.692 105.805 154.154 C 106.767 153.056,106.181 148.956,104.857 147.519 C 104.554 147.191,104.105 146.599,103.860 146.204 C 103.258 145.238,103.075 145.077,102.032 144.594 C 101.539 144.366,101.136 144.090,101.136 143.979 C 101.136 143.593,99.090 142.786,97.691 142.621 C 96.914 142.530,96.161 142.430,96.018 142.399 C 95.874 142.368,95.326 142.379,94.800 142.423 " stroke="none" fill="#fbfbfb" fill-rule="evenodd"></path><path id="path3" d="M221.160 52.917 C 218.871 54.120,217.573 55.340,217.573 56.290 C 217.573 56.575,217.443 56.939,217.283 57.098 C 216.116 58.266,217.680 63.213,219.459 63.979 C 219.934 64.184,220.646 64.496,221.040 64.672 C 222.266 65.221,223.622 65.259,224.648 64.774 C 225.162 64.531,225.716 64.328,225.880 64.324 C 227.165 64.289,229.030 61.259,229.074 59.137 C 229.159 55.000,224.365 51.233,221.160 52.917 M224.211 54.739 C 224.440 54.863,225.029 55.029,225.521 55.108 C 226.249 55.224,226.442 55.372,226.555 55.898 C 226.631 56.254,226.864 56.951,227.074 57.448 C 227.468 58.384,227.429 58.818,226.661 61.965 L 226.389 63.082 224.587 63.251 C 219.950 63.686,218.530 62.715,218.530 59.114 C 218.530 56.466,218.841 55.832,220.414 55.268 C 222.443 54.540,223.561 54.385,224.211 54.739 M219.969 73.188 C 219.117 73.589,218.257 74.135,218.057 74.402 C 217.856 74.669,217.413 75.226,217.070 75.639 C 215.985 76.948,215.821 77.478,215.831 79.638 C 215.842 81.947,215.914 82.117,217.892 84.519 C 218.744 85.554,221.385 86.790,222.745 86.790 C 223.845 86.790,226.093 86.135,226.726 85.630 C 229.293 83.580,229.884 82.285,229.716 79.072 C 229.444 73.870,224.658 70.981,219.969 73.188 M225.974 74.615 C 226.189 74.729,226.436 75.108,226.523 75.456 C 226.695 76.140,227.195 76.748,227.584 76.748 C 228.782 76.748,229.043 81.380,227.882 82.040 C 227.505 82.255,227.009 82.854,226.781 83.373 C 226.227 84.628,222.900 85.380,221.111 84.655 C 220.809 84.533,220.274 84.371,219.922 84.296 C 219.519 84.210,219.132 83.871,218.879 83.383 C 218.657 82.956,218.162 81.987,217.779 81.231 C 217.395 80.475,216.977 79.857,216.849 79.857 C 216.457 79.857,216.592 79.185,217.050 78.854 C 217.288 78.682,217.741 78.005,218.055 77.349 C 218.370 76.693,218.974 75.810,219.399 75.385 C 220.127 74.657,220.429 74.521,221.877 74.267 C 222.699 74.123,225.496 74.360,225.974 74.615 M220.035 94.915 C 218.899 95.158,218.203 95.489,217.605 96.073 C 217.379 96.293,216.894 96.689,216.528 96.952 C 216.162 97.215,215.664 97.806,215.423 98.267 C 215.182 98.727,214.783 99.319,214.537 99.582 C 213.650 100.528,213.389 101.626,213.398 104.363 C 213.408 107.164,213.572 107.717,214.810 109.123 C 215.146 109.505,215.421 109.951,215.421 110.114 C 215.421 110.390,215.868 110.806,217.871 112.392 C 219.592 113.757,224.547 114.164,226.761 113.123 C 234.005 109.718,234.298 99.899,227.288 95.463 C 226.249 94.805,222.034 94.487,220.035 94.915 M225.856 95.781 C 226.173 95.866,226.419 96.173,226.502 96.586 C 226.605 97.101,226.881 97.355,227.717 97.700 C 228.574 98.054,228.830 98.296,228.952 98.864 C 229.036 99.259,229.190 99.689,229.294 99.821 C 231.359 102.429,231.404 105.999,229.401 108.308 C 229.230 108.506,228.995 109.040,228.878 109.496 C 228.696 110.204,228.524 110.360,227.693 110.572 C 227.158 110.708,226.568 110.948,226.381 111.105 C 225.095 112.192,221.143 112.046,218.769 110.823 C 218.440 110.654,217.828 110.442,217.409 110.353 C 216.819 110.226,216.614 110.033,216.494 109.489 C 216.312 108.659,215.006 105.985,214.687 105.788 C 214.337 105.571,214.421 103.017,214.793 102.589 C 215.187 102.135,216.283 99.603,216.483 98.685 C 216.588 98.204,216.771 98.027,217.166 98.027 C 217.784 98.027,218.622 97.502,219.486 96.571 C 220.303 95.691,223.872 95.248,225.856 95.781 M172.669 104.866 C 171.097 105.556,171.189 103.194,171.189 142.607 C 171.189 178.780,171.202 179.331,172.035 181.351 C 172.197 181.745,172.629 182.923,172.995 183.968 C 173.361 185.012,173.928 186.168,174.256 186.536 C 174.583 186.904,175.077 187.559,175.352 187.991 C 175.864 188.796,178.627 191.512,178.935 191.512 C 179.029 191.512,180.233 192.055,181.611 192.718 L 184.117 193.924 188.353 194.177 C 195.327 194.593,204.250 194.365,205.076 193.749 L 205.738 193.254 205.807 188.379 C 205.918 180.549,206.071 180.761,200.334 180.756 C 191.895 180.749,189.105 180.194,188.539 178.411 C 188.447 178.121,188.282 177.884,188.172 177.884 C 187.354 177.884,187.330 177.003,187.209 141.184 C 187.104 110.445,187.044 105.947,186.727 105.320 L 186.366 104.603 179.913 104.560 C 174.718 104.526,173.307 104.586,172.669 104.866 M308.436 104.897 C 307.785 105.629,307.751 107.846,307.738 150.508 C 307.728 187.643,307.771 193.126,308.078 193.532 C 309.011 194.766,321.263 194.722,323.192 193.478 L 323.730 193.131 323.730 184.727 C 323.730 175.250,323.831 174.578,325.511 172.947 C 325.978 172.494,326.360 172.037,326.360 171.932 C 326.360 171.720,329.875 168.081,330.079 168.081 C 330.562 168.081,331.658 168.923,332.094 169.630 C 332.381 170.093,332.702 170.472,332.808 170.472 C 332.914 170.472,333.413 171.295,333.916 172.300 C 334.420 173.306,334.950 174.247,335.093 174.392 C 335.343 174.645,335.590 175.081,336.528 176.928 C 336.762 177.388,337.300 178.249,337.723 178.840 C 338.147 179.432,338.575 180.185,338.674 180.514 C 338.867 181.149,339.642 182.388,340.096 182.785 C 340.246 182.917,340.733 183.805,341.177 184.758 C 341.622 185.711,342.059 186.491,342.148 186.491 C 342.238 186.491,342.739 187.325,343.263 188.344 C 344.802 191.341,346.383 193.650,347.104 193.954 C 348.934 194.726,363.878 194.397,365.160 193.557 L 365.796 193.140 365.205 192.271 C 364.880 191.792,364.614 191.316,364.614 191.213 C 364.614 190.971,363.430 189.147,362.872 188.528 C 362.637 188.268,362.383 187.811,362.308 187.512 C 362.233 187.214,362.087 186.970,361.984 186.970 C 361.881 186.970,361.736 186.725,361.661 186.427 C 361.586 186.128,361.312 185.655,361.051 185.376 C 360.791 185.096,360.380 184.506,360.139 184.065 C 359.579 183.042,358.366 181.204,357.988 180.804 C 357.828 180.635,357.416 179.935,357.073 179.250 C 356.730 178.564,356.256 177.788,356.019 177.525 C 355.782 177.262,355.238 176.409,354.810 175.628 C 354.382 174.848,353.857 174.021,353.644 173.791 C 353.432 173.561,352.989 172.855,352.660 172.221 C 352.331 171.588,351.993 171.016,351.907 170.950 C 351.822 170.885,351.192 169.916,350.507 168.799 C 349.822 167.681,349.130 166.659,348.968 166.527 C 348.806 166.396,348.316 165.645,347.880 164.859 C 347.443 164.072,346.938 163.282,346.757 163.101 C 346.577 162.921,346.006 162.001,345.488 161.057 C 344.970 160.114,344.354 159.124,344.120 158.858 C 342.122 156.589,342.399 154.252,345.004 151.378 C 345.676 150.637,346.594 149.600,347.043 149.074 C 348.810 147.003,350.194 145.445,351.153 144.447 C 351.705 143.872,352.404 143.037,352.707 142.591 C 353.010 142.145,353.431 141.725,353.642 141.656 C 353.853 141.588,354.122 141.327,354.240 141.076 C 354.442 140.644,356.137 138.647,357.885 136.780 C 358.326 136.309,359.026 135.501,359.439 134.985 C 359.853 134.469,360.460 133.770,360.789 133.431 C 362.173 132.007,362.463 131.461,362.463 130.281 C 362.463 128.608,362.582 128.631,354.099 128.631 L 346.660 128.631 345.365 129.459 C 344.654 129.914,343.771 130.746,343.404 131.307 C 343.038 131.868,342.388 132.701,341.961 133.159 C 341.533 133.616,341.184 134.068,341.184 134.163 C 341.184 134.258,340.834 134.711,340.406 135.170 C 339.979 135.629,339.468 136.204,339.271 136.448 C 338.475 137.433,336.031 140.479,335.856 140.704 C 335.753 140.836,335.290 141.375,334.826 141.901 C 334.362 142.427,333.828 143.146,333.639 143.500 C 333.451 143.854,333.098 144.284,332.855 144.456 C 332.612 144.629,332.141 145.200,331.808 145.726 C 331.476 146.252,330.961 146.898,330.663 147.161 C 330.366 147.424,329.851 148.069,329.519 148.595 C 328.344 150.454,325.633 153.030,325.132 152.762 C 323.790 152.044,323.860 153.244,323.730 128.619 C 323.600 104.009,323.699 105.577,322.233 104.847 C 321.102 104.282,308.942 104.326,308.436 104.897 M186.066 106.216 C 186.095 106.249,186.176 122.469,186.245 142.259 C 186.342 169.706,186.441 178.397,186.662 178.892 C 187.009 179.670,188.758 180.992,189.441 180.992 C 189.708 180.992,190.158 181.209,190.441 181.475 C 191.297 182.279,193.836 182.657,198.409 182.662 C 201.893 182.665,202.667 182.731,203.251 183.076 L 203.945 183.486 203.945 188.317 L 203.945 193.148 202.382 193.315 C 198.477 193.733,185.763 193.326,185.335 192.770 C 184.880 192.177,183.042 191.286,182.259 191.278 C 181.442 191.270,180.613 190.810,179.383 189.680 C 178.761 189.110,178.174 188.643,178.078 188.643 C 177.525 188.643,175.493 185.835,175.493 185.071 C 175.493 184.811,175.227 184.351,174.902 184.050 C 173.399 182.656,173.481 184.816,173.394 144.411 C 173.321 110.141,173.342 107.659,173.725 106.934 L 174.134 106.157 180.074 106.157 C 183.340 106.157,186.037 106.184,186.066 106.216 M321.192 106.970 C 321.538 107.699,321.579 110.043,321.588 129.743 C 321.601 156.030,321.451 154.684,324.378 154.866 C 326.032 154.968,326.820 154.622,327.316 153.574 C 327.513 153.158,328.020 152.651,328.442 152.448 C 328.947 152.205,329.373 151.720,329.688 151.028 C 329.951 150.450,330.445 149.795,330.785 149.573 C 331.124 149.350,331.531 148.878,331.689 148.523 C 332.056 147.695,332.368 147.296,333.345 146.401 C 333.514 146.247,333.921 145.718,334.250 145.226 C 334.579 144.735,335.295 143.871,335.842 143.307 C 336.388 142.742,336.962 141.899,337.115 141.433 C 337.269 140.967,337.553 140.586,337.747 140.586 C 338.184 140.586,339.271 139.440,339.271 138.980 C 339.271 138.607,339.633 138.218,340.357 137.814 C 340.614 137.671,341.086 137.079,341.406 136.499 C 341.725 135.920,342.127 135.360,342.299 135.256 C 342.890 134.898,344.292 132.865,344.294 132.363 C 344.296 131.982,344.643 131.698,345.710 131.201 L 347.123 130.544 352.892 130.544 C 357.747 130.544,358.782 130.606,359.426 130.933 C 360.471 131.464,360.471 131.463,359.868 131.885 C 359.574 132.091,359.166 132.680,358.960 133.195 C 358.754 133.709,358.441 134.130,358.265 134.130 C 357.881 134.130,356.724 135.587,356.724 136.071 C 356.724 136.259,356.344 136.617,355.879 136.868 C 355.414 137.118,354.812 137.717,354.542 138.199 C 354.271 138.681,353.736 139.260,353.353 139.486 C 352.971 139.712,352.508 140.186,352.325 140.540 C 352.142 140.894,351.551 141.538,351.011 141.972 C 350.471 142.405,350.028 142.890,350.026 143.048 C 350.024 143.206,349.567 143.780,349.010 144.324 C 348.453 144.868,347.836 145.562,347.639 145.867 C 347.442 146.172,346.762 146.982,346.129 147.667 C 345.497 148.352,344.899 149.218,344.802 149.591 C 344.689 150.026,344.334 150.417,343.812 150.681 C 343.216 150.983,342.878 151.400,342.552 152.235 C 342.307 152.863,341.791 153.667,341.406 154.021 C 340.422 154.925,340.509 155.590,341.817 157.161 C 342.126 157.533,342.379 158.145,342.379 158.522 C 342.379 158.899,342.478 159.268,342.600 159.343 C 342.721 159.418,342.889 159.794,342.974 160.177 C 343.058 160.563,343.479 161.144,343.915 161.476 C 344.460 161.892,344.746 162.342,344.842 162.936 C 344.931 163.483,345.420 164.320,346.191 165.242 C 346.856 166.037,347.400 166.894,347.400 167.146 C 347.400 167.397,347.830 168.033,348.356 168.559 C 348.882 169.085,349.313 169.614,349.313 169.733 C 349.313 170.218,350.631 172.447,351.167 172.869 C 351.483 173.117,351.934 173.836,352.169 174.467 C 352.478 175.298,352.795 175.704,353.320 175.944 C 353.874 176.197,354.077 176.478,354.186 177.139 C 354.271 177.651,354.814 178.637,355.518 179.558 C 356.172 180.412,356.711 181.354,356.716 181.650 C 356.721 181.952,357.129 182.581,357.647 183.085 C 358.237 183.658,358.763 184.514,359.108 185.461 C 359.441 186.376,359.952 187.219,360.444 187.667 C 360.883 188.066,361.344 188.765,361.470 189.220 C 361.596 189.675,361.813 190.189,361.953 190.362 C 362.093 190.534,362.515 191.052,362.892 191.512 C 364.435 193.396,363.784 193.531,353.846 193.387 L 348.217 193.305 347.461 192.531 C 347.045 192.105,346.511 191.203,346.275 190.525 C 345.981 189.683,345.607 189.136,345.091 188.795 C 344.535 188.428,344.297 188.055,344.190 187.383 C 344.109 186.881,343.951 186.287,343.837 186.062 C 343.723 185.838,343.484 185.345,343.306 184.966 C 343.128 184.587,342.739 184.166,342.441 184.031 C 342.123 183.886,341.901 183.572,341.901 183.269 C 341.901 182.582,340.726 180.328,339.918 179.463 C 339.562 179.082,339.271 178.588,339.271 178.364 C 339.271 177.787,338.645 176.607,338.059 176.076 C 337.784 175.828,337.347 175.138,337.087 174.543 C 336.250 172.625,336.058 172.327,335.502 172.074 C 335.202 171.937,334.899 171.547,334.829 171.208 C 334.602 170.101,333.666 168.530,332.995 168.130 C 332.633 167.915,332.337 167.656,332.337 167.554 C 332.337 167.453,331.907 167.301,331.381 167.217 C 330.855 167.133,330.424 166.948,330.424 166.807 C 330.424 166.642,330.323 166.653,330.137 166.838 C 329.980 166.996,329.651 167.125,329.406 167.125 C 329.012 167.125,327.069 168.440,326.888 168.829 C 326.849 168.912,326.174 169.665,325.386 170.503 C 324.599 171.341,323.797 172.317,323.603 172.671 C 323.410 173.026,322.902 173.833,322.475 174.465 L 321.698 175.613 321.622 184.376 L 321.547 193.138 321.024 193.278 C 320.317 193.468,312.768 193.462,310.496 193.270 L 308.667 193.116 308.670 150.533 C 308.674 105.204,308.637 106.938,309.592 106.735 C 309.938 106.661,310.436 106.508,310.699 106.395 C 310.962 106.282,313.344 106.182,315.992 106.173 L 320.806 106.157 321.192 106.970 M269.941 128.291 C 268.959 128.470,267.829 128.745,267.431 128.901 C 265.272 129.747,262.906 130.846,261.686 131.569 C 259.225 133.027,258.776 132.925,257.624 130.649 C 256.635 128.693,256.396 128.631,249.851 128.631 C 243.997 128.631,243.147 128.773,242.439 129.869 C 241.815 130.834,241.780 192.948,242.402 193.512 C 243.732 194.715,256.719 194.732,257.603 193.532 C 257.892 193.139,257.961 189.907,258.046 172.744 C 258.151 151.720,258.184 151.003,259.130 149.303 C 259.274 149.045,259.577 148.416,259.804 147.904 C 260.310 146.768,262.345 144.676,263.481 144.127 C 265.673 143.067,266.632 142.746,268.046 142.604 C 269.531 142.455,272.200 142.784,273.011 143.216 C 273.226 143.331,274.017 143.711,274.769 144.062 C 275.814 144.549,276.437 145.074,277.408 146.289 C 280.029 149.564,279.976 149.010,279.976 173.238 C 279.976 185.747,280.062 193.140,280.212 193.419 C 280.817 194.549,293.775 194.822,295.231 193.735 L 295.876 193.254 295.951 171.642 C 296.025 150.348,295.880 144.633,295.226 143.003 C 295.088 142.660,294.667 141.720,294.290 140.915 C 293.913 140.110,293.604 139.326,293.604 139.173 C 293.604 138.809,292.969 137.808,292.061 136.742 C 291.661 136.272,291.172 135.626,290.974 135.307 C 290.106 133.904,285.634 130.305,284.759 130.305 C 284.548 130.305,284.273 130.212,284.148 130.098 C 282.345 128.455,274.509 127.459,269.941 128.291 M215.856 129.408 L 215.302 130.185 215.235 161.387 C 215.162 195.420,215.106 193.488,216.191 194.050 C 217.335 194.641,228.726 194.433,230.066 193.797 L 230.962 193.371 230.962 161.957 L 230.962 130.544 230.006 129.588 L 229.050 128.631 222.730 128.631 L 216.410 128.631 215.856 129.408 M276.333 129.569 C 276.897 129.869,279.908 130.588,282.966 131.152 C 283.230 131.201,284.103 131.729,284.906 132.327 C 285.710 132.924,286.686 133.476,287.076 133.554 C 287.601 133.659,287.859 133.899,288.068 134.476 C 288.274 135.046,288.601 135.354,289.285 135.623 C 290.033 135.916,290.267 136.162,290.457 136.850 C 290.711 137.768,291.084 138.247,291.738 138.494 C 292.181 138.662,292.328 139.132,293.217 143.216 C 293.546 144.728,293.956 146.611,294.128 147.400 C 294.487 149.043,294.599 192.749,294.245 193.103 C 293.997 193.351,284.404 193.534,282.964 193.318 L 281.889 193.157 281.889 173.489 C 281.889 153.220,281.816 151.584,280.920 151.584 C 280.629 151.584,280.257 150.074,280.087 148.198 C 279.957 146.762,279.850 146.509,279.003 145.618 C 278.486 145.075,278.063 144.567,278.063 144.489 C 278.063 144.318,277.092 143.457,276.891 143.450 C 276.813 143.448,276.318 143.068,275.792 142.606 C 275.266 142.144,274.567 141.711,274.238 141.643 C 273.909 141.576,273.251 141.418,272.776 141.292 C 269.368 140.393,262.044 141.645,262.044 143.127 C 262.044 143.279,261.748 143.476,261.387 143.566 C 260.499 143.787,259.710 144.563,259.527 145.398 C 259.444 145.776,259.263 146.085,259.124 146.085 C 258.289 146.085,257.021 149.193,257.023 151.237 C 257.023 151.638,256.889 152.101,256.724 152.265 C 256.491 152.499,256.411 157.009,256.361 172.842 L 256.296 193.121 255.046 193.271 C 253.435 193.464,245.939 193.465,244.770 193.272 L 243.873 193.123 243.877 162.372 C 243.879 145.458,243.960 131.501,244.056 131.357 C 244.517 130.667,245.395 130.544,249.843 130.544 C 254.958 130.544,255.200 130.609,256.025 132.191 C 257.390 134.809,259.405 135.727,260.562 134.256 C 260.806 133.946,261.440 133.576,261.972 133.433 C 262.878 133.188,263.796 132.610,264.701 131.710 C 264.915 131.497,265.938 131.147,266.975 130.932 C 269.768 130.352,270.645 130.146,271.967 129.758 C 273.353 129.352,275.731 129.249,276.333 129.569 M228.518 130.916 L 229.050 131.288 229.050 162.218 L 229.050 193.148 227.555 193.300 C 226.733 193.383,223.909 193.419,221.279 193.379 L 216.497 193.305 216.432 162.463 C 216.396 145.499,216.425 131.378,216.496 131.082 L 216.626 130.544 222.306 130.544 C 227.061 130.544,228.073 130.605,228.518 130.916 " stroke="none" fill="#3685b9" fill-rule="evenodd"></path><path id="path4" d="M221.279 51.398 C 219.023 51.681,218.493 51.984,217.094 53.796 C 216.637 54.387,216.081 55.072,215.858 55.317 C 214.811 56.473,214.991 62.642,216.072 62.642 C 216.180 62.642,216.466 63.008,216.707 63.454 C 216.947 63.901,217.532 64.466,218.006 64.710 C 218.479 64.953,219.158 65.441,219.512 65.795 C 219.868 66.149,220.543 66.498,221.017 66.572 C 221.490 66.646,222.252 66.765,222.710 66.836 C 223.826 67.010,225.801 66.396,226.763 65.578 C 227.192 65.212,227.994 64.550,228.545 64.106 C 229.967 62.960,230.262 62.080,230.282 58.919 C 230.299 56.283,229.754 54.035,229.100 54.035 C 228.807 54.035,228.033 53.299,227.713 52.716 C 227.108 51.615,224.241 51.028,221.279 51.398 M225.082 53.069 C 228.657 54.601,230.219 59.044,228.232 62.027 C 227.364 63.330,226.360 64.311,225.880 64.324 C 225.716 64.328,225.162 64.531,224.648 64.774 C 223.622 65.259,222.266 65.221,221.040 64.672 C 220.646 64.496,219.934 64.184,219.459 63.979 C 217.680 63.213,216.116 58.266,217.283 57.098 C 217.443 56.939,217.573 56.575,217.573 56.290 C 217.573 55.340,218.871 54.120,221.160 52.917 C 222.029 52.460,223.825 52.530,225.082 53.069 M221.279 70.738 C 220.104 70.892,218.290 71.794,218.290 72.225 C 218.290 72.346,218.144 72.445,217.965 72.445 C 217.479 72.445,215.503 74.655,215.076 75.677 C 214.514 77.024,214.559 81.984,215.148 83.535 C 215.576 84.662,217.651 86.914,218.982 87.695 C 221.163 88.974,227.386 88.317,227.792 86.763 C 227.858 86.512,228.172 86.241,228.490 86.162 C 229.214 85.980,230.062 84.840,230.492 83.471 C 230.673 82.895,230.940 82.303,231.087 82.156 C 232.014 81.226,232.137 79.029,231.347 77.498 C 231.033 76.888,230.501 75.781,230.165 75.036 C 229.829 74.291,229.266 73.484,228.913 73.243 C 228.561 73.001,227.991 72.522,227.645 72.178 C 226.283 70.820,224.218 70.353,221.279 70.738 M225.196 72.839 C 230.681 74.611,231.539 81.788,226.726 85.630 C 226.093 86.135,223.845 86.790,222.745 86.790 C 221.385 86.790,218.744 85.554,217.892 84.519 C 215.914 82.117,215.842 81.947,215.831 79.638 C 215.821 77.478,215.985 76.948,217.070 75.639 C 217.413 75.226,217.856 74.669,218.057 74.402 C 219.219 72.850,222.802 72.066,225.196 72.839 M221.399 93.485 C 221.201 93.612,220.733 93.718,220.357 93.720 C 217.907 93.733,216.051 94.822,214.170 97.351 C 213.942 97.657,213.554 98.177,213.308 98.506 C 211.590 100.802,211.833 108.903,213.656 110.098 C 213.968 110.302,214.371 110.817,214.551 111.242 C 215.212 112.797,217.931 114.760,219.433 114.765 C 219.659 114.766,220.162 114.977,220.551 115.233 C 221.785 116.046,223.511 116.105,225.034 115.385 C 225.756 115.043,226.461 114.764,226.602 114.764 C 228.139 114.764,231.792 111.585,232.754 109.411 C 233.069 108.697,233.434 108.048,233.564 107.967 C 234.798 107.205,234.740 101.864,233.483 100.418 C 233.311 100.221,233.093 99.791,232.998 99.462 C 232.602 98.092,231.838 96.897,231.104 96.502 C 230.679 96.273,230.146 95.773,229.920 95.390 C 229.456 94.604,227.094 93.724,225.452 93.724 C 224.948 93.724,224.469 93.616,224.387 93.485 C 224.198 93.179,221.872 93.179,221.399 93.485 M227.288 95.463 C 234.298 99.899,234.005 109.718,226.761 113.123 C 224.547 114.164,219.592 113.757,217.871 112.392 C 215.868 110.806,215.421 110.390,215.421 110.114 C 215.421 109.951,215.146 109.505,214.810 109.123 C 212.901 106.955,212.745 101.494,214.537 99.582 C 214.783 99.319,215.182 98.727,215.423 98.267 C 215.664 97.806,216.162 97.215,216.528 96.952 C 216.894 96.689,217.379 96.293,217.605 96.073 C 219.161 94.556,225.248 94.172,227.288 95.463 M173.102 102.970 C 172.773 103.022,172.066 103.224,171.531 103.419 C 169.605 104.119,169.755 100.863,169.755 142.117 C 169.755 181.856,169.758 181.954,171.017 183.711 C 171.756 184.742,172.075 185.387,172.256 186.212 C 172.342 186.601,172.836 187.366,173.355 187.911 C 173.873 188.456,174.298 189.016,174.298 189.154 C 174.298 189.643,177.000 192.211,178.017 192.689 C 178.585 192.956,179.137 193.323,179.244 193.504 C 179.420 193.804,180.340 194.290,181.590 194.743 C 183.749 195.525,201.586 196.176,204.366 195.575 C 205.653 195.296,207.053 194.358,207.053 193.774 C 207.053 193.595,207.219 193.356,207.422 193.243 C 207.891 192.980,207.797 184.013,207.303 182.023 C 206.692 179.558,206.057 179.371,198.182 179.339 C 190.967 179.309,190.401 179.226,190.054 178.150 C 189.902 177.675,189.644 177.017,189.482 176.689 C 188.511 174.717,188.543 175.841,188.411 139.868 C 188.270 101.394,188.396 104.031,186.664 103.209 C 185.864 102.830,175.164 102.641,173.102 102.970 M308.228 103.200 C 306.490 104.085,306.642 99.889,306.568 148.844 C 306.496 196.727,306.432 194.374,307.830 195.090 C 308.225 195.292,308.583 195.538,308.627 195.637 C 308.744 195.898,321.217 195.856,321.866 195.592 C 322.168 195.469,322.795 195.307,323.259 195.232 C 323.917 195.127,324.246 194.876,324.753 194.093 L 325.403 193.090 325.403 184.523 C 325.403 177.228,325.455 175.936,325.753 175.822 C 325.945 175.748,326.174 175.456,326.261 175.172 C 326.472 174.488,327.959 172.423,328.802 171.643 C 329.172 171.301,329.674 170.612,329.917 170.113 L 330.358 169.206 330.518 170.061 C 330.606 170.531,330.762 170.950,330.864 170.993 C 331.293 171.171,332.997 173.776,333.283 174.691 C 333.453 175.236,333.842 175.951,334.146 176.279 C 334.838 177.025,335.684 178.584,335.684 179.112 C 335.684 179.331,336.045 179.871,336.486 180.312 C 336.928 180.753,337.590 181.750,337.957 182.528 C 338.325 183.306,338.933 184.263,339.309 184.656 C 339.684 185.049,340.111 185.772,340.258 186.262 C 340.406 186.753,340.943 187.598,341.452 188.139 C 341.962 188.680,342.379 189.331,342.379 189.586 C 342.379 189.841,342.474 190.108,342.591 190.180 C 342.708 190.253,342.874 190.690,342.961 191.152 C 343.061 191.687,343.373 192.181,343.820 192.511 C 344.205 192.796,344.634 193.371,344.771 193.788 C 345.311 195.424,346.684 195.660,356.196 195.751 C 363.000 195.817,364.319 195.773,365.281 195.446 C 367.929 194.548,368.347 192.609,366.302 190.715 C 365.900 190.342,365.571 189.932,365.571 189.803 C 365.571 189.248,364.355 186.975,363.939 186.753 C 363.688 186.619,363.206 185.940,362.868 185.245 C 362.529 184.550,361.928 183.623,361.533 183.186 C 361.138 182.749,360.581 181.909,360.296 181.320 C 360.010 180.730,359.477 180.027,359.111 179.756 C 358.711 179.460,358.332 178.860,358.163 178.257 C 358.008 177.704,357.528 176.865,357.096 176.394 C 356.663 175.922,356.053 174.907,355.740 174.140 C 355.427 173.372,354.821 172.390,354.393 171.959 C 353.966 171.527,353.616 171.029,353.616 170.853 C 353.616 170.333,352.485 168.463,351.823 167.887 C 351.487 167.595,351.147 167.031,351.068 166.635 C 350.988 166.239,350.547 165.538,350.087 165.078 C 349.627 164.618,348.950 163.627,348.582 162.874 C 348.215 162.122,347.585 161.193,347.184 160.809 C 346.783 160.426,346.328 159.727,346.174 159.255 C 345.919 158.480,345.354 157.791,344.619 157.361 C 343.863 156.919,343.983 154.773,344.811 153.910 C 346.143 152.521,349.873 148.479,350.508 147.736 C 350.837 147.352,351.630 146.473,352.270 145.784 C 352.910 145.095,353.536 144.245,353.660 143.896 C 353.785 143.547,354.191 143.135,354.563 142.981 C 355.031 142.787,355.363 142.376,355.641 141.648 C 355.895 140.983,356.276 140.483,356.674 140.291 C 357.021 140.124,357.470 139.670,357.672 139.282 C 358.130 138.403,358.569 137.930,359.425 137.393 C 359.792 137.163,360.192 136.715,360.312 136.397 C 360.433 136.080,360.912 135.574,361.377 135.274 C 361.841 134.974,362.284 134.537,362.360 134.304 C 362.502 133.869,364.087 132.218,364.363 132.218 C 364.533 132.218,365.332 129.761,365.332 129.239 C 365.332 127.209,364.136 126.958,354.485 126.958 C 345.760 126.958,344.813 127.089,343.695 128.456 C 343.348 128.881,342.909 129.418,342.721 129.650 C 342.533 129.882,342.379 130.164,342.379 130.277 C 342.379 130.391,341.895 130.953,341.303 131.526 C 340.711 132.100,340.111 132.920,339.969 133.350 C 339.828 133.779,339.568 134.130,339.393 134.130 C 339.002 134.130,337.836 135.478,337.836 135.930 C 337.836 136.111,337.352 136.592,336.760 136.999 C 336.169 137.407,335.684 137.905,335.684 138.108 C 335.684 138.311,335.200 138.947,334.608 139.522 C 334.017 140.097,333.533 140.659,333.533 140.771 C 333.533 140.882,333.344 141.182,333.114 141.437 C 331.588 143.128,330.641 144.462,330.513 145.103 C 330.431 145.512,330.233 145.846,330.072 145.846 C 329.576 145.846,328.728 146.732,328.546 147.442 C 328.418 147.938,328.068 148.263,327.230 148.668 C 326.439 149.049,325.986 149.453,325.759 149.983 C 325.476 150.640,325.420 147.578,325.357 128.153 C 325.275 102.799,325.387 104.326,323.542 103.401 C 322.227 102.740,309.460 102.573,308.228 103.200 M133.096 103.975 C 131.642 104.934,131.728 102.343,131.814 142.590 C 131.902 183.610,131.874 182.964,133.665 184.887 C 133.931 185.172,134.214 185.677,134.294 186.008 C 134.441 186.617,135.179 187.845,135.663 188.285 C 135.808 188.416,136.463 189.199,137.120 190.024 C 137.976 191.100,138.700 191.719,139.676 192.210 C 140.425 192.587,141.339 193.106,141.708 193.363 C 143.835 194.845,146.201 195.080,159.059 195.090 C 170.338 195.099,170.270 195.104,171.488 194.142 C 172.430 193.399,172.466 192.986,171.674 192.039 C 170.526 190.666,170.472 190.591,170.472 190.352 C 170.472 190.229,170.164 189.799,169.788 189.396 C 169.412 188.993,168.973 188.310,168.812 187.876 C 168.651 187.443,168.421 186.902,168.300 186.674 C 168.180 186.446,168.081 186.129,168.081 185.971 C 168.081 185.813,167.769 185.031,167.386 184.234 C 167.004 183.437,166.474 182.292,166.208 181.688 C 165.409 179.875,165.388 179.870,158.631 179.754 C 152.277 179.644,151.981 179.592,150.896 178.393 C 149.606 176.966,149.671 178.950,149.671 141.012 C 149.670 102.156,149.765 104.596,148.237 103.832 C 147.150 103.289,133.948 103.414,133.096 103.975 M147.798 104.702 C 148.747 105.175,148.707 103.733,148.722 138.314 C 148.729 156.067,148.827 172.016,148.940 173.758 C 149.342 179.997,149.686 180.237,158.623 180.525 C 161.918 180.631,164.641 180.726,164.674 180.736 C 164.804 180.774,165.929 183.252,165.929 183.500 C 165.929 183.647,166.189 184.300,166.506 184.950 C 166.823 185.601,167.314 186.671,167.597 187.328 C 168.346 189.073,168.869 190.057,169.289 190.512 C 172.536 194.038,172.048 194.241,160.072 194.336 C 147.595 194.435,145.323 194.215,142.499 192.635 C 142.170 192.451,141.399 192.050,140.785 191.743 C 139.559 191.130,137.992 189.748,136.880 188.298 C 136.485 187.784,136.035 187.236,135.880 187.080 C 135.724 186.924,135.042 185.631,134.363 184.207 C 132.382 180.047,132.435 181.285,132.524 141.303 C 132.602 106.143,132.623 105.424,133.567 104.865 C 134.699 104.195,146.508 104.060,147.798 104.702 M186.727 105.320 C 187.044 105.947,187.104 110.445,187.209 141.184 C 187.330 177.003,187.354 177.884,188.172 177.884 C 188.282 177.884,188.447 178.121,188.539 178.411 C 189.105 180.194,191.895 180.749,200.334 180.756 C 206.071 180.761,205.918 180.549,205.807 188.379 L 205.738 193.254 205.076 193.749 C 204.250 194.365,195.327 194.593,188.353 194.177 L 184.117 193.924 181.611 192.718 C 180.233 192.055,179.029 191.512,178.935 191.512 C 178.627 191.512,175.864 188.796,175.352 187.991 C 175.077 187.559,174.583 186.904,174.256 186.536 C 173.928 186.168,173.361 185.012,172.995 183.968 C 172.629 182.923,172.197 181.745,172.035 181.351 C 171.202 179.331,171.189 178.780,171.189 142.607 C 171.189 112.068,171.240 106.739,171.533 106.036 C 172.133 104.600,172.630 104.513,179.913 104.560 L 186.366 104.603 186.727 105.320 M322.233 104.847 C 323.699 105.577,323.600 104.009,323.730 128.619 C 323.860 153.244,323.790 152.044,325.132 152.762 C 325.633 153.030,328.344 150.454,329.519 148.595 C 329.851 148.069,330.366 147.424,330.663 147.161 C 330.961 146.898,331.476 146.252,331.808 145.726 C 332.141 145.200,332.612 144.629,332.855 144.456 C 333.098 144.284,333.451 143.854,333.639 143.500 C 333.828 143.146,334.362 142.427,334.826 141.901 C 335.290 141.375,335.753 140.836,335.856 140.704 C 336.031 140.479,338.475 137.433,339.271 136.448 C 339.468 136.204,339.979 135.629,340.406 135.170 C 340.834 134.711,341.184 134.258,341.184 134.163 C 341.184 134.068,341.533 133.616,341.961 133.159 C 342.388 132.701,343.038 131.868,343.404 131.307 C 343.771 130.746,344.654 129.914,345.365 129.459 L 346.660 128.631 354.099 128.631 C 362.582 128.631,362.463 128.608,362.463 130.281 C 362.463 131.461,362.173 132.007,360.789 133.431 C 360.460 133.770,359.853 134.469,359.439 134.985 C 359.026 135.501,358.326 136.309,357.885 136.780 C 356.137 138.647,354.442 140.644,354.240 141.076 C 354.122 141.327,353.853 141.588,353.642 141.656 C 353.431 141.725,353.010 142.145,352.707 142.591 C 352.404 143.037,351.705 143.872,351.153 144.447 C 350.194 145.445,348.810 147.003,347.043 149.074 C 346.594 149.600,345.676 150.637,345.004 151.378 C 342.399 154.252,342.122 156.589,344.120 158.858 C 344.354 159.124,344.970 160.114,345.488 161.057 C 346.006 162.001,346.577 162.921,346.757 163.101 C 346.938 163.282,347.443 164.072,347.880 164.859 C 348.316 165.645,348.806 166.396,348.968 166.527 C 349.130 166.659,349.822 167.681,350.507 168.799 C 351.192 169.916,351.822 170.885,351.907 170.950 C 351.993 171.016,352.331 171.588,352.660 172.221 C 352.989 172.855,353.432 173.561,353.644 173.791 C 353.857 174.021,354.382 174.848,354.810 175.628 C 355.238 176.409,355.782 177.262,356.019 177.525 C 356.256 177.788,356.730 178.564,357.073 179.250 C 357.416 179.935,357.828 180.635,357.988 180.804 C 358.366 181.204,359.579 183.042,360.139 184.065 C 360.380 184.506,360.791 185.096,361.051 185.376 C 361.312 185.655,361.586 186.128,361.661 186.427 C 361.736 186.725,361.881 186.970,361.984 186.970 C 362.087 186.970,362.233 187.214,362.308 187.512 C 362.383 187.811,362.637 188.268,362.872 188.528 C 363.430 189.147,364.614 190.971,364.614 191.213 C 364.614 191.316,364.880 191.792,365.205 192.271 L 365.796 193.140 365.160 193.557 C 363.878 194.397,348.934 194.726,347.104 193.954 C 346.383 193.650,344.802 191.341,343.263 188.344 C 342.739 187.325,342.238 186.491,342.148 186.491 C 342.059 186.491,341.622 185.711,341.177 184.758 C 340.733 183.805,340.246 182.917,340.096 182.785 C 339.642 182.388,338.867 181.149,338.674 180.514 C 338.575 180.185,338.147 179.432,337.723 178.840 C 337.300 178.249,336.762 177.388,336.528 176.928 C 335.590 175.081,335.343 174.645,335.093 174.392 C 334.950 174.247,334.420 173.306,333.916 172.300 C 333.413 171.295,332.914 170.472,332.808 170.472 C 332.702 170.472,332.381 170.093,332.094 169.630 C 331.658 168.923,330.562 168.081,330.079 168.081 C 329.875 168.081,326.360 171.720,326.360 171.932 C 326.360 172.037,325.978 172.494,325.511 172.947 C 323.831 174.578,323.730 175.250,323.730 184.727 L 323.730 193.131 323.192 193.478 C 321.263 194.722,309.011 194.766,308.078 193.532 C 307.700 193.032,307.546 109.583,307.918 106.621 C 308.195 104.407,307.873 104.502,315.146 104.492 C 320.371 104.485,321.634 104.548,322.233 104.847 M31.231 108.443 C 30.721 108.630,30.049 109.079,29.737 109.442 L 29.170 110.102 29.169 118.306 C 29.169 128.699,29.006 129.337,26.344 129.345 C 23.364 129.353,22.914 130.213,22.768 136.176 C 22.616 142.440,23.365 144.172,26.230 144.172 C 27.326 144.172,27.625 144.278,28.327 144.917 L 29.145 145.662 29.225 162.191 C 29.295 176.506,29.356 178.881,29.686 179.916 C 29.896 180.574,30.244 181.863,30.459 182.780 C 30.710 183.850,31.107 184.768,31.564 185.337 C 31.956 185.825,32.277 186.334,32.277 186.469 C 32.277 186.905,33.685 188.948,34.607 189.850 C 35.101 190.333,35.737 190.990,36.020 191.309 C 36.303 191.629,37.164 192.195,37.933 192.567 C 38.701 192.939,39.492 193.377,39.689 193.539 C 41.261 194.837,44.200 195.081,58.387 195.090 C 71.414 195.099,71.737 195.077,72.699 194.124 C 73.510 193.320,73.441 192.958,72.238 191.674 C 69.452 188.705,69.092 188.285,68.950 187.837 C 68.867 187.576,68.538 187.086,68.219 186.748 C 67.701 186.198,66.228 183.379,66.228 182.936 C 66.228 182.550,64.034 180.317,63.420 180.078 C 63.043 179.932,60.154 179.777,56.665 179.718 C 49.605 179.596,48.947 179.461,48.177 177.972 C 47.481 176.627,47.284 146.236,47.962 144.949 L 48.372 144.172 52.100 144.170 C 58.593 144.166,59.133 143.554,59.014 136.328 C 58.904 129.692,58.764 129.550,52.129 129.348 L 48.191 129.229 47.904 128.273 C 47.704 127.609,47.610 124.662,47.598 118.641 C 47.577 108.710,47.640 109.036,45.596 108.429 C 43.903 107.926,32.611 107.937,31.231 108.443 M45.168 109.138 C 46.931 109.760,46.828 109.140,46.909 119.612 L 46.981 129.063 47.756 129.804 L 48.531 130.544 52.262 130.544 C 57.692 130.544,58.099 130.988,58.099 136.907 C 58.099 140.184,57.952 140.972,57.198 141.726 C 55.997 142.928,55.790 142.977,51.951 142.977 L 48.299 142.977 47.573 143.980 L 46.846 144.983 46.914 161.183 C 46.966 173.750,47.048 177.449,47.280 177.681 C 47.445 177.845,47.579 178.157,47.579 178.373 C 47.579 179.850,49.366 180.267,56.640 180.487 L 62.952 180.679 63.953 181.785 C 64.504 182.393,65.318 183.620,65.762 184.512 C 67.078 187.152,68.443 189.046,71.080 191.896 L 72.226 193.134 71.319 193.698 L 70.412 194.262 59.414 194.331 C 44.618 194.425,43.578 194.329,39.999 192.549 C 37.023 191.068,34.553 188.952,33.578 187.049 C 33.323 186.551,32.777 185.601,32.365 184.938 C 31.649 183.785,31.192 182.384,30.624 179.599 C 30.453 178.757,30.365 172.819,30.365 162.062 C 30.365 143.861,30.440 144.679,28.659 143.554 C 28.002 143.139,27.402 142.977,26.528 142.977 C 23.967 142.977,23.444 141.972,23.436 137.036 C 23.428 131.541,23.804 130.679,26.300 130.486 C 30.173 130.185,30.210 130.081,30.361 118.957 L 30.484 109.881 31.297 109.334 C 32.332 108.637,43.308 108.482,45.168 109.138 M270.652 126.490 C 270.323 126.599,268.983 126.882,267.674 127.118 C 265.882 127.443,264.968 127.749,263.968 128.360 C 261.137 130.093,259.457 130.257,258.842 128.862 C 258.050 127.068,258.094 127.077,249.827 127.077 C 241.625 127.077,241.858 127.030,241.104 128.835 C 240.472 130.347,240.611 193.494,241.249 194.389 C 242.104 195.590,243.512 195.816,250.144 195.816 C 256.933 195.816,257.773 195.655,259.231 194.079 L 260.124 193.113 260.204 172.767 C 260.257 159.264,260.371 152.019,260.544 151.225 C 261.051 148.901,261.439 147.962,262.044 147.597 C 262.373 147.398,262.919 146.842,263.257 146.361 C 264.791 144.180,273.285 144.053,275.133 146.184 C 275.428 146.524,275.751 146.802,275.850 146.802 C 275.950 146.803,276.332 147.338,276.699 147.991 C 277.066 148.645,277.568 149.321,277.815 149.494 C 278.680 150.100,278.781 152.607,278.781 173.578 C 278.781 196.615,278.595 194.769,280.978 195.432 C 282.076 195.737,283.576 195.816,288.273 195.816 C 294.946 195.816,295.686 195.680,297.239 194.167 L 298.124 193.305 298.131 171.429 C 298.139 149.230,298.046 146.635,297.228 146.101 C 297.114 146.026,296.946 145.266,296.856 144.411 C 296.554 141.550,296.171 140.305,295.338 139.469 C 294.910 139.040,294.561 138.561,294.561 138.405 C 294.561 137.826,293.353 135.662,292.653 134.987 C 292.255 134.603,291.752 133.886,291.535 133.394 C 291.318 132.903,290.878 132.381,290.557 132.235 C 290.237 132.088,289.582 131.532,289.102 130.997 C 288.320 130.126,286.631 129.109,285.966 129.109 C 285.828 129.109,285.714 129.010,285.714 128.888 C 285.714 128.459,283.181 127.484,281.052 127.094 C 279.868 126.877,278.511 126.596,278.036 126.470 C 276.998 126.194,271.496 126.209,270.652 126.490 M90.974 127.209 C 88.119 127.424,84.399 128.383,84.399 128.904 C 84.399 128.996,84.079 129.142,83.688 129.228 C 82.692 129.446,80.264 130.651,79.875 131.119 C 79.697 131.334,79.217 131.668,78.807 131.863 C 77.606 132.434,72.684 137.586,72.684 138.273 C 72.684 138.439,72.280 139.010,71.787 139.543 C 71.294 140.075,70.689 141.090,70.443 141.798 C 70.197 142.506,69.742 143.418,69.431 143.825 C 69.115 144.240,68.597 145.607,68.253 146.939 C 67.916 148.244,67.349 150.173,66.994 151.225 L 66.348 153.138 66.348 161.745 C 66.348 167.581,66.436 170.622,66.622 171.189 C 67.207 172.972,68.110 176.164,68.475 177.741 C 68.686 178.649,69.122 179.739,69.446 180.163 C 69.770 180.588,70.305 181.547,70.636 182.295 C 70.967 183.043,71.670 184.147,72.200 184.748 C 72.729 185.349,73.162 185.980,73.162 186.149 C 73.162 186.319,73.659 186.975,74.265 187.609 C 74.872 188.242,75.491 188.932,75.640 189.142 C 75.789 189.351,76.303 189.782,76.781 190.099 C 77.260 190.416,78.028 190.975,78.489 191.342 C 78.950 191.708,79.850 192.192,80.488 192.418 C 81.127 192.643,81.973 193.050,82.367 193.322 C 83.611 194.181,85.680 194.758,89.169 195.218 C 89.754 195.296,90.346 195.447,90.484 195.556 C 91.896 196.666,102.957 196.670,104.369 195.561 C 104.504 195.455,105.204 195.293,105.923 195.202 C 108.317 194.896,110.238 194.423,111.251 193.889 C 112.241 193.368,113.681 192.648,115.657 191.685 C 116.214 191.414,116.729 191.005,116.802 190.778 C 116.874 190.550,117.171 190.303,117.462 190.227 C 118.236 190.027,121.231 187.357,121.736 186.418 C 122.379 185.221,121.722 183.344,120.114 181.786 C 119.276 180.974,118.589 180.218,118.589 180.107 C 118.589 179.996,118.240 179.717,117.812 179.487 C 117.385 179.256,116.861 178.764,116.649 178.393 C 116.437 178.022,115.845 177.406,115.334 177.024 C 114.823 176.643,114.264 176.141,114.092 175.910 C 113.239 174.767,110.888 174.923,109.983 176.182 C 109.917 176.274,109.109 176.855,108.189 177.473 C 107.268 178.092,106.282 178.767,105.998 178.973 C 103.420 180.847,91.107 180.398,89.666 178.377 C 89.473 178.106,89.198 177.884,89.056 177.884 C 88.540 177.884,85.871 174.772,85.718 173.992 C 85.551 173.139,85.447 172.867,84.544 170.927 C 83.737 169.192,83.742 169.160,84.937 168.383 L 85.953 167.723 104.250 167.603 L 122.546 167.484 123.212 166.960 C 124.828 165.689,124.918 165.418,125.002 161.621 C 125.073 158.359,124.939 156.774,124.343 153.855 C 124.209 153.198,123.942 151.423,123.750 149.910 C 123.380 147.001,123.032 145.761,122.207 144.407 C 121.928 143.949,121.699 143.443,121.698 143.283 C 121.697 142.686,120.408 140.196,119.632 139.288 C 119.190 138.771,118.828 138.208,118.828 138.037 C 118.828 137.608,113.432 132.218,113.001 132.218 C 112.810 132.218,112.280 131.855,111.824 131.412 C 108.411 128.098,100.457 126.494,90.974 127.209 M215.536 127.291 C 215.138 127.464,214.493 128.079,214.101 128.656 L 213.389 129.707 213.326 161.526 L 213.263 193.345 214.114 194.222 C 214.583 194.704,215.025 195.099,215.098 195.099 C 215.170 195.099,215.577 195.264,216.002 195.465 C 216.648 195.772,217.786 195.819,222.972 195.756 C 230.141 195.668,231.205 195.482,232.090 194.167 L 232.636 193.354 232.633 162.009 C 232.630 125.238,232.819 127.730,229.987 127.193 C 228.054 126.827,216.421 126.905,215.536 127.291 M101.733 128.374 C 108.260 129.693,112.600 132.222,116.968 137.254 C 118.327 138.818,120.234 141.930,120.842 143.574 C 121.085 144.232,121.547 145.362,121.869 146.085 C 122.190 146.808,122.549 147.615,122.666 147.878 C 122.873 148.344,123.229 150.935,123.619 154.812 C 123.725 155.864,123.820 158.523,123.830 160.721 L 123.849 164.717 123.116 165.553 L 122.382 166.389 103.690 166.469 C 83.942 166.555,83.976 166.553,83.758 167.639 C 83.682 168.019,83.527 168.388,83.412 168.459 C 82.911 168.769,83.395 171.089,84.357 172.983 C 84.624 173.509,85.076 174.432,85.361 175.035 C 85.889 176.153,86.581 176.955,88.429 178.590 C 89.489 179.528,90.334 179.912,92.887 180.614 C 93.676 180.830,94.652 181.112,95.056 181.239 C 96.209 181.603,100.053 181.517,101.449 181.097 C 102.132 180.892,103.120 180.616,103.646 180.483 C 106.262 179.823,107.765 179.095,109.863 177.471 C 109.994 177.370,110.505 177.074,110.998 176.814 C 111.491 176.554,111.895 176.258,111.895 176.156 C 111.895 175.242,113.178 176.228,117.717 180.634 L 120.674 183.503 120.797 184.807 C 120.908 185.994,120.862 186.165,120.272 186.719 C 118.467 188.418,117.608 189.116,116.594 189.710 C 115.982 190.069,115.481 190.451,115.481 190.559 C 115.481 190.667,114.755 191.094,113.867 191.509 C 112.980 191.924,111.984 192.422,111.656 192.616 C 109.679 193.785,108.151 194.146,101.136 195.103 C 98.964 195.399,93.488 195.267,91.743 194.875 C 91.189 194.751,89.605 194.473,88.225 194.258 C 86.331 193.963,85.215 193.631,83.682 192.904 C 82.564 192.374,81.273 191.763,80.813 191.547 C 80.095 191.210,79.364 190.724,78.296 189.876 C 78.161 189.768,77.731 189.474,77.340 189.222 C 76.541 188.706,75.553 187.715,75.553 187.429 C 75.553 187.325,75.354 187.178,75.112 187.101 C 74.869 187.024,74.117 186.110,73.440 185.071 C 72.763 184.032,72.067 183.039,71.894 182.864 C 71.721 182.689,71.317 181.901,70.996 181.112 C 70.675 180.323,70.251 179.486,70.054 179.252 C 69.698 178.830,69.245 177.451,68.857 175.613 C 67.693 170.088,67.420 168.410,67.159 165.184 C 66.853 161.396,67.242 154.429,67.871 152.421 C 67.994 152.026,68.271 150.897,68.485 149.910 C 69.181 146.709,69.400 145.986,70.079 144.650 C 70.921 142.994,71.488 141.662,71.488 141.341 C 71.488 141.205,71.814 140.737,72.212 140.302 C 72.610 139.866,73.140 139.118,73.390 138.639 C 73.813 137.829,77.422 134.066,78.695 133.108 C 84.559 128.695,93.862 126.784,101.733 128.374 M278.529 128.270 C 280.447 128.608,283.659 129.653,284.148 130.098 C 284.273 130.212,284.548 130.305,284.759 130.305 C 285.634 130.305,290.106 133.904,290.974 135.307 C 291.172 135.626,291.661 136.272,292.061 136.742 C 292.969 137.808,293.604 138.809,293.604 139.173 C 293.604 139.326,293.913 140.110,294.290 140.915 C 294.667 141.720,295.088 142.660,295.226 143.003 C 295.880 144.633,296.025 150.348,295.951 171.642 L 295.876 193.254 295.231 193.735 C 293.775 194.822,280.817 194.549,280.212 193.419 C 280.062 193.140,279.976 185.747,279.976 173.238 C 279.976 149.010,280.029 149.564,277.408 146.289 C 276.437 145.074,275.814 144.549,274.769 144.062 C 274.017 143.711,273.226 143.331,273.011 143.216 C 272.200 142.784,269.531 142.455,268.046 142.604 C 266.632 142.746,265.673 143.067,263.481 144.127 C 262.345 144.676,260.310 146.768,259.804 147.904 C 259.577 148.416,259.274 149.045,259.130 149.303 C 258.184 151.003,258.151 151.720,258.046 172.744 C 257.961 189.907,257.892 193.139,257.603 193.532 C 256.719 194.732,243.732 194.715,242.402 193.512 C 241.780 192.948,241.815 130.834,242.439 129.869 C 243.147 128.773,243.997 128.631,249.851 128.631 C 256.396 128.631,256.635 128.693,257.624 130.649 C 258.776 132.925,259.225 133.027,261.686 131.569 C 262.906 130.846,265.272 129.747,267.431 128.901 C 269.798 127.973,275.121 127.670,278.529 128.270 M230.006 129.588 L 230.962 130.544 230.962 161.957 L 230.962 193.371 230.066 193.797 C 228.726 194.433,217.335 194.641,216.191 194.050 C 215.106 193.488,215.162 195.420,215.235 161.387 L 215.302 130.185 215.856 129.408 L 216.410 128.631 222.730 128.631 L 229.050 128.631 230.006 129.588 M93.365 141.789 C 92.313 141.877,91.237 142.029,90.974 142.129 C 89.944 142.520,88.817 143.055,88.703 143.207 C 88.637 143.295,87.985 143.815,87.254 144.362 C 85.931 145.352,85.779 145.579,83.602 149.845 C 82.397 152.207,83.158 155.240,85.019 155.495 C 86.804 155.740,105.338 155.675,106.004 155.422 C 106.794 155.122,107.475 153.642,107.426 152.336 C 107.388 151.338,106.269 147.529,105.940 147.280 C 105.853 147.215,105.385 146.613,104.901 145.943 C 104.416 145.273,103.559 144.413,102.996 144.031 C 102.433 143.649,101.919 143.274,101.853 143.198 C 100.884 142.078,97.220 141.470,93.365 141.789 M97.691 142.621 C 99.090 142.786,101.136 143.593,101.136 143.979 C 101.136 144.090,101.539 144.366,102.032 144.594 C 103.075 145.077,103.258 145.238,103.860 146.204 C 104.105 146.599,104.554 147.191,104.857 147.519 C 106.181 148.956,106.767 153.056,105.805 154.154 L 105.333 154.692 96.026 154.692 C 84.031 154.692,83.363 154.524,83.906 151.637 C 84.012 151.074,84.261 150.429,84.459 150.202 C 84.657 149.976,85.051 149.253,85.336 148.595 C 85.620 147.938,85.976 147.120,86.125 146.778 C 86.275 146.437,86.911 145.791,87.539 145.344 C 88.167 144.897,88.686 144.450,88.692 144.351 C 88.698 144.253,88.827 144.172,88.979 144.172 C 89.131 144.172,89.601 143.909,90.023 143.587 C 90.875 142.937,94.850 142.149,96.018 142.399 C 96.161 142.430,96.914 142.530,97.691 142.621 " stroke="none" fill="#adcde2" fill-rule="evenodd"></path></g></svg>